<?xml version="1.0" encoding="UTF-8"?><svg id="_레이어_2" xmlns="http://www.w3.org/2000/svg" viewBox="0 0 1780.68 3685.27"><defs><style>.cls-1{fill:#fff;stroke-width:0px;}</style></defs><g id="_레이어_2-2"><path class="cls-1" d="M310.73,35.33c.67,20.63,1.11,52.42-.91,91.2-4.09,78.65-13.39,92.07-6.46,110.71,11.86,31.89,64.42,60.83,267.09,42.69,227.92-20.4,373.45-76.1,393.43-32.68,16.53,35.92-62.66,108.93-38.48,160.26,6.17,13.1,23.24,33.62,39.44,48.5,13.95,12.81,17.5,12.48,19.24,11.6,11.92-6.02-8.72-64.07,0-68.53,8.69-4.45,52.86,41.18,50.02,95.94-2.18,41.97-31.76,85.43-53.87,82.24-15.7-2.27-30.82-28.52-25.01-41.12,13.89-30.13,139.66,34.6,162.57-4.22,16.61-28.15-26.67-100.91-37.52-119.14-20.01-33.63-31.4-39.14-28.86-50.61,8.55-38.69,156.5-59.52,192.39,0,19.09,31.66-9.6,59.4,0,123.36,8.99,59.85,43.47,97.92,87.54,146.55,1.73,1.91,3.04,3.31,3.87,4.2,42.57,45.63,91.82,80.67,184.67,128.65,115.73,59.8,132.4,52.5,142.37,46.39,10.55-6.47,20.37-26.83,50.02-50.61,9.2-7.38,17-12.65,23.09-9.49,7.14,3.71,10.39,18.24,5.77,26.36-4.94,8.69-15.46,3.96-23.09,12.65-8.1,9.23-5.56,25.17-3.85,35.85.96,5.98,5.18,32.43,25.01,47.45,19.66,14.89,39.69,7.19,41.36,14.76,2.72,12.3-48.7,38.78-49.06,39.01,1.21,10.26-1.17,19.08-5.77,21.09-4.99,2.18-11.84-4-17.95-9.52-6.82-6.15-5.79-7.88-8.98-9.46-9.99-4.96-20.2,11.81-39.44,16.87-13.73,3.61-18.09-2.41-30.78-2.11-30.43.72-64.42,36.69-72.15,74.86-7.23,35.69,10.56,63.17,0,70.64-7.76,5.48-18.55-8.51-45.21-12.65-17.77-2.76-30.13.79-38.48,2.11-63.78,10.1-119.39-73.98-158.72-51.66-20.28,11.51-19.99,42.11-36.55,42.17-15.92.06-20.21-28.21-41.36-31.63-17.57-2.84-38.61,12.79-38.48,25.3.15,14.03,26.95,26.2,64.45,43.23,25.7,11.67,31.54,11.6,34.63,18.98,8.01,19.1-17.2,52.83-16.65,53.15.06.04.36-.34.29-.44-.62-.94-28.44,33.52-57.72,32.68-17.95-.51-35.57-14.27-42.32-31.63-.93-2.39-7.86-20.84,0-32.68,6.98-10.52,20.38-7.91,21.16-12.65,1.64-9.97-58.55-16.33-66.37-46.39-5.4-20.72,15.17-48.5,32.71-62.21,23.04-18.01,44.01-14.18,47.14-27.41,3.85-16.3-25.74-31.43-21.16-45.34,4.05-12.31,31.24-12.58,38.48-12.65,21.57-.22,25.1,7.31,43.29,6.33,16.44-.89,41.1-8.53,44.25-23.2,3.5-16.26-21.98-29.5-17.31-45.34,2.91-9.89,13.61-7.33,21.16-18.98,9.58-14.78-1.49-28.4,0-57.99,1.77-35.29,18.86-42.45,12.51-60.1-7.89-21.91-37.71-20.58-39.44-37.96-1.1-11.07,9.68-24.76,15.39-23.2,16.75,4.58,28.47,150.93-36.55,219.3-44.39,46.67-86.7,17.23-119.28,60.1-61.79,81.3,20.41,279.27,72.15,280.45,10.56.24,27.33-7.56,35.59,2.11,9.07,10.61-.15,32.89,5.77,35.85,5.95,2.97,14.45-19.9,30.78-21.09,14.58-1.06,21.32,16.2,29.82,12.65,10.04-4.19,14.15-33.91,3.85-43.23-11.21-10.14-33.25,9.48-41.36,0-5.75-6.72-1.18-24.17,7.7-33.74,14.54-15.68,42.55-12.27,54.83,2.11,8.6,10.08,5.15,20.46,9.62,43.23,3.25,16.56,10.5,30.72,25.01,59.04,15.4,30.07,32.48,63.41,62.53,99.11,18.03,21.42,22.43,21.94,24.05,31.63,5.53,32.98-41.8,48.64-45.21,93.83-2.65,35.1,23.47,58.02,13.47,70.64-9.62,12.14-35.27-7.19-52.91,6.33-14.64,11.22-19.32,37.47-13.47,55.88,4.86,15.29,13.95,15.68,24.05,29.52,23.36,32.02,19.81,91.72-1.92,130.74-13.54,24.31-26.37,26.64-25.97,42.17.8,31.54,54.3,46.06,50.98,66.42-2.4,14.73-30.73,9.06-45.21,32.68-13.25,21.61,2.67,39.05-9.62,69.59-10.02,24.91-32.98,44.04-44.25,39.01-9.66-4.31-2.96-22.92-16.35-39.01-16.7-20.06-47.33-15.45-51.94-14.76-4.34.65-38.02,5.71-45.21,28.47-6.82,21.57,16.16,40.1,7.7,54.82-5.71,9.94-22.96,13.27-30.78,6.33-12.46-11.06,3.92-43.76-5.77-50.61-2.96-2.09-10.66-3.4-47.14,29.52-24.88,22.45-33.7,34.25-43.29,43.23-48.08,45.03-132.6,35.24-136.6,18.98-2.86-11.66,34.43-31.53,31.74-36.9-3-6.01-48.57,20.79-58.68,7.38-5.86-7.77,5.39-22.15,0-28.47-9.51-11.16-60.57,14.84-58.68,32.68.97,9.14,15.73,15.25,29.82,21.09,22.97,9.51,33.41,5.71,38.48,14.76,5.61,10.02,1.09,29.51-9.62,36.9-17.2,11.87-39.57-14.88-54.83-3.16-13.97,10.73-13.41,47.15-13.47,47.45-10.23,4.47-22.1,12.04-26.93,25.3-6.55,17.99,4.86,32.71-1.92,41.12-5.59,6.93-21.44,1.91-52.91-8.44-58.59-19.25-66.41-22.12-68.3-30.57-2.45-10.96,8.42-16.33,26.93-52.72,12.49-24.56,18.65-37,14.43-45.34-5.77-11.38-23.82-3.3-60.6-8.44-45.37-6.33-52.92-23.51-74.07-14.76-6.3,2.6-18.49,15.1-42.87,40.08-12.09,12.39-13.82,14.89-23.5,24.23-16.7,16.11-25.04,24.17-37.52,31.63-13.73,8.22-34.01,20.36-51.95,12.65-10.28-4.42-9.82-11.06-18.28-12.65-19.91-3.74-40.96,29.59-44.25,34.79-15.56,24.63-11.57,37.58-25.97,48.5-15.3,11.6-34.66,8.24-34.63,10.54.04,3.15,36.03-2.69,45.21,14.76,0,0,2.93,5.57-4.81,45.34,2.25,3.67,14.28,22.52,35.59,25.3,2.74.36,23.47,2.77,32.71-10.54,5.93-8.55.77-14.41,5.77-27.41,4.67-12.12,11.31-12.61,27.9-29.52,19.24-19.62,16.19-24.97,26.93-30.57,18.26-9.54,39.28-.45,45.21,2.11,26.62,11.5,26.42,30.65,42.33,32.68,24.19,3.09,53.17-37.57,60.6-76.97,2.7-14.3,8.38-44.4-5.77-57.99-19.2-18.45-62.97,4.96-134.67,44.28-23.16,12.7-54.32,30.87-97.16,60.1,0,0-51.93,29.83-88.84,63.93-5.66,5.23-9.71,9.57-11.43,11.46-13.53,14.78-23.48,30.38-28.63,40.59-14.39,28.51-3.73,38.82-16.5,86.64-8.79,32.92-13.52,39.05-18.13,43.05-27.07,23.47-76.52-4.21-81.77,8.44-2.92,7.05,12.86,14.76,13.47,32.68.73,21.38-20.97,32.47-17.32,40.06,4.09,8.48,36.83,6.4,48.1-12.65,7.98-13.5.55-27.68,7.7-33.74,10-8.48,31.39,20.47,41.36,14.76,17.31-9.91-33.25-101.85-1.92-151.82,21.51-34.31,69.45-29.42,70.22-49.55.83-21.47-53.59-29.74-60.6-67.48-3.67-19.74,14.65-35.52,9.62-41.12-6.64-7.38-31.3,24.03-54.83,16.87-26.59-8.1-26.62-57.82-50.02-60.1-8.76-.85-8.01,6.19-31.74,13.71-16.94,5.36-25.71,4.43-30.78,12.65-5.18,8.39.65,14.7-3.85,21.09-8.29,11.76-30.91-5.65-52.91,6.33-10.65,5.8-7.15,10.86-23.09,25.3-21.14,19.15-36.95,18.99-37.52,28.47-.59,9.8,16.26,11.04,24.05,29.52,7.38,17.5-2.7,28.34,3.85,39.01,11.81,19.25,63.06,14.06,70.22-6.33,6.18-17.58-23.64-37.36-16.35-53.77,4.93-11.11,24.43-15.16,37.52-8.44,17.17,8.82,19.74,34.34,21.16,48.5,2.3,22.85-3.2,32.04-5.77,53.77-6.21,52.59,17.86,67.85,11.54,126.52-1.61,14.97-4.12,38.26-15.39,42.17-14.45,5.02-34.79-24.81-39.44-31.63-56.44-82.77-26.37-298.46,88.5-389.05,26.58-20.96,25.93-10.18,66.37-39.01,88.42-63.05,113.04-129.95,171.23-129.68,18.26.08,12.93,6.66,39.44,10.54,88.88,13.03,148.6-60.89,220.28-53.77,28.66,2.85,42.33,8.44,42.33,8.44,24.59,10.06,32.76,23.68,47.14,20.03,15.01-3.81,22.54-22.82,23.09-24.25,7.79-20.39-4.84-32.88,1.92-50.61,5.15-13.5,15.63-14.49,31.74-26.36,22.63-16.67,45.56-46.85,50.02-76.97,5.67-38.3-22.17-51.99-13.47-79.07,11.68-36.35,74.21-50.34,83.69-35.85,4.44,6.79-4.04,17.91-23.09,79.07-5.52,17.74-7.32,24.85-3.85,29.52,8.24,11.09,40.05.19,62.53-14.76,28.1-18.69,24.24-32.15,51.94-57.99,39.23-36.59,80.39-40.77,78.88-56.93-.39-4.16-7.31-10.85-21.16-24.25-6.74-6.52-9.7-8.77-16.35-14.76-19.5-17.56-29.25-26.33-30.78-33.74-3.31-15.96,9.67-40.58,30.78-45.34,19.75-4.44,40.26,9.93,43.29,25.3,3.24,16.46-14.57,29.02-10.58,36.9,2.94,5.8,16.64,7.01,56.76-6.33,11.5-24.05,20.19-44.16,25.97-57.99,20.79-49.73,32.37-86.35,36.55-127.57,3.05-30.02-.12-39.85-5.77-45.34-15.07-14.62-45.89,3.56-50.98-6.33-4.85-9.42,23.64-24.96,24.05-51.66.4-25.64-25.49-35.31-24.05-54.82,2.08-28.11,58.49-44.22,62.53-45.34,88.06-24.28,214.63,60.44,263.57,130.74,187.82,269.73-295.53,1039.18-353.03,1012.16-26.11-12.27,8.93-199.21,37.6-200.32,25.14-.98,66.84,140.18,53.67,232.64-33.55,235.5-586.41,117.34-831.87,432.2-17.47,22.41-49.38,63.34-74.44,125.61-52.95,131.58-23.16,228.8-21.78,434.11.39,57.9-1.35,142.99-12.36,247.13"/></g></svg>