<?xml version="1.0" encoding="iso-8859-1"?>
<!-- Generator: Adobe Illustrator 28.5.0, SVG Export Plug-In . SVG Version: 9.03 Build 54727)  -->
<svg version="1.1" xmlns="http://www.w3.org/2000/svg" xmlns:xlink="http://www.w3.org/1999/xlink" x="0px" y="0px"
	 viewBox="0 0 1920 3203" style="enable-background:new 0 0 1920 3203;" xml:space="preserve">
<g id="&#xB808;&#xC774;&#xC5B4;_2">
	<path style="fill:#FFFFFF;" d="M373,0c-17.982,52.898-47.628,162.085,5,218c29.695,31.55,77.987,38.067,265,14
		c243.044-31.278,388.561-71.509,409-31c17.188,34.066-65.139,103.316-40,152c6.415,12.424,24.156,31.886,41,46
		c14.502,12.151,18.191,11.834,20,11c12.392-5.715-9.063-60.766,0-65c9.039-4.223,54.95,39.06,52,91
		c-2.261,39.805-33.011,81.032-56,78c-16.32-2.153-32.038-27.048-26-39c14.437-28.578,145.185,32.813,169-4
		c17.27-26.696-27.728-95.712-39-113c-20.798-31.899-32.637-37.119-30-48c8.892-36.694,162.696-56.456,200,0
		c19.842,30.029-9.983,56.337,0,117c9.342,56.768,45.194,92.871,91,139c1.801,1.813,3.161,3.137,4.024,3.98
		c44.259,43.275,95.45,76.514,191.976,122.02c120.306,56.717,137.642,49.797,148,44c10.965-6.137,21.173-25.448,52-48
		c9.566-6.998,17.676-12,24-9c7.418,3.519,10.802,17.3,6,25c-5.14,8.242-16.068,3.755-24,12c-8.423,8.755-5.775,23.871-4,34
		c0.993,5.67,5.389,30.761,26,45c20.44,14.122,41.261,6.816,43,14c2.824,11.663-50.626,36.778-51,37c1.254,9.732-1.213,18.097-6,20
		c-5.192,2.063-12.306-3.795-18.661-9.027c-7.086-5.834-6.015-7.469-9.339-8.973c-10.389-4.701-20.996,11.199-41,16
		c-14.271,3.425-18.802-2.284-32-2c-31.636,0.68-66.966,34.801-75,71c-7.513,33.853,10.976,59.92,0,67
		c-8.064,5.202-19.283-8.07-47-12c-18.47-2.619-31.321,0.747-40,2c-66.304,9.575-124.118-70.172-165-49
		c-21.086,10.92-20.783,39.941-38,40c-16.554,0.057-21.011-26.758-43-30c-18.268-2.694-40.14,12.135-40,24
		c0.157,13.305,28.019,24.849,67,41c26.715,11.069,32.785,11.002,36,18c8.325,18.119-17.886,50.106-17.303,50.414
		c0.062,0.033,0.37-0.323,0.303-0.414c-0.647-0.887-29.569,31.794-60,31c-18.657-0.487-36.974-13.532-44-30
		c-0.967-2.266-8.17-19.768,0-31c7.257-9.977,21.191-7.506,22-12c1.703-9.455-60.862-15.492-69-44c-5.61-19.65,15.774-46.004,34-59
		c23.952-17.079,45.753-13.446,49-26c3.998-15.457-26.76-29.815-22-43c4.215-11.673,32.481-11.931,40-12
		c22.426-0.205,26.096,6.935,45,6c17.086-0.845,42.723-8.094,46-22c3.635-15.426-22.852-27.982-18-43
		c3.029-9.376,14.152-6.956,22-18c9.961-14.017-1.546-26.937,0-55c1.844-33.475,19.603-40.26,13-57
		c-8.199-20.785-39.203-19.515-41-36c-1.144-10.495,10.063-23.483,16-22c17.41,4.348,29.598,143.154-38,208
		c-46.141,44.263-90.131,16.341-124,57c-64.23,77.108,21.216,264.881,75,266c10.983,0.229,28.414-7.166,37,2
		c9.43,10.067-0.16,31.198,6,34c6.186,2.813,15.024-18.876,32-20c15.161-1.004,22.166,15.364,31,12c10.434-3.974,14.713-32.157,4-41
		c-11.653-9.618-34.569,8.992-43,0c-5.974-6.372-1.227-22.921,8-32c15.117-14.875,44.235-11.64,57,2c8.945,9.557,5.354,19.408,10,41
		c3.379,15.704,10.919,29.136,26,56c16.013,28.525,33.762,60.141,65,94c18.74,20.312,23.312,20.812,25,30
		c5.748,31.282-43.458,46.131-47,89c-2.751,33.296,24.398,55.027,14,67c-10.002,11.517-36.664-6.819-55,6
		c-15.222,10.642-20.082,35.535-14,53c5.049,14.5,14.5,14.869,25,28c24.284,30.368,20.592,86.994-2,124
		c-14.074,23.054-27.41,25.269-27,40c0.833,29.911,56.451,43.69,53,63c-2.497,13.972-31.943,8.593-47,31
		c-13.772,20.496,2.771,37.04-10,66c-10.418,23.625-34.285,41.773-46,37c-10.042-4.091-3.073-21.735-17-37
		c-17.357-19.025-49.2-14.658-54-14c-4.511,0.619-39.519,5.42-47,27c-7.093,20.462,16.796,38.032,8,52
		c-5.94,9.432-23.866,12.588-32,6c-12.952-10.489,4.071-41.506-6-48c-3.08-1.986-11.082-3.22-49,28
		c-25.863,21.295-35.03,32.482-45,41c-49.985,42.706-137.848,33.428-142,18c-2.975-11.056,35.795-29.902,33-35
		c-3.123-5.696-50.49,19.714-61,7c-6.092-7.369,5.604-21.005,0-27c-9.89-10.581-62.967,14.08-61,31c1.008,8.665,16.355,14.466,31,20
		c23.874,9.022,34.736,5.418,40,14c5.829,9.503,1.137,27.987-10,35c-17.878,11.257-41.138-14.111-57-3
		c-14.528,10.177-13.938,44.717-14,45c-10.633,4.24-22.979,11.419-28,24c-6.81,17.062,5.056,31.022-2,39
		c-5.816,6.576-22.29,1.807-55-8c-60.913-18.262-69.039-20.981-71-29c-2.542-10.396,8.754-15.487,28-50
		c12.988-23.291,19.392-35.097,15-43c-6-10.798-24.764-3.134-63-8c-47.163-6.002-55.018-22.296-77-14
		c-6.548,2.471-19.221,14.32-44.566,38.017c-12.57,11.753-14.364,14.118-24.434,22.983c-17.357,15.28-26.036,22.92-39,30
		c-14.279,7.798-35.354,19.309-54,12c-10.686-4.188-10.205-10.493-19-12c-20.695-3.545-42.585,28.068-46,33
		c-16.173,23.357-12.029,35.647-27,46c-15.906,10.999-36.035,7.812-36,10c0.047,2.99,37.459-2.549,47,14c0,0,3.045,5.282-5,43
		c2.335,3.477,14.841,21.357,37,24c2.845,0.339,24.393,2.628,34-10c6.169-8.109,0.796-13.67,6-26c4.852-11.495,11.759-11.962,29-28
		c20.005-18.609,16.834-23.68,28-29c18.983-9.044,40.835-0.43,47,2c27.673,10.909,27.468,29.07,44,31
		c25.151,2.936,55.274-35.635,63-73c2.805-13.566,8.706-42.107-6-55c-19.959-17.498-65.464,4.708-140,42
		c-24.074,12.045-56.47,29.28-101,57c0,0-53.986,28.292-92.352,60.634c-5.887,4.962-10.089,9.077-11.887,10.87
		c-14.063,14.018-24.405,28.811-29.761,38.496c-14.957,27.045-3.875,36.818-17.156,82.171c-9.142,31.22-14.055,37.042-18.844,40.829
		c-28.145,22.26-79.552-3.989-85,8c-3.041,6.691,13.363,14.003,14,31c0.76,20.278-21.804,30.797-18,38
		c4.249,8.045,38.286,6.073,50-12c8.299-12.804,0.573-26.253,8-32c10.398-8.046,32.629,19.416,43,14
		c17.997-9.398-34.567-96.602-2-144c22.36-32.542,72.195-27.904,73-47c0.859-20.364-55.706-28.206-63-64
		c-3.815-18.72,15.232-33.692,10-39c-6.898-6.999-32.543,22.796-57,16c-27.639-7.68-27.672-54.844-52-57
		c-9.109-0.808-8.325,5.874-33,13c-17.607,5.085-26.723,4.199-32,12c-5.383,7.958,0.675,13.946-4,20
		c-8.615,11.156-32.131-5.363-55,6c-11.072,5.501-7.434,10.304-24,24c-21.973,18.166-38.409,18.015-39,27
		c-0.611,9.293,16.903,10.47,25,28c7.668,16.601-2.804,26.879,4,37c12.276,18.261,65.551,13.337,73-6
		c6.425-16.679-24.572-35.437-17-51c5.127-10.538,25.392-14.381,39-8c17.846,8.368,20.518,32.575,22,46
		c2.393,21.675-3.331,30.388-6,51c-6.459,49.876,18.572,64.353,12,120c-1.676,14.194-4.286,36.29-16,40
		c-15.022,4.757-36.164-23.53-41-30c-58.673-78.503-27.416-283.084,92-369c27.627-19.876,26.959-9.651,69-37
		c91.917-59.796,117.51-123.254,178-123c18.98,0.08,13.442,6.315,41,10c92.395,12.356,154.483-57.753,229-51c29.795,2.7,44,8,44,8
		c25.564,9.538,34.053,22.462,49,19c15.6-3.613,23.435-21.649,24-23c8.093-19.34-5.032-31.187,2-48
		c5.357-12.808,16.251-13.744,33-25c23.528-15.812,47.366-44.432,52-73c5.893-36.329-23.043-49.307-14-75
		c12.136-34.481,77.149-47.744,87-34c4.617,6.442-4.198,16.983-24,75c-5.743,16.826-7.606,23.571-4,28
		c8.564,10.518,41.629,0.181,65-14c29.216-17.728,25.196-30.491,54-55c40.782-34.701,83.568-38.667,82-54
		c-0.403-3.941-7.602-10.294-22-23c-7.004-6.181-10.082-8.317-17-14c-20.269-16.651-30.403-24.977-32-32
		c-3.442-15.138,10.047-38.494,32-43c20.534-4.215,41.856,9.419,45,24c3.367,15.614-15.145,27.523-11,35
		c3.052,5.505,17.294,6.646,59-6c11.95-22.807,20.989-41.88,27-55c21.612-47.171,33.648-81.905,38-121
		c3.169-28.47-0.124-37.799-6-43c-15.667-13.867-47.71,3.372-53-6c-5.041-8.931,24.571-23.679,25-49
		c0.412-24.314-26.504-33.491-25-52c2.166-26.662,60.805-41.945,65-43c91.54-23.025,223.117,57.328,274,124
		c145.721,190.939-46.357,694.243-367,960C758.799,2651.515,83.219,2449.284,0,2423"/>
</g>
<g id="&#xB808;&#xC774;&#xC5B4;_1">
	<g id="ecGHUT_00000078044989008597971610000003676549717459997882_" style="opacity:0.5;">
		
			<image style="overflow:visible;" width="1000" height="583" id="ecGHUT" xlink:href="D18C99739E81CC72.jpg"  transform="matrix(4.6021 0 0 4.6021 -160 123)">
		</image>
	</g>
</g>
</svg>
