<?xml version="1.0" encoding="iso-8859-1"?>
<!-- Generator: Adobe Illustrator 28.5.0, SVG Export Plug-In . SVG Version: 9.03 Build 54727)  -->
<svg version="1.1" xmlns="http://www.w3.org/2000/svg" xmlns:xlink="http://www.w3.org/1999/xlink" x="0px" y="0px"
	 viewBox="0 0 1920 3203" style="enable-background:new 0 0 1920 3203;" xml:space="preserve">
<g id="_&#xB808;&#xC774;&#xC5B4;_3" style="display:none;">
	<path style="display:inline;" d="M373.5-50.5v137c0,2.39,0,6.67,0,12c-0.25,125.14,33.43,179,10,210
		c-27.91,36.94-132.17,36.74-164-17.5c-26.51-45.17,5.68-113.38,48-143c81.56-57.07,231.86,7.43,263,92c16.31,44.3-10.53,65.7,9,103
		c37.42,71.44,190.41,96.95,256,37c49.9-45.61,25.85-119.31,61-131c53.66-17.85,123,149.52,207,135c42.22-7.3,58.11-55.39,123-59
		c16.83-0.94,47.93,0.51,50,10c3.29,15.06-64,61.89-102,37c-25.93-17-31.56-63-21-70c7-4.61,25.39,5.11,25,11
		c-0.19,2.82-4.76,5.83-8,5c-10.29-2.64-15.87-46.28-2-55c17.47-11,68.32,31.83,64,41c-2.06,4.38-18.07,4-21-2
		c-6.41-13.09,40.87-70.91,77-57c32.49,12.5,36.72,75.6,25,82c-4.83,2.64-15.13-2.86-16-9c-2.33-16.34,59.5-54.84,85-34
		c22.41,18.32,7.59,75-2,76c-5.62,0.59-13.89-17.45-11-20c4.21-3.72,36,22.17,33,28s-37.12-17.8-81-10c-11.32,2-37.76,6.71-49,27
		c-18.9,34.12,21.48,82.93,28,88c0.12,0.09,1.08,0.84,2.4,1.9c5.43,4.35,9.66,8.25,12.6,11.1c0.63,0.61,2.33,2.27,4.49,4.51
		c0,0,4.52,4.68,8.45,9.35c15.38,18.23,8.06,62.14,8.06,62.14c-11.66,70-17.49,105-39,115c-27,12.56-68.22-2.28-72-19
		c-1.55-6.84,3.08-14.42,8-18c10.85-7.9,29.56-1.07,40,7c6.1,4.71,10.28,10.55,11,10c1-0.73-8.63-9.41-9-21
		c-0.38-12.1,9.4-24.4,21-29c3-1.19,10.9-4.32,18-1c7.75,3.63,8,11.89,12,12c6.16,0.17,5.62-19.77,19-32c11.11-10.16,30.73-14,43-7
		c11.44,6.51,14.39,21.2,20,20c3.89-0.83,3.1-8,9-11c5.5-2.79,12.87,0.06,17,3c8.72,6.2,11.26,18.69,10,28
		c-1.42,10.53-7.52,15.72-5,19c3.1,4,13-2.94,19,2c4.89,4,5.23,14.57,1,20c-2.71,3.49-7.38,5-7,6s4.07-0.69,6,1
		c2.49,2.17,1.4,9.3-2,13c-6.07,6.61-20.11,2.94-24,2c-36.29-8.76-74.68,2-112,1c-71.24-1.84-106.86-2.76-116,2
		c-39.84,20.76-63.09,73.57-70,109c-4.24,21.76-5.63,53.88-29.32,88.38c-2.91,4.441-6.145,8.659-9.68,12.62
		c-37.2,40.76-114.53,47.58-133,21c-8-11.52-5.68-30.38,3-42c6.71-9,19.75-17.06,31-14c16.08,4.37,22,29.78,24,29
		c2.24-0.88-14.12-30.19-4-56c1.52-3.89,5.53-14.11,15-18c15.83-6.5,38.4,8.21,46,25c3.55,7.84,3.8,16,4,16s-5.19-17.12-3-34
		c2.77-21.33,18.45-47.46,35-48c26-0.85,49.29,61.47,52,60c0.88-0.48-2.94-6.23-3-14c-0.12-14.86,13.52-31.88,29-35
		c22.09-4.45,46,19.82,49,42c4.32,31.47-33.47,57.33-52,70c-7.28,5-31.54,20.7-69,27c-47.57,8-96.13-2.59-96-9
		c0.18-8.94,95.39-24.43,192-4c58.65,12.4,102.54,21.69,130,61c41.53,59.45,15.77,145.06,5,151c-0.66,0.36-1.37,0.71-1.37,0.71
		c-10.51,5.18-21,3.62-23.63,3.29c-25.15-3.14-50.66,2.22-76,2c-69.79-0.61-90.85,12.07-101-2c-9.47-13.12-1.4-38.35,4-39
		c4.34-0.52,9.9,14.51,11,14c0.94-0.43-5.72-10.2-3-19c3.66-11.84,23.28-18.58,28-14c2.64,2.57,0.94,9,1,9s-1.73-9.6,3-15
		c4.53-5.17,14.48-5.82,20-2c2.36,1.63,4.44,4.44,4,5s-3.51-0.9-5-2c-6.7-5-8.88-23,1-33s28-8.15,35,0c4.32,5,5.28,13.35,4,14
		c-0.93,0.47-3.73-2.73-4-3.06c-0.773-0.903-1.443-1.889-2-2.94c-2.14-4.35,5.65-29.75,20-31c15.78-1.38,29.89,27.27,28,29
		c-0.92,0.84-6.79-3.58-10-7c-15.86-16.9-11.64-57.34,11-81c4-4.22,24.09-25.18,51-20c24.67,4.75,40.43,28.65,38,32
		c-1.79,2.46-16.71-1.65-22-11c-11.07-19.55,16.8-67.5,47-71c43.25-5,88.13,81.49,78,92c-3.74,3.88-17.38-0.13-21-8
		c-7.68-16.69,25.39-60.14,55-59c39,1.5,70.35,80.14,64,85c-2.82,2.16-16.9-7.35-17-17c-0.11-11,17.9-24,31-21
		c17.34,4,24.33,35.62,23,57c-1.91,30.69-22.15,59.13-29,57c-5.69-1.77-7.54-26.28,3-34c13.09-9.58,44.62,7.21,45,22
		c0.23,9.2-11.57,18.54-14,17c-3.85-2.44,5.82-38.48,24-43c24-6,58.6,44,52,53c-2.59,3.53-12.71,2.34-15-2
		c-4.18-7.91,15.64-30.12,25-27c7.66,2.55,5.56,21.12,14,23c3.81,0.85,5.65-2.61,11-4c12.94-3.35,30.91,9.44,30,16
		c-1.07,7.71-28.65,9.8-74,12c-155.74,7.56-233.61,11.33-287,9c-57.25-2.5-79.29-5.68-86,7c-17.25,32.61,89.67,127.21,105,138
		c4.09,2.88,7.94,6.08,12,9c11.12,8,16.1,10.64,19,17c1.369,3.154,2.051,6.562,2,10c0.67,33.1-22.55,88.85-17,133
		c0.75,6,3.24,21.35-1,23c-2.46,1-6.13-3.09-7-4c-14.67-15.43-76-28-126-41c-61.56-16-70.7-23.43-97-19
		c-25.1,4.22-46.89,16.07-46,20c0.59,2.58,10.87,1.18,33,6c4.3,0.94,16.18,3.52,16,5s-12.28,1.86-23,1c-14.51-1.16-18.46-4-25-1
		c-5.124,2.369-9.085,6.69-11,12c0,0-3.68,10.75,7,28l3,4.77c0.68,1,1.3,1.77,1.72,2.29c1.18,1.43,1.69,1.82,2.77,3.25
		c0.23,0.31,0.73,1,1.29,1.89c0.67,1.07,0.92,1.63,1.66,3c0,0.07,0.83,1.54,1.59,2.8c1.62,2.69,2.42,4,3,4c1.35-0.07,3.18-4.83,2-9
		c-1-3.71-4.17-5.87-6-7c-15.75-9.77-42.93-10.12-53-11c-1.375-0.086-2.744-0.253-4.1-0.5c0,0,0.32,0,0.32-0.06
		c0-0.27-13.22-1.44-13.22-1.44c-58.25-5.14-155-16.28-156-10c-0.19,1.15,2.86,2.83,12,6c66,22.88,166.24,25.32,178,24
		c0,0,7.42-0.83,11,2l1.69,1.35l3.31,2.65c1.92,1.52,3.44,2.66,4.15,3.19c2.15,1.61,3.48,2.54,3.85,2.81c3.73,2.77,6.63,11.14,5,19
		c-1.144,5.104-3.959,9.679-8,13c-11.22,9.34-29.12,6.55-30,3c-0.41-1.65,2.73-4.1,9-9c4.37-3.41,5.74-3.76,7-6
		c2.93-5.22,0.14-11.68,0-12c-3.29-7.34-13.4-12.51-22-9c-5.09,2.08-10,7.33-10,14c0,7.45,6,14.74,13,15c7.86,0.28,12.64-8.34,13-9
		c1.12-2.179,1.799-4.558,2-7c0.42-3.44,1.24-10.13-3-15s-11.56-5.7-17-4c-8.15,2.55-11.08,10.5-12,13c-3.29,9,0.07,16.89,1,19
		c3.82,8.64,11,12.49,14,14c9,4.59,17.41,3.63,23,3c6.89-0.78,14.15-1.6,20-7c3.76-3.47,6.17-8.31,11-18c3.14-6.31,3.18-7.45,5-9
		c5.77-4.91,15.39-1.94,23,0c29.08,7.41,46.28,4.19,63.07,10.45c6.62,2.529,12.963,5.729,18.93,9.55l0,0
		c3.64,2.42,25.9,15.84,51.63,10.76c0,0,27.39-5.41,31.37-2.76l0,0c0.241,0.153,0.495,0.284,0.76,0.39
		c0.88,0.33,7.24-1.39,7.24-1.39c1.87-0.51,3.76-0.88,4-1.93c0,0,0,0,0-0.07c0-0.4-0.27-1.34-5-3c-9-3.17-23-5-23-5
		c-4.39-0.58-6-0.73-6-1c0-0.82,15-1,17-1c7.49-0.08,11.28-0.09,13,1c2.07,1.32,4.39,3.84,10,7l0.72,0.4c4.4,2.38,12.9,7,17.28,2.6
		l0,0c5.76-5.76,13.07-9.5,16-14c3.08-4.72,2.24-11.66,0-16c-5.55-10.75-24.28-14.41-33-6c-4,3.85-6.81,11.12-4,18
		c2.521,6.057,8.439,10.003,15,10c10.7-0.22,15.42-12.49,16-14c2.58-6.72,2.91-17.11-3-22c-1.7-1.41-5.13-3.36-20-1
		c-16.13,2.56-17.27,5.69-31,8c-10,1.68-20.3,1.88-31-1c-2-0.55-11.22-3-11-5c0.26-2.34,13.48-3,36-4c17.77-0.8,25.53-0.68,26-3
		c0.09-0.45,0.25-2.62-12-8c-17.38-7.63-29.76-8.55-47-12c-17.86-3.57-13.16-4.31-35-9c-12.81-2.75-25-8.65-38-10
		c-2.78-0.29-8.89-0.8-10-4c-1.18-3.38,3.87-8,5-9c13.69-12.45,53.44,6.65,110,11c12.17,0.94,28.73,1.47,41-9
		c5.44-4.64,8.14-9.82,11-16c14.68-31.72,15.52-50.84,26-76c6-14.52,17.54-36.41,22-35c7.55,2.38-4.4,71.54-11,123
		c-0.1,0.81-2.21,17.49-1.29,23.54c0.3,1.844,0.374,3.718,0.22,5.58c-0.17,1.65-0.481,3.283-0.93,4.88c-0.64,2.8-2,8.82,0,11
		c2.44,2.63,9.73-0.47,11-1c33.21-13.8,166.06-19,215-19l0,0c100.93,0,81.22-1.75,95-1c12,0.65,17.93,1,18,2
		c0.29,4-82.59,13.61-141,19c-73,6.73-109.43,10.1-149,12c0,0-68.13,3.27-68,7c0,1.11,11.88-0.61,20,7c5.83,5.46,9.76,15.75,6,24
		c-4.17,9.15-15.68,11.1-21,12c-3.21,0.54-7.19,0.37-15,0c-14.59-0.69-20.75-2-21-1c-0.31,1.21,9.21,5.18,19,8
		c14.615,4.169,29.826,5.859,45,5c9.58-0.51,16-0.91,24-4c6.823-2.747,13.22-6.451,19-11c8.77-6.77,7.88-8.84,13-11
		c11.14-4.7,23.45,1.68,26,3c5.505,2.903,10.289,7.004,14,12c22,28.94,20,59.46,36,66c15.7,6.4,30.81-17.48,46-10
		c14.5,7.13,10.2,33.51,21,36s18.43-23,34-25c17.27-2.18,22,31.58,50,54c30.72,24.57,55.87,10.24,77,25
		c50.26,35.11,46,212.58-55,269c-75.44,42.14-189.43,8.13-195-28c-6-38.94,109.81-107,144-81c37.75,28.73,1.59,191.66-98,253
		c-61.58,37.94-101.25,8.58-295-7c-213.88-17.2-365.84,2.47-427,12c0,0-34.42-1-177,39c-2.25,0.63-12.94,3.72-13,8
		c0,2.9,4.84,3.62,10,9c5,5.18,3.61,7.81,9,18c6.29,11.9,9.63,11.11,11,18c1.61,8.06-2.6,10.87-2,19c0.84,11.36,8.6,21.84,12,21
		c2.73-0.68,2.92-8.74,3-14c0.55-34.44-16.6-74.29-21-73c-2.78,0.82-2.18,18.62,7,29c0.43,0.49,8.1,9,14,7c3-1,3.84-4.24,6-4
		c2.81,0.31,2.13,5.83,6,10c4.19,4.52,8.75,2.11,22,7c4.49,1.66,6.74,2.48,8,4c3.9,4.68,0.71,10.16,5,17c0.71,1.13,3.38,5.39,6,5
		c4.6-0.68,5.37-15.14,7-15c0.79,0.07,1.08,3.49,2,12c1.22,11.28,1.67,14.05,4,16c3,2.54,6.73,1.58,7,3c0.53,2.76-13.43,6.35-13,10
		c0.22,1.86,3.91,1.66,9,6c2,1.68,4,3.4,5,6c2.16,5.54-2.78,8.59-2,14c1.22,8.52,14.58,8.59,16,17c1,5.82-5,8.24-4,16
		c0.78,5.94,4.89,9,4,10c-1.21,1.31-9.75-3.31-17-10c-9.88-9.13-12.44-17.58-19-31c-8.32-17-20.18-41.25-30-40
		c-5.73,0.73-9.09,9.92-10,15c-2.69,15.07,9.85,29.95,22,36c9.74,4.86,21.12,5,21,6c-0.1,0.88-8.39-0.09-9,2
		c-0.91,3.11,16.47,8.41,16,15c-0.29,4.09-7.22,5.23-7,9c0.21,3.61,6.56,2.95,11,9c3.54,4.83,1.88,8.48,7,16c2.43,3.57,3.6,3.91,4,4
		c5.42,1.25,10.29-10.2,14-9c2.76,0.89,3,8.18,2,13c-0.17,0.85-2,9.59-6,10s-6.55-7.55-8-7c-2.25,0.85,0.77,21.21,7,22
		c3.73,0.47,7.81-6.17,8-6s-5.75,4.85-7,12c-0.612,3.031-0.262,6.177,1,9c3.17,6.52,10,5.56,11,10c0.89,4-4.43,6-8,15
		c-0.728,2.125-1.737,4.143-3,6c-1.89,2.69-3,3-3,4c0,3.87,15.22,6.68,15,8s-14.92-2.73-19,3c-2.24,3.14,0.64,6.51,1,14
		c0.43,9.08-3.24,16-7,23c-2.73,5.1-7.77,14.55-18,21c-13,8.21-20.83,3-28,11c-6.14,6.84-6.48,17.43-4,25
		c3.46,10.55,13.91,19.74,21,18c4.34-1.06,4.68-5.55,9-6c4.91-0.52,8.09,4.89,14,10c8.93,7.72,15.09,7,22,11c15.15,8.83,25,35,19,54
		c-0.89,2.82-10.27,16.25-29,43c-3,4.23-7.16,10.22-5,14c2,3.45,8.94,4.6,12,2s0.76-8.07,4-10c2-1.19,5.19-0.5,6,1
		c0.89,1.65-0.92,4.61-3,8c-1.49,2.43-2.33,3.2-2,4c0.72,1.75,6,1.12,7,1c8.45-1,12.25-5.41,14-4s-1.9,5.8,0,12c0.31,1,1.32,4.3,4,6
		c5.5,3.48,14.48-2,16-3c10.33-6.57,9.36-15.28,19-19c4.94-1.9,6,0.06,9-2c7.75-5.37-0.15-18.38,7-29c6.62-9.83,17.49-4.81,23-15
		c4.32-8,0.67-16.74,7-21c2.08-1.4,2.89-0.74,6-2c8.78-3.56,12.79-13.11,14-16c5.53-13.16-1.12-18.51,5-27c4-5.51,9.51-7.06,9-11
		c-0.17-1.31-0.86-1.78-6-7c-5.91-6-6.55-7-7-8c-1.86-4.27-0.2-8.83,1-12c3.28-8.64,12.82-22.06,27-24l0,0c0,0.08,15.15,0.49,29,7
		c4.69,2.2,9,4.24,9,7c0,4.61-12.24,8.3-13,7c-0.92-1.58,16.67-7.88,18-20c1-9.41-8.73-13.29-7-22c1.46-7.35,8.86-6.81,16-16
		c6-7.74,3.34-11.43,9-35c4.76-19.83,8.4-24.48,5-29c-4.33-5.75-15.25-4.91-27-4c-9.37,0.72-14,1.08-19,4
		c-13.15,7.74-11.56,22.85-21,25c-1.1,0.25-3.13,0.5-15-6c-18.56-10.17-20-14.31-31-18c-5.55-1.87-10.8-2.7-19-4
		c-13.41-2.13-14.15-0.79-18-3c-11.44-6.56-13.8-23.42-14-25s-0.23-2.49-0.29-3.94c-0.58-13.47,3.3-18.62,4.29-29.06
		c0.63-6.6,1.68-17.66-5-23c-4.48-3.58-11.91-4.16-16-1c-4.65,3.59-1.12,14.6,3,29c2.24,7.83,3.87,11.21,2,15
		c-2.6,5.28-10.48,8.3-14,6c-2.79-1.82-0.8-5.65-4-12c-1.914-3.593-4.656-6.678-8-9c-2.89-2.19-5.07-3-16-7s-10.8-4-11-4
		c-13.23,2.34,11,80.34-24,126c-21.32,27.85-48.58,22.68-53,45c-5.34,27,33.63,38.79,34,80c0.16,18.1-7.29,22.79-8,55
		c-0.33,14.78-0.83,37.59,7,40c7.56,2.32,23.17-14.28,20-23c-4.19-11.52-42.64-13.38-53,1c-3.07,4.27-8,15.92-8,16l-18-24
		c-7.9,0.35-16.53-0.57-20-6c-5.92-9.25,7.72-24.4,3-29c-4.11-4-18.93,3.11-28,12c-5.776,5.426-9.931,12.35-12,20
		c-3.22,12.7,2.77,16.44,0,25c-4.59,14.16-23,10.17-36,26c-4.5,5.49-4.39,8.55-11,41c-5.79,28.42-8.73,42.7-11,46
		c-13.19,19.2-29.78,8.37-59,31c-19.48,15.08-16.82,23.55-38,36c-10.59,6.22-18.13,8.15-28,18c-10.26,10.24-9.33,15.36-17,19
		c-14.14,6.71-25.18-6.95-36,0c-6.74,4.33-4.49,10.92-15,26c-3.316,4.618-6.994,8.965-11,13c-18.28,19.12-34.18,28.24-43,37
		c-29.3,29.07-16.88,90.08-19,90c-1.11,0-0.53-16.57-9-25c-0.725-0.689-1.394-1.434-2-2.23c-5.36-7.06-4.63-17.37-3-17.77
		c3.43-0.84,6.16,42.1,31,52c0.6,0.24,15.44,5.92,26-1c7.88-5.16,7.89-13.74,13-14c0,0,3.63-0.19,17,20
		c5.6,5.556,12.462,9.674,20,12c8.66,2.56,11.82,0.58,23,3c13.72,3,14.05,7,23,8c14.22,1.52,26.18-7.4,31-11
		c13.21-9.85,9.37-15.57,25-29c7.39-6.68,15.839-12.087,25-16c11.63-4.84,14.8-3,18-7c8.72-10.91-9.07-31.73-1-41
		c5.34-6.13,15,0.8,25-6c8.58-5.86,10.23-17,12-29c0,0,1.7-11.47-2-47c26.75,3.46,38.9-2.52,45-9c1.65-1.75,2.68-3.35,14-20
		c6.08-17,10.6-22.31,14-22c8,0.73,13.93,32.78,14,33c21.23,0.39,28.28-3.54,30-8c4.39-11.36-22-36-22-36l17-32
		c18.44-10.3,25.28-21.42,28-30c4.06-12.81-0.22-22.61,8-32c5.22-6,8.85-4.18,18-12c2.3-2,16.62-14.2,14-22s-20.8-8.52-28-8
		c-44.69,3.24-76.36,88.3-90,126c-39.22,108.39-13.24,124.05-48,184c-2.83,4.89-53.94,90.28-142,107c-32,6.08-78.4,4.86-84-11
		c-2.32-6.56,2.75-14.48,0-16c-3.53-1.95-16.46,8.62-18,22c-0.21,1.82-1.23,10.67,4,15c5.63,4.66,13.17-0.11,17,2
		c6.68,3.67,3,28.83-23,97"/>
</g>
<g id="&#xB808;&#xC774;&#xC5B4;_2">
	<path style="fill:#FFFFFF;" d="M560.742-78.728c0.671,20.629,1.108,52.418-0.91,91.199c-4.092,78.649-13.391,92.07-6.46,110.713
		c11.856,31.889,64.422,60.827,267.094,42.692c227.923-20.395,373.448-76.099,393.434-32.684
		c16.534,35.917-62.66,108.929-38.478,160.258c6.171,13.099,23.236,33.619,39.44,48.499c13.95,12.812,17.499,12.477,19.239,11.598
		c11.921-6.025-8.718-64.067,0-68.531c8.695-4.453,52.859,41.182,50.021,95.944c-2.175,41.968-31.755,85.435-53.869,82.238
		c-15.699-2.27-30.819-28.518-25.01-41.119c13.888-30.131,139.659,34.596,162.568-4.217
		c16.613-28.147-26.673-100.912-37.516-119.139c-20.007-33.632-31.395-39.136-28.858-50.608c8.554-38.687,156.504-59.523,192.388,0
		c19.087,31.661-9.604,59.398,0,123.356c8.987,59.852,43.474,97.917,87.537,146.552c1.732,1.912,3.041,3.307,3.871,4.197
		c42.574,45.626,91.818,80.671,184.67,128.649c115.728,59.798,132.404,52.502,142.367,46.39
		c10.548-6.47,20.367-26.831,50.021-50.608c9.202-7.378,17.003-12.652,23.087-9.489c7.135,3.71,10.391,18.24,5.772,26.358
		c-4.945,8.689-15.457,3.959-23.087,12.652c-8.102,9.231-5.555,25.168-3.848,35.847c0.956,5.978,5.184,32.432,25.01,47.445
		c19.662,14.889,39.69,7.186,41.363,14.761c2.716,12.296-48.699,38.776-49.059,39.01c1.206,10.26-1.167,19.08-5.772,21.086
		c-4.994,2.176-11.838-4.001-17.95-9.517c-6.816-6.151-5.786-7.875-8.984-9.46c-9.994-4.957-20.197,11.807-39.44,16.869
		c-13.728,3.611-18.086-2.408-30.782-2.109c-30.432,0.717-64.417,36.691-72.146,74.857c-7.227,35.692,10.558,63.175,0,70.64
		c-7.757,5.484-18.549-8.509-45.211-12.652c-17.767-2.761-30.129,0.787-38.478,2.109c-63.78,10.096-119.394-73.984-158.72-51.662
		c-20.283,11.513-19.992,42.111-36.554,42.173c-15.924,0.06-20.211-28.211-41.364-31.63c-17.573-2.84-38.613,12.795-38.478,25.304
		c0.151,14.028,26.953,26.199,64.45,43.228c25.698,11.67,31.537,11.6,34.63,18.978c8.008,19.103-17.205,52.828-16.645,53.154
		c0.06,0.035,0.356-0.34,0.292-0.437c-0.623-0.935-28.443,33.521-57.716,32.684c-17.947-0.513-35.567-14.267-42.325-31.63
		c-0.93-2.389-7.859-20.843,0-32.684c6.981-10.52,20.384-7.914,21.163-12.652c1.638-9.969-58.545-16.333-66.374-46.391
		c-5.396-20.718,15.174-48.503,32.706-62.205c23.04-18.008,44.012-14.176,47.135-27.413c3.846-16.296-25.742-31.435-21.163-45.336
		c4.054-12.307,31.245-12.58,38.478-12.652c21.573-0.216,25.103,7.312,43.287,6.326c16.436-0.891,41.097-8.533,44.249-23.195
		c3.497-16.264-21.982-29.502-17.315-45.336c2.914-9.885,13.613-7.333,21.163-18.978c9.582-14.779-1.487-28.401,0-57.988
		c1.774-35.294,18.857-42.448,12.505-60.097c-7.887-21.914-37.711-20.576-39.44-37.956c-1.1-11.065,9.68-24.758,15.391-23.195
		c16.747,4.584,28.471,150.932-36.554,219.301c-44.385,46.668-86.701,17.229-119.281,60.097
		c-61.786,81.297,20.409,279.272,72.146,280.451c10.565,0.241,27.333-7.555,35.592,2.109c9.072,10.614-0.154,32.893,5.772,35.847
		c5.95,2.966,14.453-19.901,30.782-21.087c14.584-1.059,21.322,16.199,29.82,12.652c10.037-4.189,14.153-33.905,3.848-43.228
		c-11.21-10.141-33.253,9.481-41.364,0c-5.747-6.718-1.18-24.166,7.696-33.739c14.542-15.684,42.551-12.272,54.831,2.109
		c8.604,10.077,5.15,20.463,9.619,43.227c3.25,16.558,10.504,30.719,25.01,59.042c15.404,30.074,32.477,63.409,62.526,99.107
		c18.026,21.415,22.425,21.943,24.048,31.63c5.529,32.982-41.804,48.637-45.211,93.835c-2.646,35.105,23.469,58.017,13.467,70.64
		c-9.621,12.143-35.268-7.189-52.907,6.326c-14.643,11.22-19.318,37.466-13.467,55.88c4.857,15.288,13.948,15.677,24.049,29.521
		c23.36,32.018,19.808,91.72-1.924,130.737c-13.539,24.307-26.367,26.642-25.972,42.173c0.801,31.536,54.303,46.064,50.983,66.423
		c-2.402,14.731-30.727,9.059-45.211,32.684c-13.248,21.609,2.665,39.053-9.62,69.586c-10.021,24.908-32.98,44.042-44.249,39.01
		c-9.66-4.314-2.957-22.916-16.353-39.01c-16.696-20.059-47.328-15.455-51.945-14.761c-4.339,0.652-38.015,5.714-45.211,28.467
		c-6.823,21.574,16.157,40.098,7.696,54.825c-5.714,9.945-22.957,13.272-30.782,6.326c-12.459-11.059,3.916-43.761-5.772-50.608
		c-2.962-2.094-10.661-3.395-47.135,29.521c-24.879,22.452-33.697,34.247-43.287,43.228
		c-48.082,45.026-132.602,35.244-136.596,18.978c-2.862-11.657,34.433-31.527,31.744-36.901c-3.004-6.005-48.568,20.785-58.678,7.38
		c-5.86-7.769,5.391-22.146,0-28.467c-9.514-11.156-60.571,14.845-58.678,32.684c0.969,9.136,15.733,15.252,29.82,21.087
		c22.966,9.513,33.414,5.712,38.478,14.761c5.607,10.019,1.094,29.508-9.619,36.902c-17.197,11.869-39.573-14.878-54.831-3.163
		c-13.975,10.73-13.408,47.146-13.467,47.445c-10.228,4.471-22.104,12.04-26.934,25.304c-6.551,17.989,4.863,32.708-1.924,41.119
		c-5.595,6.933-21.442,1.905-52.907-8.435c-58.595-19.254-66.412-22.121-68.298-30.575c-2.446-10.961,8.421-16.329,26.934-52.717
		c12.493-24.556,18.654-37.004,14.429-45.336c-5.772-11.384-23.821-3.304-60.602-8.435c-45.368-6.329-52.924-23.507-74.07-14.761
		c-6.299,2.605-18.489,15.098-42.87,40.083c-12.092,12.392-13.817,14.885-23.504,24.231c-16.697,16.11-25.045,24.165-37.516,31.63
		c-13.735,8.222-34.008,20.358-51.945,12.652c-10.279-4.416-9.816-11.063-18.277-12.652c-19.907-3.738-40.964,29.593-44.249,34.793
		c-15.558,24.626-11.571,37.583-25.972,48.499c-15.3,11.597-34.663,8.237-34.63,10.543c0.045,3.152,36.033-2.688,45.211,14.761
		c0,0,2.93,5.569-4.81,45.336c2.246,3.666,14.277,22.518,35.592,25.304c2.736,0.358,23.465,2.771,32.706-10.543
		c5.934-8.549,0.765-14.413,5.772-27.413c4.667-12.119,11.311-12.612,27.896-29.521c19.243-19.62,16.193-24.967,26.934-30.575
		c18.261-9.536,39.281-0.454,45.211,2.109c26.62,11.501,26.422,30.65,42.325,32.684c24.193,3.095,53.171-37.572,60.602-76.966
		c2.698-14.303,8.375-44.395-5.772-57.988c-19.199-18.449-62.972,4.964-134.672,44.282c-23.158,12.699-54.321,30.87-97.156,60.097
		c0,0-51.932,29.83-88.837,63.928c-5.663,5.232-9.705,9.571-11.435,11.461c-13.528,14.78-23.476,30.377-28.628,40.587
		c-14.388,28.514-3.728,38.819-16.503,86.635c-8.794,32.916-13.52,39.054-18.127,43.048c-27.074,23.47-76.524-4.206-81.765,8.435
		c-2.925,7.054,12.855,14.764,13.467,32.684c0.731,21.379-20.974,32.47-17.315,40.064c4.087,8.482,36.829,6.403,48.097-12.652
		c7.983-13.5,0.551-27.679,7.696-33.739c10.003-8.483,31.387,20.47,41.363,14.76c17.312-9.908-33.251-101.85-1.924-151.823
		c21.509-34.311,69.447-29.42,70.222-49.553c0.826-21.47-53.586-29.738-60.602-67.477c-3.67-19.737,14.652-35.522,9.619-41.119
		c-6.635-7.379-31.305,24.035-54.831,16.869c-26.587-8.098-26.619-57.823-50.021-60.097c-8.763-0.852-8.008,6.193-31.744,13.706
		c-16.937,5.361-25.706,4.427-30.782,12.652c-5.178,8.39,0.649,14.704-3.848,21.087c-8.287,11.762-30.908-5.654-52.907,6.326
		c-10.65,5.8-7.151,10.864-23.087,25.304c-21.136,19.153-36.947,18.994-37.516,28.467c-0.588,9.798,16.26,11.039,24.049,29.521
		c7.376,17.503-2.697,28.34,3.848,39.01c11.809,19.253,63.056,14.061,70.222-6.326c6.181-17.585-23.637-37.362-16.353-53.771
		c4.932-11.11,24.426-15.162,37.516-8.435c17.167,8.823,19.737,34.345,21.163,48.499c2.302,22.853-3.204,32.039-5.772,53.771
		c-6.213,52.586,17.865,67.85,11.543,126.52c-1.613,14.965-4.123,38.262-15.391,42.173c-14.451,5.016-34.788-24.808-39.44-31.63
		c-56.44-82.768-26.372-298.464,88.499-389.047c26.575-20.956,25.933-10.175,66.374-39.01
		c88.419-63.045,113.037-129.95,171.226-129.683c18.258,0.084,12.93,6.658,39.44,10.543
		c88.879,13.027,148.604-60.891,220.285-53.771c28.661,2.847,42.325,8.435,42.325,8.435c24.591,10.056,32.757,23.682,47.135,20.032
		c15.006-3.81,22.543-22.825,23.087-24.25c7.785-20.391-4.84-32.882,1.924-50.608c5.153-13.503,15.632-14.49,31.744-26.358
		c22.633-16.671,45.563-46.846,50.021-76.966c5.669-38.302-22.166-51.986-13.467-79.075c11.675-36.354,74.213-50.338,83.689-35.847
		c4.441,6.792-4.038,17.905-23.087,79.075c-5.524,17.74-7.317,24.851-3.848,29.521c8.238,11.09,40.045,0.191,62.526-14.761
		c28.104-18.691,24.237-32.147,51.945-57.988c39.23-36.587,80.387-40.768,78.879-56.934c-0.388-4.155-7.313-10.853-21.163-24.25
		c-6.738-6.517-9.699-8.769-16.353-14.761c-19.497-17.556-29.246-26.333-30.782-33.739c-3.311-15.96,9.665-40.585,30.782-45.336
		c19.752-4.444,40.263,9.931,43.287,25.304c3.239,16.463-14.569,29.018-10.581,36.902c2.935,5.804,16.636,7.007,56.755-6.326
		c11.496-24.046,20.19-44.156,25.972-57.988c20.789-49.734,32.367-86.354,36.554-127.574c3.049-30.016-0.119-39.853-5.772-45.336
		c-15.07-14.62-45.894,3.555-50.983-6.326c-4.849-9.416,23.635-24.965,24.048-51.662c0.397-25.635-25.495-35.31-24.048-54.825
		c2.084-28.111,58.491-44.224,62.526-45.336c88.056-24.276,214.626,60.443,263.572,130.737
		c187.816,269.733-295.525,1039.178-353.032,1012.156c-26.106-12.267,8.933-199.21,37.596-200.323
		c25.141-0.976,66.842,140.177,53.671,232.644c-33.545,235.5-586.411,117.339-831.874,432.202
		c-17.468,22.407-49.376,63.336-74.438,125.612c-52.952,131.58-23.165,228.796-21.78,434.106
		c0.391,57.899-1.352,142.986-12.357,247.13"/>
</g>
</svg>
