<?xml version="1.0" encoding="UTF-8"?>
<svg id="_레이어_2" data-name="레이어 2" xmlns="http://www.w3.org/2000/svg" viewBox="0 0 4602.06 2806">
  <defs>
    <style>
      .cls-1 {
        fill: #fff;
        stroke-width: 0px;
      }
    </style>
  </defs>
  <path class="cls-1" d="M533,0c-17.98,52.9-47.63,162.08,5,218,29.7,31.55,77.99,38.07,265,14,243.04-31.28,388.56-71.51,409-31,17.19,34.07-65.14,103.32-40,152,6.42,12.42,24.16,31.89,41,46,14.5,12.15,18.19,11.83,20,11,12.39-5.71-9.06-60.77,0-65,9.04-4.22,54.95,39.06,52,91-2.26,39.8-33.01,81.03-56,78-16.32-2.15-32.04-27.05-26-39,14.44-28.58,145.18,32.81,169-4,17.27-26.7-27.73-95.71-39-113-20.8-31.9-32.64-37.12-30-48,8.89-36.69,162.7-56.46,200,0,19.84,30.03-9.98,56.34,0,117,9.34,56.77,45.19,92.87,91,139,1.8,1.81,3.16,3.14,4.02,3.98,44.26,43.28,95.45,76.51,191.98,122.02,120.31,56.72,137.64,49.8,148,44,10.96-6.14,21.17-25.45,52-48,9.57-7,17.68-12,24-9,7.42,3.52,10.8,17.3,6,25-5.14,8.24-16.07,3.76-24,12-8.42,8.76-5.77,23.87-4,34,.99,5.67,5.39,30.76,26,45,20.44,14.12,41.26,6.82,43,14,2.82,11.66-50.63,36.78-51,37,1.25,9.73-1.21,18.1-6,20-5.19,2.06-12.31-3.79-18.66-9.03-7.09-5.83-6.02-7.47-9.34-8.97-10.39-4.7-21,11.2-41,16-14.27,3.43-18.8-2.28-32-2-31.64.68-66.97,34.8-75,71-7.51,33.85,10.98,59.92,0,67-8.06,5.2-19.28-8.07-47-12-18.47-2.62-31.32.75-40,2-66.3,9.58-124.12-70.17-165-49-21.09,10.92-20.78,39.94-38,40-16.55.06-21.01-26.76-43-30-18.27-2.69-40.14,12.14-40,24,.16,13.3,28.02,24.85,67,41,26.71,11.07,32.78,11,36,18,8.32,18.12-17.89,50.11-17.3,50.41.06.03.37-.32.3-.41-.65-.89-29.57,31.79-60,31-18.66-.49-36.97-13.53-44-30-.97-2.27-8.17-19.77,0-31,7.26-9.98,21.19-7.51,22-12,1.7-9.46-60.86-15.49-69-44-5.61-19.65,15.77-46,34-59,23.95-17.08,45.75-13.45,49-26,4-15.46-26.76-29.82-22-43,4.21-11.67,32.48-11.93,40-12,22.43-.2,26.1,6.93,45,6,17.09-.84,42.72-8.09,46-22,3.64-15.43-22.85-27.98-18-43,3.03-9.38,14.15-6.96,22-18,9.96-14.02-1.55-26.94,0-55,1.84-33.47,19.6-40.26,13-57-8.2-20.79-39.2-19.52-41-36-1.14-10.49,10.06-23.48,16-22,17.41,4.35,29.6,143.15-38,208-46.14,44.26-90.13,16.34-124,57-64.23,77.11,21.22,264.88,75,266,10.98.23,28.41-7.17,37,2,9.43,10.07-.16,31.2,6,34,6.19,2.81,15.02-18.88,32-20,15.16-1,22.17,15.36,31,12,10.43-3.97,14.71-32.16,4-41-11.65-9.62-34.57,8.99-43,0-5.97-6.37-1.23-22.92,8-32,15.12-14.88,44.23-11.64,57,2,8.94,9.56,5.35,19.41,10,41,3.38,15.7,10.92,29.14,26,56,16.01,28.52,33.76,60.14,65,94,18.74,20.31,23.31,20.81,25,30,5.75,31.28-43.46,46.13-47,89-2.75,33.3,24.4,55.03,14,67-10,11.52-36.66-6.82-55,6-15.22,10.64-20.08,35.54-14,53,5.05,14.5,14.5,14.87,25,28,24.28,30.37,20.59,86.99-2,124-14.07,23.05-27.41,25.27-27,40,.83,29.91,56.45,43.69,53,63-2.5,13.97-31.94,8.59-47,31-13.77,20.5,2.77,37.04-10,66-10.42,23.62-34.29,41.77-46,37-10.04-4.09-3.07-21.73-17-37-17.36-19.03-49.2-14.66-54-14-4.51.62-39.52,5.42-47,27-7.09,20.46,16.8,38.03,8,52-5.94,9.43-23.87,12.59-32,6-12.95-10.49,4.07-41.51-6-48-3.08-1.99-11.08-3.22-49,28-25.86,21.29-35.03,32.48-45,41-49.98,42.71-137.85,33.43-142,18-2.98-11.06,35.8-29.9,33-35-3.12-5.7-50.49,19.71-61,7-6.09-7.37,5.6-21,0-27-9.89-10.58-62.97,14.08-61,31,1.01,8.67,16.36,14.47,31,20,23.87,9.02,34.74,5.42,40,14,5.83,9.5,1.14,27.99-10,35-17.88,11.26-41.14-14.11-57-3-14.53,10.18-13.94,44.72-14,45-10.63,4.24-22.98,11.42-28,24-6.81,17.06,5.06,31.02-2,39-5.82,6.58-22.29,1.81-55-8-60.91-18.26-69.04-20.98-71-29-2.54-10.4,8.75-15.49,28-50,12.99-23.29,19.39-35.1,15-43-6-10.8-24.76-3.13-63-8-47.16-6-55.02-22.3-77-14-6.55,2.47-19.22,14.32-44.57,38.02-12.57,11.75-14.36,14.12-24.43,22.98-17.36,15.28-26.04,22.92-39,30-14.28,7.8-35.35,19.31-54,12-10.69-4.19-10.2-10.49-19-12-20.69-3.55-42.58,28.07-46,33-16.17,23.36-12.03,35.65-27,46-15.91,11-36.03,7.81-36,10,.05,2.99,37.46-2.55,47,14,0,0,3.05,5.28-5,43,2.34,3.48,14.84,21.36,37,24,2.84.34,24.39,2.63,34-10,6.17-8.11.8-13.67,6-26,4.85-11.49,11.76-11.96,29-28,20-18.61,16.83-23.68,28-29,18.98-9.04,40.84-.43,47,2,27.67,10.91,27.47,29.07,44,31,25.15,2.94,55.27-35.64,63-73,2.8-13.57,8.71-42.11-6-55-19.96-17.5-65.46,4.71-140,42-24.07,12.04-56.47,29.28-101,57,0,0-53.99,28.29-92.35,60.63-5.89,4.96-10.09,9.08-11.89,10.87-14.06,14.02-24.4,28.81-29.76,38.5-14.96,27.04-3.88,36.82-17.16,82.17-9.14,31.22-14.06,37.04-18.84,40.83-28.14,22.26-79.55-3.99-85,8-3.04,6.69,13.36,14,14,31,.76,20.28-21.8,30.8-18,38,4.25,8.05,38.29,6.07,50-12,8.3-12.8.57-26.25,8-32,10.4-8.05,32.63,19.42,43,14,18-9.4-34.57-96.6-2-144,22.36-32.54,72.19-27.9,73-47,.86-20.36-55.71-28.21-63-64-3.81-18.72,15.23-33.69,10-39-6.9-7-32.54,22.8-57,16-27.64-7.68-27.67-54.84-52-57-9.11-.81-8.32,5.87-33,13-17.61,5.08-26.72,4.2-32,12-5.38,7.96.68,13.95-4,20-8.61,11.16-32.13-5.36-55,6-11.07,5.5-7.43,10.3-24,24-21.97,18.17-38.41,18.01-39,27-.61,9.29,16.9,10.47,25,28,7.67,16.6-2.8,26.88,4,37,12.28,18.26,65.55,13.34,73-6,6.43-16.68-24.57-35.44-17-51,5.13-10.54,25.39-14.38,39-8,17.85,8.37,20.52,32.57,22,46,2.39,21.68-3.33,30.39-6,51-6.46,49.88,18.57,64.35,12,120-1.68,14.19-4.29,36.29-16,40-15.02,4.76-36.16-23.53-41-30-58.67-78.5-27.42-283.08,92-369,27.63-19.88,26.96-9.65,69-37,91.92-59.8,117.51-123.25,178-123,18.98.08,13.44,6.31,41,10,92.4,12.36,154.48-57.75,229-51,29.8,2.7,44,8,44,8,25.56,9.54,34.05,22.46,49,19,15.6-3.61,23.43-21.65,24-23,8.09-19.34-5.03-31.19,2-48,5.36-12.81,16.25-13.74,33-25,23.53-15.81,47.37-44.43,52-73,5.89-36.33-23.04-49.31-14-75,12.14-34.48,77.15-47.74,87-34,4.62,6.44-4.2,16.98-24,75-5.74,16.83-7.61,23.57-4,28,8.56,10.52,41.63.18,65-14,29.22-17.73,25.2-30.49,54-55,40.78-34.7,83.57-38.67,82-54-.4-3.94-7.6-10.29-22-23-7-6.18-10.08-8.32-17-14-20.27-16.65-30.4-24.98-32-32-3.44-15.14,10.05-38.49,32-43,20.53-4.21,41.86,9.42,45,24,3.37,15.61-15.15,27.52-11,35,3.05,5.5,17.29,6.65,59-6,11.95-22.81,20.99-41.88,27-55,21.61-47.17,33.65-81.9,38-121,3.17-28.47-.12-37.8-6-43-15.67-13.87-47.71,3.37-53-6-5.04-8.93,24.57-23.68,25-49,.41-24.31-26.5-33.49-25-52,2.17-26.66,60.81-41.94,65-43,91.54-23.03,223.12,57.33,274,124,145.72,190.94-46.36,694.24-367,960-477.2,395.52-1152.78,193.28-1236,167"/>
</svg>