<?xml version="1.0" encoding="iso-8859-1"?>
<!-- Generator: Adobe Illustrator 28.5.0, SVG Export Plug-In . SVG Version: 9.03 Build 54727)  -->
<svg version="1.1" xmlns="http://www.w3.org/2000/svg" xmlns:xlink="http://www.w3.org/1999/xlink" x="0px" y="0px"
	 viewBox="0 0 1920 3203" style="enable-background:new 0 0 1920 3203;" xml:space="preserve">
<g id="&#xB808;&#xC774;&#xC5B4;_3" style="display:none;">
	<line style="display:inline;fill:#FFFFFF;" x1="588.171" y1="-297.01" x2="541.238" y2="3922.733"/>
</g>
<g id="&#xB808;&#xC774;&#xC5B4;_2" style="display:none;">
	<g id="&#xB808;&#xC774;&#xC5B4;_2_00000073001345629473848410000011715789630465643441_" style="display:inline;">
		<path style="fill:#FFFFFF;" d="M584.696-103.583c0.671,20.629,1.108,52.418-0.91,91.199c-4.092,78.649-13.391,92.07-6.46,110.713
			c11.856,31.889,64.422,60.827,267.094,42.692c227.923-20.395,373.448-76.099,393.434-32.684
			c16.534,35.917-62.66,108.929-38.478,160.258c6.171,13.099,23.236,33.619,39.44,48.499c13.95,12.812,17.499,12.477,19.239,11.598
			c11.921-6.025-8.718-64.067,0-68.531c8.695-4.453,52.859,41.182,50.021,95.944c-2.175,41.968-31.755,85.435-53.869,82.238
			c-15.699-2.27-30.819-28.518-25.01-41.119c13.888-30.131,139.659,34.596,162.568-4.217
			c16.613-28.147-26.673-100.912-37.516-119.139c-20.007-33.632-31.395-39.136-28.858-50.608c8.554-38.687,156.504-59.523,192.388,0
			c19.087,31.661-9.604,59.398,0,123.356c8.987,59.852,43.474,97.917,87.537,146.552c1.732,1.912,3.041,3.307,3.871,4.197
			c42.574,45.626,91.818,80.671,184.67,128.649c115.728,59.798,132.404,52.502,142.367,46.39
			c10.548-6.47,20.367-26.831,50.021-50.608c9.202-7.378,17.003-12.652,23.087-9.489c7.135,3.71,10.391,18.24,5.772,26.358
			c-4.945,8.689-15.457,3.959-23.087,12.652c-8.102,9.231-5.555,25.168-3.848,35.847c0.956,5.978,5.184,32.432,25.01,47.445
			c19.662,14.889,39.69,7.186,41.363,14.761c2.716,12.296-48.699,38.776-49.059,39.01c1.206,10.26-1.167,19.08-5.772,21.086
			c-4.994,2.176-11.838-4.001-17.95-9.517c-6.816-6.151-5.786-7.875-8.984-9.46c-9.994-4.957-20.197,11.807-39.44,16.869
			c-13.728,3.611-18.086-2.408-30.782-2.109c-30.432,0.717-64.417,36.691-72.146,74.857c-7.227,35.692,10.558,63.175,0,70.64
			c-7.757,5.484-18.549-8.509-45.211-12.652c-17.767-2.761-30.129,0.787-38.478,2.109c-63.78,10.096-119.394-73.984-158.72-51.662
			c-20.283,11.513-19.992,42.111-36.554,42.173c-15.924,0.06-20.211-28.211-41.364-31.63c-17.573-2.84-38.613,12.795-38.478,25.304
			c0.151,14.028,26.953,26.199,64.45,43.228c25.698,11.67,31.537,11.6,34.63,18.978c8.008,19.103-17.205,52.828-16.645,53.154
			c0.06,0.035,0.356-0.34,0.292-0.437c-0.623-0.935-28.443,33.521-57.716,32.684c-17.947-0.513-35.567-14.267-42.325-31.63
			c-0.93-2.389-7.859-20.843,0-32.684c6.981-10.52,20.384-7.914,21.163-12.652c1.638-9.969-58.545-16.333-66.374-46.391
			c-5.396-20.718,15.174-48.503,32.706-62.205c23.04-18.008,44.012-14.176,47.135-27.413c3.846-16.296-25.742-31.435-21.163-45.336
			c4.054-12.307,31.245-12.58,38.478-12.652c21.573-0.216,25.103,7.312,43.287,6.326c16.436-0.891,41.097-8.533,44.249-23.195
			c3.497-16.264-21.982-29.502-17.315-45.336c2.914-9.885,13.613-7.333,21.163-18.978c9.582-14.779-1.487-28.401,0-57.988
			c1.774-35.294,18.857-42.448,12.505-60.097c-7.887-21.914-37.711-20.576-39.44-37.956c-1.1-11.065,9.68-24.758,15.391-23.195
			c16.747,4.584,28.471,150.932-36.554,219.301c-44.385,46.668-86.701,17.229-119.281,60.097
			c-61.786,81.297,20.409,279.272,72.146,280.451c10.565,0.241,27.333-7.555,35.592,2.109c9.072,10.614-0.154,32.893,5.772,35.847
			c5.95,2.966,14.453-19.901,30.782-21.087c14.584-1.059,21.322,16.199,29.82,12.652c10.037-4.189,14.153-33.905,3.848-43.228
			c-11.21-10.141-33.253,9.481-41.364,0c-5.747-6.718-1.18-24.166,7.696-33.739c14.542-15.684,42.551-12.272,54.831,2.109
			c8.604,10.077,5.15,20.463,9.619,43.227c3.25,16.558,10.504,30.719,25.01,59.042c15.404,30.074,32.477,63.409,62.526,99.107
			c18.026,21.415,22.425,21.943,24.048,31.63c5.529,32.982-41.804,48.637-45.211,93.835c-2.646,35.105,23.469,58.017,13.467,70.64
			c-9.621,12.143-35.268-7.189-52.907,6.326c-14.643,11.22-19.318,37.466-13.467,55.88c4.857,15.288,13.948,15.677,24.049,29.521
			c23.36,32.018,19.808,91.72-1.924,130.737c-13.539,24.307-26.367,26.642-25.972,42.173c0.801,31.536,54.303,46.064,50.983,66.423
			c-2.402,14.731-30.727,9.059-45.211,32.684c-13.248,21.609,2.665,39.053-9.62,69.586c-10.021,24.908-32.98,44.042-44.249,39.01
			c-9.66-4.314-2.957-22.916-16.353-39.01c-16.696-20.059-47.328-15.455-51.945-14.761c-4.339,0.652-38.015,5.714-45.211,28.467
			c-6.823,21.574,16.157,40.098,7.696,54.825c-5.714,9.945-22.957,13.272-30.782,6.326c-12.459-11.059,3.916-43.761-5.772-50.608
			c-2.962-2.094-10.661-3.395-47.135,29.521c-24.879,22.452-33.697,34.247-43.287,43.228
			c-48.082,45.026-132.602,35.244-136.596,18.978c-2.862-11.657,34.433-31.527,31.744-36.901
			c-3.004-6.005-48.568,20.785-58.678,7.38c-5.86-7.769,5.391-22.146,0-28.467c-9.514-11.156-60.571,14.845-58.678,32.684
			c0.969,9.136,15.733,15.252,29.82,21.087c22.966,9.513,33.414,5.712,38.478,14.761c5.607,10.019,1.094,29.508-9.619,36.902
			c-17.197,11.869-39.573-14.878-54.831-3.163c-13.975,10.73-13.408,47.146-13.467,47.445c-10.228,4.471-22.104,12.04-26.934,25.304
			c-6.551,17.989,4.863,32.708-1.924,41.119c-5.595,6.933-21.442,1.905-52.907-8.435c-58.595-19.254-66.412-22.121-68.298-30.575
			c-2.446-10.961,8.421-16.329,26.934-52.717c12.493-24.556,18.654-37.004,14.429-45.336c-5.772-11.384-23.821-3.304-60.602-8.435
			c-45.368-6.329-52.924-23.507-74.07-14.761c-6.299,2.605-18.489,15.098-42.87,40.083c-12.092,12.392-13.817,14.885-23.504,24.231
			c-16.697,16.11-25.045,24.165-37.516,31.63c-13.735,8.222-34.008,20.358-51.945,12.652c-10.279-4.416-9.816-11.063-18.277-12.652
			c-19.907-3.738-40.964,29.593-44.249,34.793c-15.558,24.626-11.571,37.583-25.972,48.499c-15.3,11.597-34.663,8.237-34.63,10.543
			c0.045,3.152,36.033-2.688,45.211,14.761c0,0,2.93,5.569-4.81,45.336c2.246,3.666,14.277,22.518,35.592,25.304
			c2.736,0.358,23.465,2.771,32.706-10.543c5.934-8.549,0.765-14.413,5.772-27.413c4.667-12.119,11.311-12.612,27.896-29.521
			c19.243-19.62,16.193-24.967,26.934-30.575c18.261-9.536,39.281-0.454,45.211,2.109c26.62,11.501,26.422,30.65,42.325,32.684
			c24.193,3.095,53.171-37.572,60.602-76.966c2.698-14.303,8.375-44.395-5.772-57.988c-19.199-18.449-62.972,4.964-134.672,44.282
			c-23.158,12.699-54.321,30.87-97.156,60.097c0,0-51.932,29.83-88.837,63.928c-5.663,5.232-9.705,9.571-11.435,11.461
			c-13.528,14.78-23.476,30.377-28.628,40.587c-14.388,28.514-3.728,38.819-16.503,86.635c-8.794,32.916-13.52,39.054-18.127,43.048
			c-27.074,23.47-76.524-4.206-81.765,8.435c-2.925,7.054,12.855,14.764,13.467,32.684c0.731,21.379-20.974,32.47-17.315,40.064
			c4.087,8.482,36.829,6.403,48.097-12.652c7.983-13.5,0.551-27.679,7.696-33.739c10.003-8.483,31.387,20.47,41.363,14.76
			c17.312-9.908-33.251-101.85-1.924-151.823c21.509-34.311,69.447-29.42,70.222-49.553c0.826-21.47-53.586-29.738-60.602-67.477
			c-3.67-19.737,14.652-35.522,9.619-41.119c-6.635-7.379-31.305,24.035-54.831,16.869c-26.587-8.098-26.619-57.823-50.021-60.097
			c-8.763-0.852-8.008,6.193-31.744,13.706c-16.937,5.361-25.706,4.427-30.782,12.652c-5.178,8.39,0.649,14.704-3.848,21.087
			c-8.287,11.762-30.908-5.654-52.907,6.326c-10.65,5.8-7.151,10.864-23.087,25.304c-21.136,19.153-36.947,18.994-37.516,28.467
			c-0.588,9.798,16.26,11.039,24.049,29.521c7.376,17.503-2.697,28.34,3.848,39.01c11.809,19.253,63.056,14.061,70.222-6.326
			c6.181-17.585-23.637-37.362-16.353-53.771c4.932-11.11,24.426-15.162,37.516-8.435c17.167,8.823,19.737,34.345,21.163,48.499
			c2.302,22.853-3.204,32.039-5.772,53.771c-6.213,52.586,17.865,67.85,11.543,126.52c-1.613,14.965-4.123,38.262-15.391,42.173
			c-14.451,5.016-34.788-24.808-39.44-31.63c-56.44-82.768-26.372-298.464,88.499-389.047c26.575-20.956,25.933-10.175,66.374-39.01
			c88.419-63.045,113.037-129.95,171.226-129.683c18.258,0.084,12.93,6.658,39.44,10.543
			c88.879,13.027,148.604-60.891,220.285-53.771c28.661,2.847,42.325,8.435,42.325,8.435c24.591,10.056,32.757,23.682,47.135,20.032
			c15.006-3.81,22.543-22.825,23.087-24.25c7.785-20.391-4.84-32.882,1.924-50.608c5.153-13.503,15.632-14.49,31.744-26.358
			c22.633-16.671,45.563-46.846,50.021-76.966c5.669-38.302-22.166-51.986-13.467-79.075c11.675-36.354,74.213-50.338,83.689-35.847
			c4.441,6.792-4.038,17.905-23.087,79.075c-5.524,17.74-7.317,24.851-3.848,29.521c8.238,11.09,40.045,0.191,62.526-14.761
			c28.104-18.691,24.237-32.147,51.945-57.988c39.23-36.587,80.387-40.768,78.879-56.934c-0.388-4.155-7.313-10.853-21.163-24.25
			c-6.738-6.517-9.699-8.769-16.353-14.761c-19.497-17.556-29.246-26.333-30.782-33.739c-3.311-15.96,9.665-40.585,30.782-45.336
			c19.752-4.444,40.263,9.931,43.287,25.304c3.239,16.463-14.569,29.018-10.581,36.902c2.935,5.804,16.636,7.007,56.755-6.326
			c11.496-24.046,20.19-44.156,25.972-57.988c20.789-49.734,32.367-86.354,36.554-127.574c3.049-30.016-0.119-39.853-5.772-45.336
			c-15.07-14.62-45.894,3.555-50.983-6.326c-4.849-9.416,23.635-24.965,24.048-51.662c0.397-25.635-25.495-35.31-24.048-54.825
			c2.084-28.111,58.491-44.224,62.526-45.336c88.056-24.276,214.626,60.443,263.572,130.737
			c187.816,269.733-295.525,1039.178-353.032,1012.156c-26.106-12.267,8.933-199.21,37.596-200.323
			c25.141-0.976,66.842,140.177,53.671,232.644c-33.545,235.5-586.411,117.339-831.874,432.202
			c-44.786,57.448-72.159,120.452-74.438,125.612c-16.405,37.142-57.164,139.471-49.811,437.517
			c1.479,59.954,5.292,143.532,15.674,243.719"/>
	</g>
</g>
<g id="&#xC77C;&#xBCF8;&#xC9C0;&#xB3C4;_&#xBE44;&#xD589;&#xAE30;" style="display:none;">
	<g id="_x30_ZsZpP_00000023238654529008212850000005801350176451901628_" style="display:inline;opacity:0.5;">
		
			<image style="overflow:visible;" width="1586" height="360" id="_x30_ZsZpP" xlink:href="C9D17EEFDFDAE1F0.jpg"  transform="matrix(0.9251 1.1841 -1.1841 0.9251 411.1743 -448.4679)">
		</image>
	</g>
</g>
<g id="&#xC77C;&#xBCF8;&#xC9C0;&#xB3C4;" style="display:none;">
	<g id="bhsKwO_00000096061159054146489950000004061656773384666026_" style="display:inline;opacity:0.2;">
		
			<image style="overflow:visible;" width="240" height="210" id="bhsKwO" xlink:href="C9D17EEFDFDAE1F7.jpg"  transform="matrix(6.3154 0 0 5.7497 115.2237 1766.545)">
		</image>
	</g>
</g>
<g id="&#xBA54;&#xC778;" style="display:none;">
	<path style="display:inline;fill:#FFFFFF;stroke:#000000;stroke-miterlimit:10;" d="M360.158-478.345
		c-14.361,53.577-9.176,93.072-0.402,120.637C391.473-258.066,494.82-236.632,495.542-154.1c0.047,5.389-0.15,44.626-26.409,67.91
		c-27.837,24.681-61.465,10.603-112.608,17.274c-50.797,6.626-125.496,34.586-143.94,80.819
		c-27.047,67.797,55.068,204.489,170.292,211.649C524.353,232.343,600.921,39.1,584.195,21.221
		c-18.569-19.85-262.434,156.49-243.808,194.237c6.688,13.555,46.692,8.164,69.804,2.023
		C522.435,187.661,562.98,53.37,599.295,65.211c8.916,2.907,4.398,12.691,21.18,41.839c29.588,51.392,54.675,94.966,100.781,129.575
		c30.298,22.743,38.356,18.108,68.787,44.792c34.891,30.594,46.341,63.234,51.19,78.385c7.143,22.319,8.439,42.755,6.435,43.265
		c-2.711,0.691-8.865-23.045-30.332-63.554c-5.475-10.331-8.212-15.496-10.111-18.055c-18.109-24.408-42.565-24.686-81.609-39.721
		c-49.787-19.173-62.011-38.437-74.387-31.055c-12.195,7.275-13.661,37.772-1.444,57.776c9.465,15.498,20.39,13.643,66.672,44.944
		c16.569,11.206,23.759,17.245,29.508,27.111c3.66,6.28,8.395,16.948,9.315,40.649c1.037,26.704-4.279,31.077-6.775,60.973
		c-2.549,30.534,1.426,44.787-5.081,75.369c-1.314,6.175-4.009,17.497-13.549,26.252c-3.227,2.961-11.667,10.706-22.865,9.315
		c-13.12-1.63-19.984-15.42-22.018-19.477c-6.034-12.041-5.055-23.687-4.234-32.18c4.591-47.484,6.384-71.273,8.468-71.135
		c1.816,0.12,1.251,22.549,0.122,67.406c-0.518,20.568-1.189,33.951-11.131,42.684c-0.075,0.066-0.136,0.119-0.155,0.135
		c-10.128,8.743-28.741,10.653-38.075,1.939c-5.473-5.109-6.3-12.512-7.5-23.245c-0.976-8.735-0.284-15.448,0-16.937
		c7.561-39.572,6.229-68.719,7.622-68.594c2.817,0.253,7.977,87.223-16.09,94.847c-7.966,2.523-19.682-3.476-26.081-10.766
		c-5.516-6.284-7.183-13.643-8.082-21.562c-4.027-35.486,10.289-57.01,3.676-61.672c-5.399-3.807-20.489,6.681-28.967,17.823
		c-1.02,1.34-20.127,27.147-8.009,45.387c5.219,7.856,16.926,15.355,25.363,12.014c14.131-5.596,1.781-34.75,15.578-82.172
		c1.4-4.812,3.532-11.403,0.27-16.763c-5.884-9.668-24.862-8.009-41.878-6.522c-20.251,1.77-30.376,2.655-35.185,9.909
		c-8.7,13.125,1.54,38.92,16.937,44.036c2.924,0.971,6.085,1.214,26.925-5.888c34.174-11.647,38.433-16.65,40.715-20.691
		c0.785-1.39,7.556-13.723,2.649-21.691c-12.178-19.773-78.856,18.935-100.775-6.775c-10.618-12.455-10.279-35.371,0-47.424
		c8.295-9.727,20.999-9.861,46.407-10.129c28.485-0.301,46.735-0.494,57.793,12.905c7.65,9.27,12.118,24.564,6.172,35.349
		c-1.492,2.706-6.706,10.698-38.945,15.07c-36.04,4.887-57.18,7.656-71.428-5.772c-3.067-2.891-7.105-21.532-15.055-58.696
		c-2.772-12.957-5.065-24.482,1.425-33.646c0.825-1.166,3.943-5.328,12.783-9.281c10.326-4.616,20.428-5.354,58.085-0.325
		c24.692,3.298,29.43,4.828,33.168,9.552c6.008,7.593,7.385,20.847,1.746,29.681c-3.581,5.609-9.245,8.268-81.145,8.084
		c-9.179-0.023-16.511-0.148-22.019-5.319c-1.813-1.702-8.028-8.271-4.213-40.303c3.406-28.598,5.109-42.898,16.072-49.641
		c6.456-3.971,16.406-2.687,36.307-0.119c22.484,2.902,33.838,4.527,39.284,13.095c4.707,7.405,5.068,18.678,0,26.189
		c-6.382,9.458-20.346,9.635-48.014,9.603c-21.724-0.025-32.72-0.177-39.284-6.984c-8.831-9.157-9.723-25.484-4.365-36.665
		c9.331-19.471,40.195-28.717,60.954-25.443c87.255,13.761,156.183,274.825,202.493,309.561
		c35.205,26.406,46.05,22.902,65.134,30.806c14.556,6.028,20.963,12.473,29.93,18.365c12.926,8.493,41.001,19.58,56.615,19.367
		c42.92-0.586,74.126-77.91,91.046-119.834c23.608-58.497,34.429-117.577,29.089-119.263c-6.539-2.064-19.71,87.49-90.174,186.167
		c-20.481,28.681-29.98,35.975-29.96,52.931c0.05,43.538,62.759,64.752,175,133.696c101.369,62.266,147.616,98.156,188.295,131.643
		c101.248,83.349,116.46,122.285,193.167,123.876c210.754,4.37,352.334-240.54,375.242-282.158
		c13.981-25.401,142.77-265.348,40.724-372.333c-44.066-46.198-120.912-56.844-177.44-40.724
		c-89.073,25.4-130.827,118.15-148.351,157.078c-27.058,60.105-29.682,111.366-37.815,110.536
		c-9.598-0.98-2.007-71.961-26.18-174.531c-12.304-52.208-18.843-78.723-37.815-98.901c-51.84-55.135-164.878-57.529-232.708-5.818
		c-59.026,44.999-68.973,119.653-72.721,151.26c-29.636,249.939,222.71,478.699,285.067,535.228
		c196.918,178.512,394.981,243.587,381.966,279.554c-12.757,35.254-194.113-46.116-355.437,32.582
		c-108.244,52.805-166.31,163.593-199.479,260.967c0,0,0,0,0,0c-0.106,0.109-188.922,194.262-289.184,166.028
		c-5.678-1.599-30.331-8.541-32.848-22.994c-2.255-12.951,15.111-21.325,12.044-32.848c-3.86-14.504-33.87-10.603-38.323-25.183
		c-3.575-11.704,11.258-28.969,25.183-37.228c14.135-8.383,22.386-4.554,27.373-12.044c9.447-14.189-12.29-39.752-6.57-44.892
		c7.526-6.763,48.208,34.732,60.221,26.278c10.958-7.711-15.186-47.66,3.285-72.265c8.546-11.384,17.297-7.035,22.993-17.519
		c11.443-21.061-20.891-44.096-14.234-78.835c1.967-10.263,8.948-29.953,21.899-32.848c22.072-4.934,34.426,44.957,89.784,83.215
		c15.059,10.407,58.415,40.37,93.069,26.278c26.748-10.876,38.254-43.908,42.702-41.607c4.859,2.513-18.774,36.802-6.57,62.411
		c12.188,25.573,51.503,24.424,51.462,33.943c-0.077,17.907-139.18,12.75-158.765,66.791c-8.955,24.71,10.41,52.604,1.095,58.031
		c-9.059,5.279-22.268-24.081-54.746-33.943c-40.583-12.322-61.815,20.811-107.303,7.665c-24.059-6.953-37.497-21.823-41.607-17.519
		c-4.146,4.341,5.049,24.154,20.804,36.133c19.629,14.925,37.194,8.378,40.512,16.424c7.624,18.487-84.343,54.889-82.12,102.923
		c0.689,14.886,9.814,17.708,18.631,35.398c34.87,69.964-36.016,169.964-46.577,184.443
		c-27.491,37.692-85.325,97.925-121.099,83.838c-11.991-4.722-24.327-18.905-22.357-29.809c2.587-14.318,28.713-16.738,27.946-24.22
		c-0.766-7.472-28.04-16.938-44.713-5.589c-10.475,7.13-12.967,19.889-14.904,29.809c-5.249,26.876,6.835,33.171,1.863,50.303
		c-7.951,27.398-45.075,32.722-42.85,48.439c1.399,9.888,16.499,10.648,16.768,18.631c0.53,15.77-57.569,37.666-70.796,22.357
		c-8.228-9.523,4.583-29.19-1.863-33.535c-6.522-4.396-22.622,13.722-42.85,27.946c-41.896,29.46-103.675,43.747-124.825,22.357
		c-11.576-11.707-6.632-29.702-14.904-31.672c-9.743-2.32-17.829,22.351-37.261,44.714c-41.043,47.232-89.421,34.36-102.468,70.796
		c-6.959,19.435-0.839,44.442,11.178,50.303c12.807,6.246,29.996-10.385,37.261-3.726c7.37,6.755-7.969,26.023,0,37.261
		c9.377,13.224,40.585,0.598,44.713,9.315c4.06,8.572-26.579,19.81-37.261,48.44c-12.767,34.218,16.426,57.228,1.863,81.975
		c-10.872,18.476-39.065,25.907-61.481,20.494c-29.597-7.148-51.682-37.309-46.577-55.892c4.321-15.73,26.9-18.709,26.083-31.672
		c-0.685-10.862-16.873-14.087-16.768-26.083c0.087-9.958,11.289-13.04,9.315-20.494c-1.374-5.191-7.339-5.706-24.457-14.549
		c-0.322-0.166-0.91-0.471-1.626-0.355c-4.608,0.744-10.02,14.104-5.589,22.357c2.921,5.441,8.104,4.811,9.392,9.7
		c1.496,5.68-3.704,13.348-7.625,13.17c-4.204-0.191-4.088-9.272-9.704-11.09c-7.695-2.491-14.911,12.291-21.487,10.397
		c-7.252-2.088-1.602-20.963-13.17-37.43c-9.163-13.044-19.873-11.398-20.794-18.022c-2.779-19.979,93.059-46.57,102.585-49.213
		c48.947-13.581,64.135-10.188,70.7-8.318c19.32,5.504,29.301,16.434,41.749,12.374c0.592-0.193,1.496-0.558,2.557-1.082
		c15.797-7.803,15.214-29.689,20.788-40.938c14.36-28.979,87.701-23.918,135.397-9.338c21.356,6.528,54.769,16.742,56.026,35.016
		c1.003,14.568-18.682,30.601-37.351,35.017c-20.719,4.901-26.535-7.736-44.354-4.669c-34.983,6.021-38.34,59.163-67.698,60.695
		c-15.968,0.833-33.348-13.929-32.682-23.344c0.446-6.305,8.91-9.14,7.858-13.493c-1.757-7.268-26.698-4.942-27.474-9.653
		c-0.698-4.234,19.576-5.319,34.9-20.049c16.702-16.054,17.275-38.466,23.761-37.87c4.811,0.442,3.911,12.716,11.881,17.078
		c4.634,2.537,14.209,3.461,36.385-13.366c35.487-26.927,33.008-46.02,54.948-59.403c33.702-20.559,86.432-4.107,89.342,11.405
		c2.095,11.164-22.615,16.514-24.712,36.117c-2.089,19.53,19.285,43.688,41.82,47.522c33.865,5.762,73.156-33.895,81.739-72.234
		c6.643-29.673-6.125-54.015,5.703-60.829c7.713-4.443,22.085,0.755,26.613,9.504c5.164,9.979-5.626,18.5-1.901,26.613
		c6.777,14.759,57.179,18.556,91.243-5.703c24.454-17.415,30.737-42.344,41.82-39.919c12.151,2.658,13.811,34.638,19.009,34.216
		c6.208-0.504-0.028-45.807,19.009-55.126c11.996-5.873,29.188,4.914,30.414,5.703c14.274,9.186,12.683,20.658,20.91,22.811
		c15.217,3.981,46.592-28.489,49.424-64.631c1.815-23.175-9.714-27.336-7.604-53.225c2.276-27.928,16.239-29.785,19.009-53.225
		c4.961-41.984-35.878-69.473-24.712-85.54c9.15-13.166,40.167,0.117,47.523-13.306c6.264-11.431-14.339-24.515-11.405-45.622
		c3.013-21.681,27.157-25.173,32.315-41.82c9.28-29.948-50.592-77.619-76.036-91.243
		c-117.721-63.037-424.641,127.43-571.125,368.145c-231.798,380.911-168.688,818.132-130.965,974.467"/>
</g>
<g id="&#xC190;" style="display:none;">
	<path style="display:inline;fill:#FFFFFF;" d="M311.166-482.657c0.022,57.751,13.793,98.649,26.482,125.439
		c42.325,89.359,119.669,121.108,149.734,244.146c0.025,0.101,0.041,0.169,0.121,0.498
		C517.084,8.596,666.908,142.36,718.277,138.243c69.037-5.533,115.735-261.133,92.248-270.106
		c-25.392-9.701-167.274,255.696-133.985,281.458c11.953,9.251,45.546-13.131,63.627-28.781
		C827.978,44.807,805.55-93.667,843.38-98.943c9.289-1.295,9.516,9.479,37.377,28.32c49.122,33.22,90.772,61.386,147.383,72.282
		c37.201,7.16,42.413-0.539,81.461,10.104c44.771,12.203,69.371,36.52,80.371,48.012c16.204,16.928,26.328,34.728,24.75,36.066
		c-2.134,1.809-18.07-16.827-55.123-43.825c-9.449-6.885-14.174-10.328-17.002-11.795c-26.976-13.999-49.079-3.528-90.762,0.074
		c-53.153,4.593-72.585-7.363-80.472,4.697c-7.772,11.885,4.279,39.938,24.029,52.562c15.301,9.78,24.307,3.323,79.626,11.169
		c19.805,2.809,28.915,5.084,38.407,11.432c6.042,4.04,14.975,11.552,26.192,32.451c12.638,23.547,9.777,29.808,20.64,57.772
		c11.094,28.561,20.915,39.629,28.473,69.969c1.526,6.125,4.067,17.483-0.67,29.535c-1.602,4.076-5.792,14.737-16.467,18.396
		c-12.506,4.286-24.722-5.098-28.328-7.854c-10.702-8.177-14.927-19.074-17.912-27.067c-16.69-44.691-25.506-66.859-23.572-67.648
		c1.685-0.688,11.009,19.718,29.658,60.531c8.551,18.713,13.814,31.036,8.707,43.243c-0.038,0.092-0.07,0.167-0.08,0.189
		c-5.27,12.298-21.162,22.174-33.372,18.434c-7.159-2.193-11.148-8.484-16.931-17.605c-4.707-7.423-7.028-13.76-7.425-15.223
		c-10.551-38.881-24.526-64.495-23.22-64.993c2.643-1.008,45.406,74.899,27.116,92.301c-6.053,5.76-19.214,5.504-28.161,1.757
		c-7.713-3.23-12.437-9.113-16.716-15.837c-19.176-30.129-15.744-55.75-23.731-57.042c-6.521-1.055-15.486,14.986-18.222,28.718
		c-0.329,1.652-6.189,33.222,12.697,44.304c8.135,4.773,21.945,6.381,28.063-0.32c10.247-11.224-13.633-32.013-22.021-80.685
		c-0.851-4.939-1.824-11.798-7.106-15.185c-9.527-6.11-25.857,3.7-40.499,12.497c-17.426,10.468-26.138,15.703-27.28,24.33
		c-2.066,15.611,18.446,34.306,34.527,32.155c3.054-0.408,6.001-1.576,21.618-17.095c25.609-25.449,27.244-31.812,27.524-36.445
		c0.096-1.594,0.776-15.646-7.128-20.656c-19.614-12.433-62.575,51.586-93.546,38.088c-15.004-6.54-24.744-27.285-20.789-42.624
		c3.192-12.379,14.551-18.068,37.27-29.448c25.47-12.758,41.789-20.931,57.602-13.736c10.94,4.978,21.66,16.766,21.044,29.066
		c-0.155,3.085-1.337,12.555-28.397,30.617c-30.25,20.192-48.037,31.947-66.729,26.124c-4.024-1.254-15.825-16.238-39.262-46.156
		c-8.171-10.43-15.285-19.784-13.469-30.865c0.231-1.409,1.208-6.518,7.421-13.945c7.257-8.675,16.014-13.768,52.064-25.755
		c23.639-7.86,28.568-8.562,33.999-5.955c8.728,4.191,15.777,15.5,14.581,25.912c-0.759,6.611-4.685,11.484-69.389,42.837
		c-8.261,4.003-14.905,7.105-22.122,4.871c-2.375-0.735-10.841-3.915-21.454-34.377c-9.475-27.197-14.213-40.796-7.316-51.662
		c4.062-6.399,13.568-9.607,32.581-16.023c21.481-7.249,32.398-10.765,41.049-5.452c7.477,4.592,12.743,14.566,11.481,23.539
		c-1.59,11.299-14.063,17.579-38.945,29.679c-19.537,9.5-29.486,14.184-38.37,10.944c-11.951-4.359-19.91-18.643-19.996-31.041
		c-0.149-21.591,23.539-43.431,43.632-49.589c84.457-25.882,260.852,178.545,317.702,189.465
		c43.218,8.301,51.429,0.398,72.046-0.864c15.725-0.963,24.31,2.021,34.952,3.385c15.341,1.967,45.434-0.375,59.375-7.411
		c38.32-19.342,32.471-102.52,29.3-147.618c-4.425-62.926-20.597-120.771-26.137-119.945c-6.782,1.011,20.638,87.276,0.562,206.855
		c-5.835,34.756-11.175,45.476-3.725,60.708c19.131,39.11,84.793,30.687,215.897,43.45c81.044,7.89,133.462,15.994,174.903,24.256
		c21.756,4.337,44.654-1.307,52.043,11.521c12.34,21.422-20.533,76.695-54.903,76.875c-21.583,0.113-43.958-21.497-48.488-39.397
		c-9.659-38.164,49.672-107.38,324.266-242.442"/>
</g>
<g id="&#xC6D0;&#xBCF8;" style="display:none;">
	<path style="display:inline;" d="M373.5-50.5v137c0,2.39,0,6.67,0,12c-0.25,125.14,33.43,179,10,210
		c-27.91,36.94-132.17,36.74-164-17.5c-26.51-45.17,5.68-113.38,48-143c81.56-57.07,231.86,7.43,263,92c16.31,44.3-10.53,65.7,9,103
		c37.42,71.44,190.41,96.95,256,37c49.9-45.61,25.85-119.31,61-131c53.66-17.85,123,149.52,207,135c42.22-7.3,58.11-55.39,123-59
		c16.83-0.94,47.93,0.51,50,10c3.29,15.06-64,61.89-102,37c-25.93-17-31.56-63-21-70c7-4.61,25.39,5.11,25,11
		c-0.19,2.82-4.76,5.83-8,5c-10.29-2.64-15.87-46.28-2-55c17.47-11,68.32,31.83,64,41c-2.06,4.38-18.07,4-21-2
		c-6.41-13.09,40.87-70.91,77-57c32.49,12.5,36.72,75.6,25,82c-4.83,2.64-15.13-2.86-16-9c-2.33-16.34,59.5-54.84,85-34
		c22.41,18.32,7.59,75-2,76c-5.62,0.59-13.89-17.45-11-20c4.21-3.72,36,22.17,33,28s-37.12-17.8-81-10c-11.32,2-37.76,6.71-49,27
		c-18.9,34.12,21.48,82.93,28,88c0.12,0.09,1.08,0.84,2.4,1.9c5.43,4.35,9.66,8.25,12.6,11.1c0.63,0.61,2.33,2.27,4.49,4.51
		c0,0,4.52,4.68,8.45,9.35c15.38,18.23,8.06,62.14,8.06,62.14c-11.66,70-17.49,105-39,115c-27,12.56-68.22-2.28-72-19
		c-1.55-6.84,3.08-14.42,8-18c10.85-7.9,29.56-1.07,40,7c6.1,4.71,10.28,10.55,11,10c1-0.73-8.63-9.41-9-21
		c-0.38-12.1,9.4-24.4,21-29c3-1.19,10.9-4.32,18-1c7.75,3.63,8,11.89,12,12c6.16,0.17,5.62-19.77,19-32c11.11-10.16,30.73-14,43-7
		c11.44,6.51,14.39,21.2,20,20c3.89-0.83,3.1-8,9-11c5.5-2.79,12.87,0.06,17,3c8.72,6.2,11.26,18.69,10,28
		c-1.42,10.53-7.52,15.72-5,19c3.1,4,13-2.94,19,2c4.89,4,5.23,14.57,1,20c-2.71,3.49-7.38,5-7,6s4.07-0.69,6,1
		c2.49,2.17,1.4,9.3-2,13c-6.07,6.61-20.11,2.94-24,2c-36.29-8.76-74.68,2-112,1c-71.24-1.84-106.86-2.76-116,2
		c-39.84,20.76-63.09,73.57-70,109c-4.24,21.76-5.63,53.88-29.32,88.38c-2.91,4.441-6.145,8.659-9.68,12.62
		c-37.2,40.76-114.53,47.58-133,21c-8-11.52-5.68-30.38,3-42c6.71-9,19.75-17.06,31-14c16.08,4.37,22,29.78,24,29
		c2.24-0.88-14.12-30.19-4-56c1.52-3.89,5.53-14.11,15-18c15.83-6.5,38.4,8.21,46,25c3.55,7.84,3.8,16,4,16s-5.19-17.12-3-34
		c2.77-21.33,18.45-47.46,35-48c26-0.85,49.29,61.47,52,60c0.88-0.48-2.94-6.23-3-14c-0.12-14.86,13.52-31.88,29-35
		c22.09-4.45,46,19.82,49,42c4.32,31.47-33.47,57.33-52,70c-7.28,5-31.54,20.7-69,27c-47.57,8-96.13-2.59-96-9
		c0.18-8.94,95.39-24.43,192-4c58.65,12.4,102.54,21.69,130,61c41.53,59.45,15.77,145.06,5,151c-0.66,0.36-1.37,0.71-1.37,0.71
		c-10.51,5.18-21,3.62-23.63,3.29c-25.15-3.14-50.66,2.22-76,2c-69.79-0.61-90.85,12.07-101-2c-9.47-13.12-1.4-38.35,4-39
		c4.34-0.52,9.9,14.51,11,14c0.94-0.43-5.72-10.2-3-19c3.66-11.84,23.28-18.58,28-14c2.64,2.57,0.94,9,1,9s-1.73-9.6,3-15
		c4.53-5.17,14.48-5.82,20-2c2.36,1.63,4.44,4.44,4,5s-3.51-0.9-5-2c-6.7-5-8.88-23,1-33s28-8.15,35,0c4.32,5,5.28,13.35,4,14
		c-0.93,0.47-3.73-2.73-4-3.06c-0.773-0.903-1.443-1.889-2-2.94c-2.14-4.35,5.65-29.75,20-31c15.78-1.38,29.89,27.27,28,29
		c-0.92,0.84-6.79-3.58-10-7c-15.86-16.9-11.64-57.34,11-81c4-4.22,24.09-25.18,51-20c24.67,4.75,40.43,28.65,38,32
		c-1.79,2.46-16.71-1.65-22-11c-11.07-19.55,16.8-67.5,47-71c43.25-5,88.13,81.49,78,92c-3.74,3.88-17.38-0.13-21-8
		c-7.68-16.69,25.39-60.14,55-59c39,1.5,70.35,80.14,64,85c-2.82,2.16-16.9-7.35-17-17c-0.11-11,17.9-24,31-21
		c17.34,4,24.33,35.62,23,57c-1.91,30.69-22.15,59.13-29,57c-5.69-1.77-7.54-26.28,3-34c13.09-9.58,44.62,7.21,45,22
		c0.23,9.2-11.57,18.54-14,17c-3.85-2.44,5.82-38.48,24-43c24-6,58.6,44,52,53c-2.59,3.53-12.71,2.34-15-2
		c-4.18-7.91,15.64-30.12,25-27c7.66,2.55,5.56,21.12,14,23c3.81,0.85,5.65-2.61,11-4c12.94-3.35,30.91,9.44,30,16
		c-1.07,7.71-28.65,9.8-74,12c-155.74,7.56-233.61,11.33-287,9c-57.25-2.5-79.29-5.68-86,7c-17.25,32.61,89.67,127.21,105,138
		c4.09,2.88,7.94,6.08,12,9c11.12,8,16.1,10.64,19,17c1.369,3.154,2.051,6.562,2,10c0.67,33.1-22.55,88.85-17,133
		c0.75,6,3.24,21.35-1,23c-2.46,1-6.13-3.09-7-4c-14.67-15.43-76-28-126-41c-61.56-16-70.7-23.43-97-19
		c-25.1,4.22-46.89,16.07-46,20c0.59,2.58,10.87,1.18,33,6c4.3,0.94,16.18,3.52,16,5s-12.28,1.86-23,1c-14.51-1.16-18.46-4-25-1
		c-5.124,2.369-9.085,6.69-11,12c0,0-3.68,10.75,7,28l3,4.77c0.68,1,1.3,1.77,1.72,2.29c1.18,1.43,1.69,1.82,2.77,3.25
		c0.23,0.31,0.73,1,1.29,1.89c0.67,1.07,0.92,1.63,1.66,3c0,0.07,0.83,1.54,1.59,2.8c1.62,2.69,2.42,4,3,4c1.35-0.07,3.18-4.83,2-9
		c-1-3.71-4.17-5.87-6-7c-15.75-9.77-42.93-10.12-53-11c-1.375-0.086-2.744-0.253-4.1-0.5c0,0,0.32,0,0.32-0.06
		c0-0.27-13.22-1.44-13.22-1.44c-58.25-5.14-155-16.28-156-10c-0.19,1.15,2.86,2.83,12,6c66,22.88,166.24,25.32,178,24
		c0,0,7.42-0.83,11,2l1.69,1.35l3.31,2.65c1.92,1.52,3.44,2.66,4.15,3.19c2.15,1.61,3.48,2.54,3.85,2.81c3.73,2.77,6.63,11.14,5,19
		c-1.144,5.104-3.959,9.679-8,13c-11.22,9.34-29.12,6.55-30,3c-0.41-1.65,2.73-4.1,9-9c4.37-3.41,5.74-3.76,7-6
		c2.93-5.22,0.14-11.68,0-12c-3.29-7.34-13.4-12.51-22-9c-5.09,2.08-10,7.33-10,14c0,7.45,6,14.74,13,15c7.86,0.28,12.64-8.34,13-9
		c1.12-2.179,1.799-4.558,2-7c0.42-3.44,1.24-10.13-3-15s-11.56-5.7-17-4c-8.15,2.55-11.08,10.5-12,13c-3.29,9,0.07,16.89,1,19
		c3.82,8.64,11,12.49,14,14c9,4.59,17.41,3.63,23,3c6.89-0.78,14.15-1.6,20-7c3.76-3.47,6.17-8.31,11-18c3.14-6.31,3.18-7.45,5-9
		c5.77-4.91,15.39-1.94,23,0c29.08,7.41,46.28,4.19,63.07,10.45c6.62,2.529,12.963,5.729,18.93,9.55l0,0
		c3.64,2.42,25.9,15.84,51.63,10.76c0,0,27.39-5.41,31.37-2.76l0,0c0.241,0.153,0.495,0.284,0.76,0.39
		c0.88,0.33,7.24-1.39,7.24-1.39c1.87-0.51,3.76-0.88,4-1.93c0,0,0,0,0-0.07c0-0.4-0.27-1.34-5-3c-9-3.17-23-5-23-5
		c-4.39-0.58-6-0.73-6-1c0-0.82,15-1,17-1c7.49-0.08,11.28-0.09,13,1c2.07,1.32,4.39,3.84,10,7l0.72,0.4c4.4,2.38,12.9,7,17.28,2.6
		l0,0c5.76-5.76,13.07-9.5,16-14c3.08-4.72,2.24-11.66,0-16c-5.55-10.75-24.28-14.41-33-6c-4,3.85-6.81,11.12-4,18
		c2.521,6.057,8.439,10.003,15,10c10.7-0.22,15.42-12.49,16-14c2.58-6.72,2.91-17.11-3-22c-1.7-1.41-5.13-3.36-20-1
		c-16.13,2.56-17.27,5.69-31,8c-10,1.68-20.3,1.88-31-1c-2-0.55-11.22-3-11-5c0.26-2.34,13.48-3,36-4c17.77-0.8,25.53-0.68,26-3
		c0.09-0.45,0.25-2.62-12-8c-17.38-7.63-29.76-8.55-47-12c-17.86-3.57-13.16-4.31-35-9c-12.81-2.75-25-8.65-38-10
		c-2.78-0.29-8.89-0.8-10-4c-1.18-3.38,3.87-8,5-9c13.69-12.45,53.44,6.65,110,11c12.17,0.94,28.73,1.47,41-9
		c5.44-4.64,8.14-9.82,11-16c14.68-31.72,15.52-50.84,26-76c6-14.52,17.54-36.41,22-35c7.55,2.38-4.4,71.54-11,123
		c-0.1,0.81-2.21,17.49-1.29,23.54c0.3,1.844,0.374,3.718,0.22,5.58c-0.17,1.65-0.481,3.283-0.93,4.88c-0.64,2.8-2,8.82,0,11
		c2.44,2.63,9.73-0.47,11-1c33.21-13.8,166.06-19,215-19l0,0c100.93,0,81.22-1.75,95-1c12,0.65,17.93,1,18,2
		c0.29,4-82.59,13.61-141,19c-73,6.73-109.43,10.1-149,12c0,0-68.13,3.27-68,7c0,1.11,11.88-0.61,20,7c5.83,5.46,9.76,15.75,6,24
		c-4.17,9.15-15.68,11.1-21,12c-3.21,0.54-7.19,0.37-15,0c-14.59-0.69-20.75-2-21-1c-0.31,1.21,9.21,5.18,19,8
		c14.615,4.169,29.826,5.859,45,5c9.58-0.51,16-0.91,24-4c6.823-2.747,13.22-6.451,19-11c8.77-6.77,7.88-8.84,13-11
		c11.14-4.7,23.45,1.68,26,3c5.505,2.903,10.289,7.004,14,12c22,28.94,20,59.46,36,66c15.7,6.4,30.81-17.48,46-10
		c14.5,7.13,10.2,33.51,21,36s18.43-23,34-25c17.27-2.18,22,31.58,50,54c30.72,24.57,55.87,10.24,77,25
		c50.26,35.11,46,212.58-55,269c-75.44,42.14-189.43,8.13-195-28c-6-38.94,109.81-107,144-81c37.75,28.73,1.59,191.66-98,253
		c-61.58,37.94-101.25,8.58-295-7c-213.88-17.2-365.84,2.47-427,12c0,0-34.42-1-177,39c-2.25,0.63-12.94,3.72-13,8
		c0,2.9,4.84,3.62,10,9c5,5.18,3.61,7.81,9,18c6.29,11.9,9.63,11.11,11,18c1.61,8.06-2.6,10.87-2,19c0.84,11.36,8.6,21.84,12,21
		c2.73-0.68,2.92-8.74,3-14c0.55-34.44-16.6-74.29-21-73c-2.78,0.82-2.18,18.62,7,29c0.43,0.49,8.1,9,14,7c3-1,3.84-4.24,6-4
		c2.81,0.31,2.13,5.83,6,10c4.19,4.52,8.75,2.11,22,7c4.49,1.66,6.74,2.48,8,4c3.9,4.68,0.71,10.16,5,17c0.71,1.13,3.38,5.39,6,5
		c4.6-0.68,5.37-15.14,7-15c0.79,0.07,1.08,3.49,2,12c1.22,11.28,1.67,14.05,4,16c3,2.54,6.73,1.58,7,3c0.53,2.76-13.43,6.35-13,10
		c0.22,1.86,3.91,1.66,9,6c2,1.68,4,3.4,5,6c2.16,5.54-2.78,8.59-2,14c1.22,8.52,14.58,8.59,16,17c1,5.82-5,8.24-4,16
		c0.78,5.94,4.89,9,4,10c-1.21,1.31-9.75-3.31-17-10c-9.88-9.13-12.44-17.58-19-31c-8.32-17-20.18-41.25-30-40
		c-5.73,0.73-9.09,9.92-10,15c-2.69,15.07,9.85,29.95,22,36c9.74,4.86,21.12,5,21,6c-0.1,0.88-8.39-0.09-9,2
		c-0.91,3.11,16.47,8.41,16,15c-0.29,4.09-7.22,5.23-7,9c0.21,3.61,6.56,2.95,11,9c3.54,4.83,1.88,8.48,7,16c2.43,3.57,3.6,3.91,4,4
		c5.42,1.25,10.29-10.2,14-9c2.76,0.89,3,8.18,2,13c-0.17,0.85-2,9.59-6,10s-6.55-7.55-8-7c-2.25,0.85,0.77,21.21,7,22
		c3.73,0.47,7.81-6.17,8-6s-5.75,4.85-7,12c-0.612,3.031-0.262,6.177,1,9c3.17,6.52,10,5.56,11,10c0.89,4-4.43,6-8,15
		c-0.728,2.125-1.737,4.143-3,6c-1.89,2.69-3,3-3,4c0,3.87,15.22,6.68,15,8s-14.92-2.73-19,3c-2.24,3.14,0.64,6.51,1,14
		c0.43,9.08-3.24,16-7,23c-2.73,5.1-7.77,14.55-18,21c-13,8.21-20.83,3-28,11c-6.14,6.84-6.48,17.43-4,25
		c3.46,10.55,13.91,19.74,21,18c4.34-1.06,4.68-5.55,9-6c4.91-0.52,8.09,4.89,14,10c8.93,7.72,15.09,7,22,11c15.15,8.83,25,35,19,54
		c-0.89,2.82-10.27,16.25-29,43c-3,4.23-7.16,10.22-5,14c2,3.45,8.94,4.6,12,2s0.76-8.07,4-10c2-1.19,5.19-0.5,6,1
		c0.89,1.65-0.92,4.61-3,8c-1.49,2.43-2.33,3.2-2,4c0.72,1.75,6,1.12,7,1c8.45-1,12.25-5.41,14-4s-1.9,5.8,0,12c0.31,1,1.32,4.3,4,6
		c5.5,3.48,14.48-2,16-3c10.33-6.57,9.36-15.28,19-19c4.94-1.9,6,0.06,9-2c7.75-5.37-0.15-18.38,7-29c6.62-9.83,17.49-4.81,23-15
		c4.32-8,0.67-16.74,7-21c2.08-1.4,2.89-0.74,6-2c8.78-3.56,12.79-13.11,14-16c5.53-13.16-1.12-18.51,5-27c4-5.51,9.51-7.06,9-11
		c-0.17-1.31-0.86-1.78-6-7c-5.91-6-6.55-7-7-8c-1.86-4.27-0.2-8.83,1-12c3.28-8.64,12.82-22.06,27-24l0,0c0,0.08,15.15,0.49,29,7
		c4.69,2.2,9,4.24,9,7c0,4.61-12.24,8.3-13,7c-0.92-1.58,16.67-7.88,18-20c1-9.41-8.73-13.29-7-22c1.46-7.35,8.86-6.81,16-16
		c6-7.74,3.34-11.43,9-35c4.76-19.83,8.4-24.48,5-29c-4.33-5.75-15.25-4.91-27-4c-9.37,0.72-14,1.08-19,4
		c-13.15,7.74-11.56,22.85-21,25c-1.1,0.25-3.13,0.5-15-6c-18.56-10.17-20-14.31-31-18c-5.55-1.87-10.8-2.7-19-4
		c-13.41-2.13-14.15-0.79-18-3c-11.44-6.56-13.8-23.42-14-25s-0.23-2.49-0.29-3.94c-0.58-13.47,3.3-18.62,4.29-29.06
		c0.63-6.6,1.68-17.66-5-23c-4.48-3.58-11.91-4.16-16-1c-4.65,3.59-1.12,14.6,3,29c2.24,7.83,3.87,11.21,2,15
		c-2.6,5.28-10.48,8.3-14,6c-2.79-1.82-0.8-5.65-4-12c-1.914-3.593-4.656-6.678-8-9c-2.89-2.19-5.07-3-16-7s-10.8-4-11-4
		c-13.23,2.34,11,80.34-24,126c-21.32,27.85-48.58,22.68-53,45c-5.34,27,33.63,38.79,34,80c0.16,18.1-7.29,22.79-8,55
		c-0.33,14.78-0.83,37.59,7,40c7.56,2.32,23.17-14.28,20-23c-4.19-11.52-42.64-13.38-53,1c-3.07,4.27-8,15.92-8,16l-18-24
		c-7.9,0.35-16.53-0.57-20-6c-5.92-9.25,7.72-24.4,3-29c-4.11-4-18.93,3.11-28,12c-5.776,5.426-9.931,12.35-12,20
		c-3.22,12.7,2.77,16.44,0,25c-4.59,14.16-23,10.17-36,26c-4.5,5.49-4.39,8.55-11,41c-5.79,28.42-8.73,42.7-11,46
		c-13.19,19.2-29.78,8.37-59,31c-19.48,15.08-16.82,23.55-38,36c-10.59,6.22-18.13,8.15-28,18c-10.26,10.24-9.33,15.36-17,19
		c-14.14,6.71-25.18-6.95-36,0c-6.74,4.33-4.49,10.92-15,26c-3.316,4.618-6.994,8.965-11,13c-18.28,19.12-34.18,28.24-43,37
		c-29.3,29.07-16.88,90.08-19,90c-1.11,0-0.53-16.57-9-25c-0.725-0.689-1.394-1.434-2-2.23c-5.36-7.06-4.63-17.37-3-17.77
		c3.43-0.84,6.16,42.1,31,52c0.6,0.24,15.44,5.92,26-1c7.88-5.16,7.89-13.74,13-14c0,0,3.63-0.19,17,20
		c5.6,5.556,12.462,9.674,20,12c8.66,2.56,11.82,0.58,23,3c13.72,3,14.05,7,23,8c14.22,1.52,26.18-7.4,31-11
		c13.21-9.85,9.37-15.57,25-29c7.39-6.68,15.839-12.087,25-16c11.63-4.84,14.8-3,18-7c8.72-10.91-9.07-31.73-1-41
		c5.34-6.13,15,0.8,25-6c8.58-5.86,10.23-17,12-29c0,0,1.7-11.47-2-47c26.75,3.46,38.9-2.52,45-9c1.65-1.75,2.68-3.35,14-20
		c6.08-17,10.6-22.31,14-22c8,0.73,13.93,32.78,14,33c21.23,0.39,28.28-3.54,30-8c4.39-11.36-22-36-22-36l17-32
		c18.44-10.3,25.28-21.42,28-30c4.06-12.81-0.22-22.61,8-32c5.22-6,8.85-4.18,18-12c2.3-2,16.62-14.2,14-22s-20.8-8.52-28-8
		c-44.69,3.24-76.36,88.3-90,126c-39.22,108.39-13.24,124.05-48,184c-2.83,4.89-53.94,90.28-142,107c-32,6.08-78.4,4.86-84-11
		c-2.32-6.56,2.75-14.48,0-16c-3.53-1.95-16.46,8.62-18,22c-0.21,1.82-1.23,10.67,4,15c5.63,4.66,13.17-0.11,17,2
		c6.68,3.67,3,28.83-23,97"/>
</g>
<g id="&#xB808;&#xC774;&#xC5B4;_9" style="display:none;">
	<g id="_x33_a2LTZ_00000115496244867921100820000000128947276773123722_" style="display:inline;opacity:0.4;">
		
			<image style="overflow:visible;" width="258" height="195" id="_x33_a2LTZ" xlink:href="C9D17EEFDFDAE1FD.jpg"  transform="matrix(5.2803 0 0 5.2803 437.8092 491.2787)">
		</image>
	</g>
</g>
<g id="&#xBA54;&#xC778;_&#xBCF5;&#xBD99;">
	<path style="fill:none;stroke:#000000;stroke-miterlimit:10;" d="M388.704-202.978c-0.035,31.538,0.183,67.476,0.846,109.622
		c0.281,17.875,0.641,30.707,8.626,44.286C414.03-22.105,442.97-21.061,442.668-7.89c-0.339,14.805-37.309,31.828-49.226,21.773
		c-6.499-5.484-7.605-20.823-0.947-26.979c17.071-15.783,72.575,40.451,155.119,67.342c69.216,22.549,114.647,13.33,159.578,11.677
		c180.007-6.624,307.219,186.67,277.396,258.427c-20.505,49.337-135.457,44.154-298.85,36.787
		c-90.554-4.083-191.598-8.639-200.204-45.172c-2.979-12.648,4.604-35.266,11.685-35.87c5.08-0.434,7.692,10.647,13.913,10.456
		c7.013-0.216,8.41-14.444,18.575-27.244c9.118-11.481,23.649-19.746,37.785-21.407c27.439-3.223,55.533,18.063,53.852,27.599
		c-0.739,4.191-8.458,7.931-13.314,5.89c-15.151-6.368-18.018-74.295,12.338-89.89c23.555-12.101,74.011,22.737,72.229,48.413
		c-0.961,13.843-17.14,25.539-19.353,23.851c-5.655-4.314,51.865-117.476,91.653-111.041c28.016,4.531,49.004,68.647,37.042,78.444
		c-5.809,4.758-22.224-0.973-24.704-9.705c-5.945-20.933,63.043-77.239,102.547-61.911c43.04,16.7,53.892,119.522,12.455,161.913
		c-36.167,37-113.858,29.692-116.764,16.326c-5.097-23.442,269.736-97.791,464.945-24.555
		c22.651,8.498,103.081,40.005,144.01,120.656c5.507,10.851,48.439,95.45,11.677,144.01
		c-17.905,23.651-75.901,22.229-191.895,19.386c-5.31-0.13-16.797-0.57-24.399-8.519c-16.886-17.657-3.679-60.953,6.61-61.689
		c8.818-0.631,16.996,29.893,20.556,28.709c3.441-1.144-8.785-28.133,1.383-55.332c5.338-14.277,16.33-27.234,21.695-25.511
		c5.89,1.892,4.725,21.388,5.971,21.361c1.297-0.028-3.071-21.054,7.424-33.72c7.988-9.641,25.849-15.959,40.093-7.73
		c16.576,9.577,17.917,32.886,14.731,34.533c-2.242,1.159-10.344-6.539-12.45-15.216c-4.513-18.595,17.779-44.683,40.115-44.265
		c23.321,0.436,41.434,29.668,38.732,33.199c-1.11,1.45-9.339-1.835-13.833-6.917c-16.08-18.185,3.807-72.532,39.417-103.152
		c9.186-7.899,47.047-40.455,88.638-27.084c42.721,13.734,53.792,64.484,57.328,80.69c0.959,4.398,8.999,41.252-3.16,47.343
		c-9.284,4.651-30.507-8.553-34.47-24.622c-7.668-31.09,45.618-87.76,93.563-83.714c66.511,5.612,103.399,126.436,81.252,147.73
		c-7.778,7.479-26.416,6.121-36.933-2.462c-9.166-7.481-14.931-22.711-9.849-32.008c12.154-22.236,91.428-19.822,115.722,17.235
		c14.515,22.14,4.942,49.841,17.235,54.168c13.172,4.636,27.268-26.071,48.128-23.055c13.416,1.939,27.227,17.479,26.876,31.355
		c-0.794,31.353-69.614,59.568-123.629,68.981c-53.771,9.371-66.742-4.329-141.841-9.059c-123.2-7.76-222.058,20.683-266.423,33.853
		c-29.9,8.876-50.166,16.923-86.415,31.039c-211.943,82.535-224.012,93.766-289.387,42.715c-0.593-0.463-4.136-3.324-9.183-7.177
		c-28.563-21.807-42.845-32.71-52.875-34.139c-37.037-5.277-80.982,66.119-76.036,71.274c0.547,0.571,1.689,0.326,3.505-0.262
		c17.958-5.816,28.134-21.416,38.982-34.153c20.961-24.61,35.785-28.373,33.55-36.86c-0.859-3.262-3.591-4.763-24.385-13.706
		c-19.186-8.252-28.779-12.377-33.058-13.81c-24.088-8.067-40.045-13.518-47.506-6.255c-2.914,2.837-4.815,7.646-3.494,21.488
		c1.705,17.865,6.972,31.854,22.617,63.661c20.142,40.951,21.927,44.847,28.049,52.781c3.132,4.059,9.304,11.67,30.013,30.562
		c24.899,22.714,36.441,31.539,45.338,38.481c2.278,1.777,3.916,3.033,4.38,3.391c19.568,15.067,171.751,140.726,235.704,203.344
		c4.12,4.034,15.855,15.69,28.089,13.293c7.987-1.565,12.718-8.44,18.481-17.074c15.574-23.333,24.488-35.965,29.465-42.881
		c3.658-5.083,5.252-7.788,5.849-8.594c17.411-23.525,38.324-33.527,38.764-32.906c0.733,1.034-48.458,41.208-76.972,81.081
		c-1.952,2.73-11.354,16.154-7.028,22.651c3.58,5.376,13.663,1.808,21.809,9.466c3.502,3.292,4.762,6.887,6.372,11.372
		c9.245,25.75,13.929,38.636,16.957,39.132c6.737,1.104,9.094-21.781,28.406-43.358c19.699-22.01,42.872-26.83,41.147-33.475
		c-2.275-8.759-43.35-3.487-52.014-19.874c-0.641-1.212-3.434-6.948-4.203-8.529c-7.441-15.282-7.395-16.165-8.542-16.516
		c-9.391-2.875-28.926,51.263-44.371,48.481c-1.805-0.325-1.809-0.871-15.435-11.354c-4.382-3.372-8.089-5.993-10.562-7.698
		c-136.016-117.236-233.936-201.281-251.371-214.819c-2.177-1.69-9.652-7.369-16.608-17.192
		c-3.256-4.597-8.978-13.745-13.513-31.721c-5.845-23.172-11.124-44.099-1.368-52.635c5.17-4.524,17.554-2.098,42.11,2.939
		c22.704,4.656,34.055,6.984,48.472,14.047c10.816,5.299,18.826,10.982,30.63,19.358c11.502,8.162,20.055,15.19,24.423,18.869
		c22.169,18.67,88.599,70.534,221.45,174.272c30.788,24.042,57.534,44.532,71.333,36.003c8.187-5.06,13.217-21.199,7.543-28.404
		c-4.273-5.425-13.546-4.424-16.372-4.119c-11.04,1.192-23.458,9.36-24.758,19.486c-0.988,7.691,5.25,10.192,17.08,27.916
		c13.912,20.843,13.536,30.025,20.917,30.996c7.263,0.955,14.146-7.138,27.912-23.323c14.096-16.572,21.143-24.858,18.47-31.406
		c-2.216-5.428-8.984-4.644-31.218-14.188c-11.478-4.927-17.247-7.393-17.741-9.844c-1.96-9.728,30.184-21.668,75.098-56.175
		c11.452-8.798,19.075-15.862,17.402-20.837c-1.679-4.994-14.825-6.056-41.115-8.179c-11.127-0.899-16.873-0.897-22.286-0.573
		c-6.7,0.402-11.906,1.239-23.31,3.534c-33.049,6.65-39.048,9.621-48.966,6.482c-5.934-1.877-9.441-4.995-15.455-9.559
		c-32.933-24.991-59.101-50.909-69.394-61.176c-7.378-7.359-17.312-17.362-28.994-29.414c0,0-0.001-0.001-0.001-0.002
		c-0.27-0.254-48.123-45.347-81.422-45.905c-0.069-0.001-0.15-0.002-0.15-0.002c-0.12-0.039-0.268-0.07-0.323-0.005
		c-1.15,1.384,45.95,38.303,42.255,43.993c-1.324,2.039-8.741-0.596-12.729-2.013c-11.135-3.956-17.911-10.185-26.515-18
		c-4.941-4.488-13.308-12.064-25.808-23.247c0,0-0.001,0-0.001,0c-0.054-0.008-2.44-0.356-5.34-1.063
		c-10.186-2.483-14.714-6.891-25.015-11.853c-3.46-1.667-7.632-3.407-13.025-5.183c-11.217-3.693-19.586-4.864-27.545-1.582
		c-2.8,1.154-6.793,2.801-8.171,5.514c-5.402,10.638,28.451,33.512,82.507,80.982c47.885,42.052,43.325,43.341,62.183,55.521
		c2.958,1.911,15.185,12.391,39.64,33.351c2.488,2.132,7.53,8.76,13.458,17.64c16.281,24.388,23.602,48.594,34.268,86.396
		c13.7,48.555,15.664,59.357,20.325,62.438c0.324,0.215,0.621,0.374,0.897,0.498c0,0,0.577,0.262,1.127,0.389
		c1.401,0.324,13.636-34.932,28.835-59.156c7.167-11.422,11-17.348,16.717-17.466c10.152-0.208,13.371,18.162,34.496,44.088
		c8.979,11.02,17.977,22.116,33.063,29.657c11.744,5.87,38.194,15.298,47.874,5.234c13.333-13.861-18.495-50.821-10.023-61.895
		c24.282-31.739,362.821,171.165,349.816,196.465c-11.553,22.475-296.437-103.204-302.323-89.166
		c-2.709,6.46,50.952,48.965,94.826,67.257c17.375,19.514,34.279,28.626,46.975,33.319c20.998,7.762,36.982,5.834,46.948,19.269
		c7.302,9.843,9.067,24.823,4.05,28.426c-12.149,8.725-62.855-41.997-64.936-39.707c-1.601,1.763,30.867,29.293,27.834,33.883
		c-6.885,10.42-204.76-85.156-195.491-112.316c7.064-20.702,139.746-18.052,190.213,54.455c17.331,24.901,29.223,64.685,16.178,76
		c-4.703,4.079-14.411,5.988-54.244-12.668c-91.867-43.025-172.746-114.169-172.746-114.169
		c-6.434-5.66-16.874-15.011-33.451-23.207c-29.522-14.595-74.006-23.286-82.47-10.453
		c-19.5,29.565,152.574,172.747,173.439,190.109c61.571,51.233,190.421,151.051,207.503,133.405
		c16.728-17.279-79.222-141.521-76.718-143.223c1.807-1.228,34.467,75.175,105.176,101.381
		c48.542,17.991,74.703-1.926,93.937,17.424c29.827,30.007,4.644,135.042-63.478,186.696
		c-89.087,67.551-240.525,35.402-253.472-12.65c-12.876-47.79,102.984-141.917,149.99-118.134
		c43.917,22.22-3.679,175.435-9.942,195.823c-11.77,38.316-30.404,97.021-77.887,155.63
		c-92.054,113.622-222.525,140.471-264.387,147.299c0,0,0,0,0,0c-0.106,0.109-188.922,194.262-289.184,166.028
		c-5.678-1.599-30.331-8.541-32.848-22.993c-2.255-12.951,15.111-21.325,12.044-32.848c-3.86-14.504-33.87-10.603-38.323-25.183
		c-3.575-11.704,11.258-28.969,25.183-37.228c14.135-8.383,22.386-4.554,27.373-12.044c9.447-14.189-12.29-39.752-6.57-44.892
		c7.526-6.763,48.208,34.732,60.221,26.278c10.958-7.711-15.186-47.66,3.285-72.265c8.546-11.384,17.297-7.035,22.993-17.519
		c11.443-21.061-20.891-44.096-14.234-78.835c1.967-10.263,8.948-29.953,21.899-32.848c22.072-4.934,34.426,44.957,89.784,83.215
		c15.059,10.407,58.415,40.37,93.069,26.278c26.748-10.876,38.254-43.908,42.702-41.607c4.859,2.513-18.774,36.802-6.57,62.411
		c12.188,25.573,51.503,24.424,51.462,33.943c-0.077,17.907-139.18,12.75-158.765,66.791c-8.955,24.71,10.41,52.604,1.095,58.031
		c-9.059,5.279-22.268-24.081-54.746-33.943c-40.583-12.322-61.815,20.811-107.303,7.665c-24.059-6.953-37.497-21.823-41.607-17.519
		c-4.146,4.341,5.049,24.154,20.804,36.133c19.629,14.925,37.194,8.378,40.512,16.424c7.624,18.487-84.343,54.888-82.12,102.923
		c0.689,14.886,9.814,17.708,18.631,35.398c34.87,69.964-36.016,169.964-46.577,184.443
		c-27.491,37.692-85.325,97.925-121.099,83.838c-11.991-4.722-24.327-18.905-22.357-29.809c2.587-14.318,28.713-16.738,27.946-24.22
		c-0.766-7.472-28.04-16.938-44.713-5.589c-10.475,7.13-12.967,19.889-14.904,29.809c-5.249,26.876,6.835,33.171,1.863,50.303
		c-7.951,27.398-45.075,32.722-42.85,48.439c1.399,9.888,16.499,10.648,16.768,18.631c0.53,15.77-57.569,37.666-70.796,22.357
		c-8.228-9.523,4.583-29.19-1.863-33.535c-6.522-4.396-22.622,13.722-42.85,27.946c-41.896,29.46-103.675,43.747-124.825,22.357
		c-11.576-11.707-6.632-29.703-14.904-31.672c-9.743-2.32-17.829,22.351-37.261,44.714c-41.043,47.232-89.421,34.36-102.468,70.796
		c-6.959,19.435-0.839,44.442,11.178,50.303c12.807,6.246,29.996-10.385,37.261-3.726c7.37,6.755-7.969,26.023,0,37.261
		c9.377,13.224,40.585,0.598,44.713,9.315c4.06,8.572-26.579,19.81-37.261,48.439c-12.767,34.218,16.426,57.228,1.863,81.975
		c-10.872,18.476-39.065,25.907-61.481,20.494c-29.597-7.148-51.682-37.309-46.577-55.892c4.321-15.729,26.9-18.709,26.083-31.672
		c-0.685-10.862-16.873-14.087-16.768-26.083c0.087-9.958,11.289-13.04,9.315-20.494c-1.374-5.191-7.339-5.706-24.457-14.549
		c-0.322-0.166-0.91-0.471-1.626-0.355c-4.608,0.744-10.02,14.104-5.589,22.357c2.921,5.441,8.104,4.811,9.392,9.7
		c1.496,5.68-3.704,13.348-7.625,13.17c-4.204-0.191-4.088-9.272-9.704-11.09c-7.695-2.491-14.911,12.291-21.487,10.397
		c-7.252-2.088-1.602-20.963-13.17-37.43c-9.163-13.044-19.873-11.398-20.794-18.022c-2.779-19.979,93.059-46.57,102.585-49.213
		c48.947-13.581,64.135-10.188,70.7-8.318c19.32,5.503,29.301,16.434,41.749,12.374c0.592-0.193,1.496-0.558,2.557-1.082
		c15.797-7.803,15.214-29.689,20.788-40.938c14.36-28.979,87.701-23.918,135.397-9.338c21.356,6.529,54.769,16.743,56.026,35.017
		c1.003,14.568-18.682,30.601-37.351,35.017c-20.719,4.901-26.535-7.736-44.354-4.669c-34.983,6.021-38.34,59.163-67.698,60.695
		c-15.968,0.833-33.348-13.929-32.682-23.344c0.446-6.305,8.91-9.14,7.858-13.493c-1.757-7.268-26.698-4.942-27.474-9.653
		c-0.698-4.234,19.576-5.319,34.9-20.049c16.702-16.054,17.275-38.466,23.761-37.87c4.811,0.442,3.911,12.716,11.881,17.078
		c4.634,2.537,14.209,3.461,36.385-13.366c35.487-26.927,33.008-46.02,54.948-59.404c33.702-20.559,86.432-4.107,89.342,11.405
		c2.095,11.165-22.615,16.514-24.712,36.117c-2.089,19.53,19.285,43.688,41.82,47.522c33.865,5.762,73.156-33.895,81.739-72.234
		c6.643-29.673-6.125-54.015,5.703-60.829c7.713-4.443,22.085,0.755,26.613,9.505c5.164,9.979-5.626,18.5-1.901,26.613
		c6.777,14.759,57.179,18.556,91.243-5.703c24.454-17.415,30.737-42.344,41.82-39.919c12.151,2.658,13.811,34.638,19.009,34.216
		c6.208-0.504-0.028-45.807,19.009-55.126c11.996-5.873,29.188,4.914,30.414,5.703c14.274,9.186,12.683,20.658,20.91,22.811
		c15.217,3.981,46.592-28.489,49.424-64.63c1.815-23.175-9.714-27.336-7.604-53.225c2.276-27.929,16.239-29.785,19.009-53.225
		c4.961-41.984-35.878-69.473-24.712-85.54c9.15-13.166,40.167,0.116,47.523-13.306c6.264-11.431-14.339-24.515-11.405-45.622
		c3.013-21.681,27.157-25.173,32.315-41.82c9.28-29.948-50.592-77.619-76.036-91.243
		c-121.864-65.256-426.434,107.187-571.125,368.145c-114.028,205.656-100.707,413.91-91.352,549.962
		c8.544,124.253,6.959,165.674,16.425,205.658c8.05,33.999,20.793,60.229,28.872,77.533"/>
</g>
<g id="&#xBE44;&#xD589;&#xAE30;" style="display:none;">
	<path style="display:inline;fill:none;stroke:#000000;stroke-miterlimit:10;" d="M-396.37-144.818v137c0,2.39,0,6.67,0,12
		c-0.25,125.14,33.43,179,10,210c-27.91,36.94-132.17,36.74-164-17.5c-26.51-45.17,5.68-113.38,48-143
		c81.56-57.07,231.86,7.43,263,92c16.31,44.3-10.53,65.7,9,103c37.42,71.44,190.41,96.95,256,37c49.9-45.61,25.85-119.31,61-131
		c53.66-17.85,123,149.52,207,135c42.22-7.3,58.11-55.39,123-59c16.83-0.94,47.93,0.51,50,10c3.29,15.06-64,61.89-102,37
		c-25.93-17-31.56-63-21-70c7-4.61,25.39,5.11,25,11c-0.19,2.82-4.76,5.83-8,5c-10.29-2.64-15.87-46.28-2-55
		c17.47-11,68.32,31.83,64,41c-2.06,4.38-18.07,4-21-2c-6.41-13.09,40.87-70.91,77-57c32.49,12.5,36.72,75.6,25,82
		c-4.83,2.64-15.13-2.86-16-9c-2.33-16.34,59.5-54.84,85-34c22.41,18.32,7.59,75-2,76c-5.62,0.59-13.89-17.45-11-20
		c4.21-3.72,36,22.17,33,28s-37.12-17.8-81-10c-11.32,2-37.76,6.71-49,27c-18.9,34.12,21.48,82.93,28,88
		c0.12,0.09,1.08,0.84,2.4,1.9c5.43,4.35,9.66,8.25,12.6,11.1c0.63,0.61,2.33,2.27,4.49,4.51c0,0,4.52,4.68,8.45,9.35
		c15.38,18.23,8.06,62.14,8.06,62.14c-11.66,70-17.49,105-39,115c-27,12.56-68.22-2.28-72-19c-1.55-6.84,3.08-14.42,8-18
		c10.85-7.9,29.56-1.07,40,7c6.1,4.71,10.28,10.55,11,10c1-0.73-8.63-9.41-9-21c-0.38-12.1,9.4-24.4,21-29c3-1.19,10.9-4.32,18-1
		c7.75,3.63,8,11.89,12,12c6.16,0.17,5.62-19.77,19-32c11.11-10.16,30.73-14,43-7c11.44,6.51,14.39,21.2,20,20c3.89-0.83,3.1-8,9-11
		c5.5-2.79,12.87,0.06,17,3c8.72,6.2,11.26,18.69,10,28c-1.42,10.53-7.52,15.72-5,19c3.1,4,13-2.94,19,2c4.89,4,5.23,14.57,1,20
		c-2.71,3.49-7.38,5-7,6s4.07-0.69,6,1c2.49,2.17,1.4,9.3-2,13c-6.07,6.61-20.11,2.94-24,2c-36.29-8.76-74.68,2-112,1
		c-71.24-1.84-106.86-2.76-116,2c-39.84,20.76-63.09,73.57-70,109c-4.24,21.76-5.63,53.88-29.32,88.38
		c-2.91,4.441-6.145,8.659-9.68,12.62c-37.2,40.76-114.53,47.58-133,21c-8-11.52-5.68-30.38,3-42c6.71-9,19.75-17.06,31-14
		c16.08,4.37,22,29.78,24,29c2.24-0.88-14.12-30.19-4-56c1.52-3.89,5.53-14.11,15-18c15.83-6.5,38.4,8.21,46,25
		c3.55,7.84,3.8,16,4,16s-5.19-17.12-3-34c2.77-21.33,18.45-47.46,35-48c26-0.85,49.29,61.47,52,60c0.88-0.48-2.94-6.23-3-14
		c-0.12-14.86,13.52-31.88,29-35c22.09-4.45,46,19.82,49,42c4.32,31.47-33.47,57.33-52,70c-7.28,5-31.54,20.7-69,27
		c-47.57,8-96.13-2.59-96-9c0.18-8.94,95.39-24.43,192-4c58.65,12.4,102.54,21.69,130,61c41.53,59.45,15.77,145.06,5,151
		c-0.66,0.36-1.37,0.71-1.37,0.71c-10.51,5.18-21,3.62-23.63,3.29c-25.15-3.14-50.66,2.22-76,2c-69.79-0.61-90.85,12.07-101-2
		c-9.47-13.12-1.4-38.35,4-39c4.34-0.52,9.9,14.51,11,14c0.94-0.43-5.72-10.2-3-19c3.66-11.84,23.28-18.58,28-14
		c2.64,2.57,0.94,9,1,9s-1.73-9.6,3-15c4.53-5.17,14.48-5.82,20-2c2.36,1.63,4.44,4.44,4,5s-3.51-0.9-5-2c-6.7-5-8.88-23,1-33
		s28-8.15,35,0c4.32,5,5.28,13.35,4,14c-0.93,0.47-3.73-2.73-4-3.06c-0.773-0.904-1.443-1.889-2-2.94c-2.14-4.35,5.65-29.75,20-31
		c15.78-1.38,29.89,27.27,28,29c-0.92,0.84-6.79-3.58-10-7c-15.86-16.9-11.64-57.34,11-81c4-4.22,24.09-25.18,51-20
		c24.67,4.75,40.43,28.65,38,32c-1.79,2.46-16.71-1.65-22-11c-11.07-19.55,16.8-67.5,47-71c43.25-5,88.13,81.49,78,92
		c-3.74,3.88-17.38-0.13-21-8c-7.68-16.69,25.39-60.14,55-59c39,1.5,70.35,80.14,64,85c-2.82,2.16-16.9-7.35-17-17
		c-0.11-11,17.9-24,31-21c17.34,4,24.33,35.62,23,57c-1.91,30.69-22.15,59.13-29,57c-5.69-1.77-7.54-26.28,3-34
		c13.09-9.58,44.62,7.21,45,22c0.23,9.2-11.57,18.54-14,17c-3.85-2.44,5.82-38.48,24-43c24-6,58.6,44,52,53
		c-2.59,3.53-12.71,2.34-15-2c-4.18-7.91,15.64-30.12,25-27c7.66,2.55,5.56,21.12,14,23c3.81,0.85,5.65-2.61,11-4
		c12.94-3.35,30.91,9.44,30,16c-1.07,7.71-28.65,9.8-74,12c-155.74,7.56-233.61,11.33-287,9c-57.25-2.5-79.29-5.68-86,7
		c-17.25,32.61,89.67,127.21,105,138c4.09,2.88,7.94,6.08,12,9c11.12,8,16.1,10.64,19,17c1.369,3.154,2.051,6.562,2,10
		c0.67,33.1-22.55,88.85-17,133c0.75,6,3.24,21.35-1,23c-2.46,1-6.13-3.09-7-4c-14.67-15.43-76-28-126-41
		c-61.56-16-70.7-23.43-97-19c-25.1,4.22-46.89,16.07-46,20c0.59,2.58,10.87,1.18,33,6c4.3,0.94,16.18,3.52,16,5s-12.28,1.86-23,1
		c-14.51-1.16-18.46-4-25-1c-5.124,2.368-9.085,6.69-11,12c0,0-3.68,10.75,7,28l3,4.77c0.68,1,1.3,1.77,1.72,2.29
		c1.18,1.43,1.69,1.82,2.77,3.25c0.23,0.31,0.73,1,1.29,1.89c0.67,1.07,0.92,1.63,1.66,3c0,0.07,0.83,1.54,1.59,2.8
		c1.62,2.69,2.42,4,3,4c1.35-0.07,3.18-4.83,2-9c-1-3.71-4.17-5.87-6-7c-15.75-9.77-42.93-10.12-53-11
		c-1.375-0.086-2.744-0.253-4.1-0.5c0,0,0.32,0,0.32-0.06c0-0.27-13.22-1.44-13.22-1.44c-58.25-5.14-155-16.28-156-10
		c-0.19,1.15,2.86,2.83,12,6c66,22.88,166.24,25.32,178,24c0,0,7.42-0.83,11,2l1.69,1.35l3.31,2.65c1.92,1.52,3.44,2.66,4.15,3.19
		c2.15,1.61,3.48,2.54,3.85,2.81c3.73,2.77,6.63,11.14,5,19c-1.144,5.104-3.959,9.679-8,13c-11.22,9.34-29.12,6.55-30,3
		c-0.41-1.65,2.73-4.1,9-9c4.37-3.41,5.74-3.76,7-6c2.93-5.22,0.14-11.68,0-12c-3.29-7.34-13.4-12.51-22-9c-5.09,2.08-10,7.33-10,14
		c0,7.45,6,14.74,13,15c7.86,0.28,12.64-8.34,13-9c1.12-2.18,1.799-4.558,2-7c0.42-3.44,1.24-10.13-3-15c-4.24-4.87-11.56-5.7-17-4
		c-8.15,2.55-11.08,10.5-12,13c-3.29,9,0.07,16.89,1,19c3.82,8.64,11,12.49,14,14c9,4.59,17.41,3.63,23,3c6.89-0.78,14.15-1.6,20-7
		c3.76-3.47,6.17-8.31,11-18c3.14-6.31,3.18-7.45,5-9c5.77-4.91,15.39-1.94,23,0c29.08,7.41,46.28,4.19,63.07,10.45
		c6.62,2.529,12.963,5.729,18.93,9.55c3.64,2.42,25.9,15.84,51.63,10.76c0,0,27.39-5.41,31.37-2.76
		c0.241,0.153,0.495,0.284,0.76,0.39c0.88,0.33,7.24-1.39,7.24-1.39c1.87-0.51,3.76-0.88,4-1.93c0,0,0,0,0-0.07c0-0.4-0.27-1.34-5-3
		c-9-3.17-23-5-23-5c-4.39-0.58-6-0.73-6-1c0-0.82,15-1,17-1c7.49-0.08,11.28-0.09,13,1c2.07,1.32,4.39,3.84,10,7l0.72,0.4
		c4.4,2.38,12.9,7,17.28,2.6c5.76-5.76,13.07-9.5,16-14c3.08-4.72,2.24-11.66,0-16c-5.55-10.75-24.28-14.41-33-6
		c-4,3.85-6.81,11.12-4,18c2.521,6.057,8.439,10.002,15,10c10.7-0.22,15.42-12.49,16-14c2.58-6.72,2.91-17.11-3-22
		c-1.7-1.41-5.13-3.36-20-1c-16.13,2.56-17.27,5.69-31,8c-10,1.68-20.3,1.88-31-1c-2-0.55-11.22-3-11-5c0.26-2.34,13.48-3,36-4
		c17.77-0.8,25.53-0.68,26-3c0.09-0.45,0.25-2.62-12-8c-17.38-7.63-29.76-8.55-47-12c-17.86-3.57-13.16-4.31-35-9
		c-12.81-2.75-25-8.65-38-10c-2.78-0.29-8.89-0.8-10-4c-1.18-3.38,3.87-8,5-9c13.69-12.45,53.44,6.65,110,11
		c12.17,0.94,28.73,1.47,41-9c5.44-4.64,8.14-9.82,11-16c14.68-31.72,15.52-50.84,26-76c6-14.52,17.54-36.41,22-35
		c7.55,2.38-4.4,71.54-11,123c-0.1,0.81-2.21,17.49-1.29,23.54c0.3,1.844,0.374,3.718,0.22,5.58c-0.17,1.65-0.481,3.283-0.93,4.88
		c-0.64,2.8-2,8.82,0,11c2.44,2.63,9.73-0.47,11-1c33.21-13.8,166.06-19,215-19c100.93,0,81.22-1.75,95-1c12,0.65,17.93,1,18,2
		c0.29,4-82.59,13.61-141,19c-73,6.73-109.43,10.1-149,12c0,0-68.13,3.27-68,7c0,1.11,11.88-0.61,20,7c5.83,5.46,9.76,15.75,6,24
		c-4.17,9.15-15.68,11.1-21,12c-3.21,0.54-7.19,0.37-15,0c-14.59-0.69-20.75-2-21-1c-0.31,1.21,9.21,5.18,19,8
		c14.615,4.169,29.826,5.859,45,5c9.58-0.51,16-0.91,24-4c6.823-2.747,13.22-6.451,19-11c8.77-6.77,7.88-8.84,13-11
		c11.14-4.7,23.45,1.68,26,3c5.505,2.903,10.289,7.004,14,12c22,28.94,20,59.46,36,66c15.7,6.4,30.81-17.48,46-10
		c14.5,7.13,10.2,33.51,21,36s18.43-23,34-25c17.27-2.18,22,31.58,50,54c30.72,24.57,55.87,10.24,77,25
		c50.26,35.11,46,212.58-55,269c-75.44,42.14-189.43,8.13-195-28c-6-38.94,109.81-107,144-81c37.75,28.73,1.59,191.66-98,253"/>
</g>
<g id="&#xC804;&#xAD6C;_&#xB808;&#xD37C;&#xB7F0;&#xC2A4;" style="display:none;">
	<g id="v4tE29_00000000919424747212399210000008849773459101886620_" style="display:inline;opacity:0.5;">
		
			<image style="overflow:visible;" width="1000" height="1080" id="v4tE29" xlink:href="C9D17EEFDFDAE1FE.jpg"  transform="matrix(1 0 0 1 460 673.821)">
		</image>
	</g>
</g>
<g id="&#xC804;&#xAD6C;" style="display:none;">
</g>
</svg>
