<?xml version="1.0" encoding="iso-8859-1"?>
<!-- Generator: Adobe Illustrator 28.5.0, SVG Export Plug-In . SVG Version: 9.03 Build 54727)  -->
<svg version="1.1" xmlns="http://www.w3.org/2000/svg" xmlns:xlink="http://www.w3.org/1999/xlink" x="0px" y="0px"
	 viewBox="0 0 1920 3203" style="enable-background:new 0 0 1920 3203;" xml:space="preserve">
<g id="&#xB808;&#xC774;&#xC5B4;_3" style="display:none;">
	<line style="display:inline;fill:#FFFFFF;" x1="588.171" y1="-297.01" x2="541.238" y2="3922.733"/>
</g>
<g id="&#xB808;&#xC774;&#xC5B4;_2" style="display:none;">
	<g id="&#xB808;&#xC774;&#xC5B4;_2_00000073001345629473848410000011715789630465643441_" style="display:inline;">
		<path style="fill:#FFFFFF;" d="M584.696-103.583c0.671,20.629,1.108,52.418-0.91,91.199c-4.092,78.649-13.391,92.07-6.46,110.713
			c11.856,31.889,64.422,60.827,267.094,42.692c227.923-20.395,373.448-76.099,393.434-32.684
			c16.534,35.917-62.66,108.929-38.478,160.258c6.171,13.099,23.236,33.619,39.44,48.499c13.95,12.812,17.499,12.477,19.239,11.598
			c11.921-6.025-8.718-64.067,0-68.531c8.695-4.453,52.859,41.182,50.021,95.944c-2.175,41.968-31.755,85.435-53.869,82.238
			c-15.699-2.27-30.819-28.518-25.01-41.119c13.888-30.131,139.659,34.596,162.568-4.217
			c16.613-28.147-26.673-100.912-37.516-119.139c-20.007-33.632-31.395-39.136-28.858-50.608c8.554-38.687,156.504-59.523,192.388,0
			c19.087,31.661-9.604,59.398,0,123.356c8.987,59.852,43.474,97.917,87.537,146.552c1.732,1.912,3.041,3.307,3.871,4.197
			c42.574,45.626,91.818,80.671,184.67,128.649c115.728,59.798,132.404,52.502,142.367,46.39
			c10.548-6.47,20.367-26.831,50.021-50.608c9.202-7.378,17.003-12.652,23.087-9.489c7.135,3.71,10.391,18.24,5.772,26.358
			c-4.945,8.689-15.457,3.959-23.087,12.652c-8.102,9.231-5.555,25.168-3.848,35.847c0.956,5.978,5.184,32.432,25.01,47.445
			c19.662,14.889,39.69,7.186,41.363,14.761c2.716,12.296-48.699,38.776-49.059,39.01c1.206,10.26-1.167,19.08-5.772,21.086
			c-4.994,2.176-11.838-4.001-17.95-9.517c-6.816-6.151-5.786-7.875-8.984-9.46c-9.994-4.957-20.197,11.807-39.44,16.869
			c-13.728,3.611-18.086-2.408-30.782-2.109c-30.432,0.717-64.417,36.691-72.146,74.857c-7.227,35.692,10.558,63.175,0,70.64
			c-7.757,5.484-18.549-8.509-45.211-12.652c-17.767-2.761-30.129,0.787-38.478,2.109c-63.78,10.096-119.394-73.984-158.72-51.662
			c-20.283,11.513-19.992,42.111-36.554,42.173c-15.924,0.06-20.211-28.211-41.364-31.63c-17.573-2.84-38.613,12.795-38.478,25.304
			c0.151,14.028,26.953,26.199,64.45,43.228c25.698,11.67,31.537,11.6,34.63,18.978c8.008,19.103-17.205,52.828-16.645,53.154
			c0.06,0.035,0.356-0.34,0.292-0.437c-0.623-0.935-28.443,33.521-57.716,32.684c-17.947-0.513-35.567-14.267-42.325-31.63
			c-0.93-2.389-7.859-20.843,0-32.684c6.981-10.52,20.384-7.914,21.163-12.652c1.638-9.969-58.545-16.333-66.374-46.391
			c-5.396-20.718,15.174-48.503,32.706-62.205c23.04-18.008,44.012-14.176,47.135-27.413c3.846-16.296-25.742-31.435-21.163-45.336
			c4.054-12.307,31.245-12.58,38.478-12.652c21.573-0.216,25.103,7.312,43.287,6.326c16.436-0.891,41.097-8.533,44.249-23.195
			c3.497-16.264-21.982-29.502-17.315-45.336c2.914-9.885,13.613-7.333,21.163-18.978c9.582-14.779-1.487-28.401,0-57.988
			c1.774-35.294,18.857-42.448,12.505-60.097c-7.887-21.914-37.711-20.576-39.44-37.956c-1.1-11.065,9.68-24.758,15.391-23.195
			c16.747,4.584,28.471,150.932-36.554,219.301c-44.385,46.668-86.701,17.229-119.281,60.097
			c-61.786,81.297,20.409,279.272,72.146,280.451c10.565,0.241,27.333-7.555,35.592,2.109c9.072,10.614-0.154,32.893,5.772,35.847
			c5.95,2.966,14.453-19.901,30.782-21.087c14.584-1.059,21.322,16.199,29.82,12.652c10.037-4.189,14.153-33.905,3.848-43.228
			c-11.21-10.141-33.253,9.481-41.364,0c-5.747-6.718-1.18-24.166,7.696-33.739c14.542-15.684,42.551-12.272,54.831,2.109
			c8.604,10.077,5.15,20.463,9.619,43.227c3.25,16.558,10.504,30.719,25.01,59.042c15.404,30.074,32.477,63.409,62.526,99.107
			c18.026,21.415,22.425,21.943,24.048,31.63c5.529,32.982-41.804,48.637-45.211,93.835c-2.646,35.105,23.469,58.017,13.467,70.64
			c-9.621,12.143-35.268-7.189-52.907,6.326c-14.643,11.22-19.318,37.466-13.467,55.88c4.857,15.288,13.948,15.677,24.049,29.521
			c23.36,32.018,19.808,91.72-1.924,130.737c-13.539,24.307-26.367,26.642-25.972,42.173c0.801,31.536,54.303,46.064,50.983,66.423
			c-2.402,14.731-30.727,9.059-45.211,32.684c-13.248,21.609,2.665,39.053-9.62,69.586c-10.021,24.908-32.98,44.042-44.249,39.01
			c-9.66-4.314-2.957-22.916-16.353-39.01c-16.696-20.059-47.328-15.455-51.945-14.761c-4.339,0.652-38.015,5.714-45.211,28.467
			c-6.823,21.574,16.157,40.098,7.696,54.825c-5.714,9.945-22.957,13.272-30.782,6.326c-12.459-11.059,3.916-43.761-5.772-50.608
			c-2.962-2.094-10.661-3.395-47.135,29.521c-24.879,22.452-33.697,34.247-43.287,43.228
			c-48.082,45.026-132.602,35.244-136.596,18.978c-2.862-11.657,34.433-31.527,31.744-36.901
			c-3.004-6.005-48.568,20.785-58.678,7.38c-5.86-7.769,5.391-22.146,0-28.467c-9.514-11.156-60.571,14.845-58.678,32.684
			c0.969,9.136,15.733,15.252,29.82,21.087c22.966,9.513,33.414,5.712,38.478,14.761c5.607,10.019,1.094,29.508-9.619,36.902
			c-17.197,11.869-39.573-14.878-54.831-3.163c-13.975,10.73-13.408,47.146-13.467,47.445c-10.228,4.471-22.104,12.04-26.934,25.304
			c-6.551,17.989,4.863,32.708-1.924,41.119c-5.595,6.933-21.442,1.905-52.907-8.435c-58.595-19.254-66.412-22.121-68.298-30.575
			c-2.446-10.961,8.421-16.329,26.934-52.717c12.493-24.556,18.654-37.004,14.429-45.336c-5.772-11.384-23.821-3.304-60.602-8.435
			c-45.368-6.329-52.924-23.507-74.07-14.761c-6.299,2.605-18.489,15.098-42.87,40.083c-12.092,12.392-13.817,14.885-23.504,24.231
			c-16.697,16.11-25.045,24.165-37.516,31.63c-13.735,8.222-34.008,20.358-51.945,12.652c-10.279-4.416-9.816-11.063-18.277-12.652
			c-19.907-3.738-40.964,29.593-44.249,34.793c-15.558,24.626-11.571,37.583-25.972,48.499c-15.3,11.597-34.663,8.237-34.63,10.543
			c0.045,3.152,36.033-2.688,45.211,14.761c0,0,2.93,5.569-4.81,45.336c2.246,3.666,14.277,22.518,35.592,25.304
			c2.736,0.358,23.465,2.771,32.706-10.543c5.934-8.549,0.765-14.413,5.772-27.413c4.667-12.119,11.311-12.612,27.896-29.521
			c19.243-19.62,16.193-24.967,26.934-30.575c18.261-9.536,39.281-0.454,45.211,2.109c26.62,11.501,26.422,30.65,42.325,32.684
			c24.193,3.095,53.171-37.572,60.602-76.966c2.698-14.303,8.375-44.395-5.772-57.988c-19.199-18.449-62.972,4.964-134.672,44.282
			c-23.158,12.699-54.321,30.87-97.156,60.097c0,0-51.932,29.83-88.837,63.928c-5.663,5.232-9.705,9.571-11.435,11.461
			c-13.528,14.78-23.476,30.377-28.628,40.587c-14.388,28.514-3.728,38.819-16.503,86.635c-8.794,32.916-13.52,39.054-18.127,43.048
			c-27.074,23.47-76.524-4.206-81.765,8.435c-2.925,7.054,12.855,14.764,13.467,32.684c0.731,21.379-20.974,32.47-17.315,40.064
			c4.087,8.482,36.829,6.403,48.097-12.652c7.983-13.5,0.551-27.679,7.696-33.739c10.003-8.483,31.387,20.47,41.363,14.76
			c17.312-9.908-33.251-101.85-1.924-151.823c21.509-34.311,69.447-29.42,70.222-49.553c0.826-21.47-53.586-29.738-60.602-67.477
			c-3.67-19.737,14.652-35.522,9.619-41.119c-6.635-7.379-31.305,24.035-54.831,16.869c-26.587-8.098-26.619-57.823-50.021-60.097
			c-8.763-0.852-8.008,6.193-31.744,13.706c-16.937,5.361-25.706,4.427-30.782,12.652c-5.178,8.39,0.649,14.704-3.848,21.087
			c-8.287,11.762-30.908-5.654-52.907,6.326c-10.65,5.8-7.151,10.864-23.087,25.304c-21.136,19.153-36.947,18.994-37.516,28.467
			c-0.588,9.798,16.26,11.039,24.049,29.521c7.376,17.503-2.697,28.34,3.848,39.01c11.809,19.253,63.056,14.061,70.222-6.326
			c6.181-17.585-23.637-37.362-16.353-53.771c4.932-11.11,24.426-15.162,37.516-8.435c17.167,8.823,19.737,34.345,21.163,48.499
			c2.302,22.853-3.204,32.039-5.772,53.771c-6.213,52.586,17.865,67.85,11.543,126.52c-1.613,14.965-4.123,38.262-15.391,42.173
			c-14.451,5.016-34.788-24.808-39.44-31.63c-56.44-82.768-26.372-298.464,88.499-389.047c26.575-20.956,25.933-10.175,66.374-39.01
			c88.419-63.045,113.037-129.95,171.226-129.683c18.258,0.084,12.93,6.658,39.44,10.543
			c88.879,13.027,148.604-60.891,220.285-53.771c28.661,2.847,42.325,8.435,42.325,8.435c24.591,10.056,32.757,23.682,47.135,20.032
			c15.006-3.81,22.543-22.825,23.087-24.25c7.785-20.391-4.84-32.882,1.924-50.608c5.153-13.503,15.632-14.49,31.744-26.358
			c22.633-16.671,45.563-46.846,50.021-76.966c5.669-38.302-22.166-51.986-13.467-79.075c11.675-36.354,74.213-50.338,83.689-35.847
			c4.441,6.792-4.038,17.905-23.087,79.075c-5.524,17.74-7.317,24.851-3.848,29.521c8.238,11.09,40.045,0.191,62.526-14.761
			c28.104-18.691,24.237-32.147,51.945-57.988c39.23-36.587,80.387-40.768,78.879-56.934c-0.388-4.155-7.313-10.853-21.163-24.25
			c-6.738-6.517-9.699-8.769-16.353-14.761c-19.497-17.556-29.246-26.333-30.782-33.739c-3.311-15.96,9.665-40.585,30.782-45.336
			c19.752-4.444,40.263,9.931,43.287,25.304c3.239,16.463-14.569,29.018-10.581,36.902c2.935,5.804,16.636,7.007,56.755-6.326
			c11.496-24.046,20.19-44.156,25.972-57.988c20.789-49.734,32.367-86.354,36.554-127.574c3.049-30.016-0.119-39.853-5.772-45.336
			c-15.07-14.62-45.894,3.555-50.983-6.326c-4.849-9.416,23.635-24.965,24.048-51.662c0.397-25.635-25.495-35.31-24.048-54.825
			c2.084-28.111,58.491-44.224,62.526-45.336c88.056-24.276,214.626,60.443,263.572,130.737
			c187.816,269.733-295.525,1039.178-353.032,1012.156c-26.106-12.267,8.933-199.21,37.596-200.323
			c25.141-0.976,66.842,140.177,53.671,232.644c-33.545,235.5-586.411,117.339-831.874,432.202
			c-44.786,57.448-72.159,120.452-74.438,125.612c-16.405,37.142-57.164,139.471-49.811,437.517
			c1.479,59.954,5.292,143.532,15.674,243.719"/>
	</g>
</g>
<g id="&#xC77C;&#xBCF8;&#xC9C0;&#xB3C4;_&#xBE44;&#xD589;&#xAE30;" style="display:none;">
	
		<image style="display:inline;overflow:visible;opacity:0.6;" width="1024" height="597" xlink:href="D18C99739E81CC72.jpg"  transform="matrix(2.7012 0 0 2.7012 182.9818 1532.9524)">
	</image>
	<g id="_x30_ZsZpP_00000023238654529008212850000005801350176451901628_" style="display:inline;opacity:0.5;">
		
			<image style="overflow:visible;" width="1586" height="360" id="_x30_ZsZpP" xlink:href="C9D17EEFDFDAE1A4.jpg"  transform="matrix(0.9251 1.1841 -1.1841 0.9251 411.1743 -448.4679)">
		</image>
	</g>
</g>
<g id="&#xC77C;&#xBCF8;&#xC9C0;&#xB3C4;" style="display:none;">
	<g id="bhsKwO_00000096061159054146489950000004061656773384666026_" style="display:inline;opacity:0.2;">
		
			<image style="overflow:visible;" width="240" height="210" id="bhsKwO" xlink:href="C9D17EEFDFDAE1A5.jpg"  transform="matrix(6.3154 0 0 5.7497 115.2237 1766.545)">
		</image>
	</g>
</g>
<g id="&#xBA54;&#xC778;" style="display:none;">
	<path style="display:inline;fill:#FFFFFF;stroke:#000000;stroke-miterlimit:10;" d="M360.158-478.345
		c-14.361,53.577-9.176,93.072-0.402,120.637C391.473-258.066,494.82-236.632,495.542-154.1c0.047,5.389-0.15,44.626-26.409,67.91
		c-27.837,24.681-61.465,10.603-112.608,17.274c-50.797,6.626-125.496,34.586-143.94,80.819
		c-27.047,67.797,55.068,204.489,170.292,211.649C524.353,232.343,600.921,39.1,584.195,21.221
		c-18.569-19.85-262.434,156.49-243.808,194.237c6.688,13.555,46.692,8.164,69.804,2.023
		C522.435,187.661,562.98,53.37,599.295,65.211c8.916,2.907,4.398,12.691,21.18,41.839c29.588,51.392,54.675,94.966,100.781,129.575
		c30.298,22.743,38.356,18.108,68.787,44.792c34.891,30.594,46.341,63.234,51.19,78.385c7.143,22.319,8.439,42.755,6.435,43.265
		c-2.711,0.691-8.865-23.045-30.332-63.554c-5.475-10.331-8.212-15.496-10.111-18.055c-18.109-24.408-42.565-24.686-81.609-39.721
		c-49.787-19.173-62.011-38.437-74.387-31.055c-12.195,7.275-13.661,37.772-1.444,57.776c9.465,15.498,20.39,13.643,66.672,44.944
		c16.569,11.206,23.759,17.245,29.508,27.111c3.66,6.28,8.395,16.948,9.315,40.649c1.037,26.704-4.279,31.077-6.775,60.973
		c-2.549,30.534,1.426,44.787-5.081,75.369c-1.314,6.175-4.009,17.497-13.549,26.252c-3.227,2.961-11.667,10.706-22.865,9.315
		c-13.12-1.63-19.984-15.42-22.018-19.477c-6.034-12.041-5.055-23.687-4.234-32.18c4.591-47.484,6.384-71.273,8.468-71.135
		c1.816,0.12,1.251,22.549,0.122,67.406c-0.518,20.568-1.189,33.951-11.131,42.684c-0.075,0.066-0.136,0.119-0.155,0.135
		c-10.128,8.743-28.741,10.653-38.075,1.939c-5.473-5.109-6.3-12.512-7.5-23.245c-0.976-8.735-0.284-15.448,0-16.937
		c7.561-39.572,6.229-68.719,7.622-68.594c2.817,0.253,7.977,87.223-16.09,94.847c-7.966,2.523-19.682-3.476-26.081-10.766
		c-5.516-6.284-7.183-13.643-8.082-21.562c-4.027-35.486,10.289-57.01,3.676-61.672c-5.399-3.807-20.489,6.681-28.967,17.823
		c-1.02,1.34-20.127,27.147-8.009,45.387c5.219,7.856,16.926,15.355,25.363,12.014c14.131-5.596,1.781-34.75,15.578-82.172
		c1.4-4.812,3.532-11.403,0.27-16.763c-5.884-9.668-24.862-8.009-41.878-6.522c-20.251,1.77-30.376,2.655-35.185,9.909
		c-8.7,13.125,1.54,38.92,16.937,44.036c2.924,0.971,6.085,1.214,26.925-5.888c34.174-11.647,38.433-16.65,40.715-20.691
		c0.785-1.39,7.556-13.723,2.649-21.691c-12.178-19.773-78.856,18.935-100.775-6.775c-10.618-12.455-10.279-35.371,0-47.424
		c8.295-9.727,20.999-9.861,46.407-10.129c28.485-0.301,46.735-0.494,57.793,12.905c7.65,9.27,12.118,24.564,6.172,35.349
		c-1.492,2.706-6.706,10.698-38.945,15.07c-36.04,4.887-57.18,7.656-71.428-5.772c-3.067-2.891-7.105-21.532-15.055-58.696
		c-2.772-12.957-5.065-24.482,1.425-33.646c0.825-1.166,3.943-5.328,12.783-9.281c10.326-4.616,20.428-5.354,58.085-0.325
		c24.692,3.298,29.43,4.828,33.168,9.552c6.008,7.593,7.385,20.847,1.746,29.681c-3.581,5.609-9.245,8.268-81.145,8.084
		c-9.179-0.023-16.511-0.148-22.019-5.319c-1.813-1.702-8.028-8.271-4.213-40.303c3.406-28.598,5.109-42.898,16.072-49.641
		c6.456-3.971,16.406-2.687,36.307-0.119c22.484,2.902,33.838,4.527,39.284,13.095c4.707,7.405,5.068,18.678,0,26.189
		c-6.382,9.458-20.346,9.635-48.014,9.603c-21.724-0.025-32.72-0.177-39.284-6.984c-8.831-9.157-9.723-25.484-4.365-36.665
		c9.331-19.471,40.195-28.717,60.954-25.443c87.255,13.761,156.183,274.825,202.493,309.561
		c35.205,26.406,46.05,22.902,65.134,30.806c14.556,6.028,20.963,12.473,29.93,18.365c12.926,8.493,41.001,19.58,56.615,19.367
		c42.92-0.586,74.126-77.91,91.046-119.834c23.608-58.497,34.429-117.577,29.089-119.263c-6.539-2.064-19.71,87.49-90.174,186.167
		c-20.481,28.681-29.98,35.975-29.96,52.931c0.05,43.538,62.759,64.752,175,133.696c101.369,62.266,147.616,98.156,188.295,131.643
		c101.248,83.349,116.46,122.285,193.167,123.876c210.754,4.37,352.334-240.54,375.242-282.158
		c13.981-25.401,142.77-265.348,40.724-372.333c-44.066-46.198-120.912-56.844-177.44-40.724
		c-89.073,25.4-130.827,118.15-148.351,157.078c-27.058,60.105-29.682,111.366-37.815,110.536
		c-9.598-0.98-2.007-71.961-26.18-174.531c-12.304-52.208-18.843-78.723-37.815-98.901c-51.84-55.135-164.878-57.529-232.708-5.818
		c-59.026,44.999-68.973,119.653-72.721,151.26c-29.636,249.939,222.71,478.699,285.067,535.228
		c196.918,178.512,394.981,243.587,381.966,279.554c-12.757,35.254-194.113-46.116-355.437,32.582
		c-108.244,52.805-166.31,163.593-199.479,260.967c0,0,0,0,0,0c-0.106,0.109-188.922,194.262-289.184,166.028
		c-5.678-1.599-30.331-8.541-32.848-22.994c-2.255-12.951,15.111-21.325,12.044-32.848c-3.86-14.504-33.87-10.603-38.323-25.183
		c-3.575-11.704,11.258-28.969,25.183-37.228c14.135-8.383,22.386-4.554,27.373-12.044c9.447-14.189-12.29-39.752-6.57-44.892
		c7.526-6.763,48.208,34.732,60.221,26.278c10.958-7.711-15.186-47.66,3.285-72.265c8.546-11.384,17.297-7.035,22.993-17.519
		c11.443-21.061-20.891-44.096-14.234-78.835c1.967-10.263,8.948-29.953,21.899-32.848c22.072-4.934,34.426,44.957,89.784,83.215
		c15.059,10.407,58.415,40.37,93.069,26.278c26.748-10.876,38.254-43.908,42.702-41.607c4.859,2.513-18.774,36.802-6.57,62.411
		c12.188,25.573,51.503,24.424,51.462,33.943c-0.077,17.907-139.18,12.75-158.765,66.791c-8.955,24.71,10.41,52.604,1.095,58.031
		c-9.059,5.279-22.268-24.081-54.746-33.943c-40.583-12.322-61.815,20.811-107.303,7.665c-24.059-6.953-37.497-21.823-41.607-17.519
		c-4.146,4.341,5.049,24.154,20.804,36.133c19.629,14.925,37.194,8.378,40.512,16.424c7.624,18.487-84.343,54.889-82.12,102.923
		c0.689,14.886,9.814,17.708,18.631,35.398c34.87,69.964-36.016,169.964-46.577,184.443
		c-27.491,37.692-85.325,97.925-121.099,83.838c-11.991-4.722-24.327-18.905-22.357-29.809c2.587-14.318,28.713-16.738,27.946-24.22
		c-0.766-7.472-28.04-16.938-44.713-5.589c-10.475,7.13-12.967,19.889-14.904,29.809c-5.249,26.876,6.835,33.171,1.863,50.303
		c-7.951,27.398-45.075,32.722-42.85,48.439c1.399,9.888,16.499,10.648,16.768,18.631c0.53,15.77-57.569,37.666-70.796,22.357
		c-8.228-9.523,4.583-29.19-1.863-33.535c-6.522-4.396-22.622,13.722-42.85,27.946c-41.896,29.46-103.675,43.747-124.825,22.357
		c-11.576-11.707-6.632-29.702-14.904-31.672c-9.743-2.32-17.829,22.351-37.261,44.714c-41.043,47.232-89.421,34.36-102.468,70.796
		c-6.959,19.435-0.839,44.442,11.178,50.303c12.807,6.246,29.996-10.385,37.261-3.726c7.37,6.755-7.969,26.023,0,37.261
		c9.377,13.224,40.585,0.598,44.713,9.315c4.06,8.572-26.579,19.81-37.261,48.44c-12.767,34.218,16.426,57.228,1.863,81.975
		c-10.872,18.476-39.065,25.907-61.481,20.494c-29.597-7.148-51.682-37.309-46.577-55.892c4.321-15.73,26.9-18.709,26.083-31.672
		c-0.685-10.862-16.873-14.087-16.768-26.083c0.087-9.958,11.289-13.04,9.315-20.494c-1.374-5.191-7.339-5.706-24.457-14.549
		c-0.322-0.166-0.91-0.471-1.626-0.355c-4.608,0.744-10.02,14.104-5.589,22.357c2.921,5.441,8.104,4.811,9.392,9.7
		c1.496,5.68-3.704,13.348-7.625,13.17c-4.204-0.191-4.088-9.272-9.704-11.09c-7.695-2.491-14.911,12.291-21.487,10.397
		c-7.252-2.088-1.602-20.963-13.17-37.43c-9.163-13.044-19.873-11.398-20.794-18.022c-2.779-19.979,93.059-46.57,102.585-49.213
		c48.947-13.581,64.135-10.188,70.7-8.318c19.32,5.504,29.301,16.434,41.749,12.374c0.592-0.193,1.496-0.558,2.557-1.082
		c15.797-7.803,15.214-29.689,20.788-40.938c14.36-28.979,87.701-23.918,135.397-9.338c21.356,6.528,54.769,16.742,56.026,35.016
		c1.003,14.568-18.682,30.601-37.351,35.017c-20.719,4.901-26.535-7.736-44.354-4.669c-34.983,6.021-38.34,59.163-67.698,60.695
		c-15.968,0.833-33.348-13.929-32.682-23.344c0.446-6.305,8.91-9.14,7.858-13.493c-1.757-7.268-26.698-4.942-27.474-9.653
		c-0.698-4.234,19.576-5.319,34.9-20.049c16.702-16.054,17.275-38.466,23.761-37.87c4.811,0.442,3.911,12.716,11.881,17.078
		c4.634,2.537,14.209,3.461,36.385-13.366c35.487-26.927,33.008-46.02,54.948-59.403c33.702-20.559,86.432-4.107,89.342,11.405
		c2.095,11.164-22.615,16.514-24.712,36.117c-2.089,19.53,19.285,43.688,41.82,47.522c33.865,5.762,73.156-33.895,81.739-72.234
		c6.643-29.673-6.125-54.015,5.703-60.829c7.713-4.443,22.085,0.755,26.613,9.504c5.164,9.979-5.626,18.5-1.901,26.613
		c6.777,14.759,57.179,18.556,91.243-5.703c24.454-17.415,30.737-42.344,41.82-39.919c12.151,2.658,13.811,34.638,19.009,34.216
		c6.208-0.504-0.028-45.807,19.009-55.126c11.996-5.873,29.188,4.914,30.414,5.703c14.274,9.186,12.683,20.658,20.91,22.811
		c15.217,3.981,46.592-28.489,49.424-64.631c1.815-23.175-9.714-27.336-7.604-53.225c2.276-27.928,16.239-29.785,19.009-53.225
		c4.961-41.984-35.878-69.473-24.712-85.54c9.15-13.166,40.167,0.117,47.523-13.306c6.264-11.431-14.339-24.515-11.405-45.622
		c3.013-21.681,27.157-25.173,32.315-41.82c9.28-29.948-50.592-77.619-76.036-91.243
		c-117.721-63.037-424.641,127.43-571.125,368.145c-231.798,380.911-168.688,818.132-130.965,974.467"/>
</g>
<g id="&#xC190;" style="display:none;">
	<path style="display:inline;fill:#FFFFFF;" d="M311.166-482.657c0.022,57.751,13.793,98.649,26.482,125.439
		c42.325,89.359,119.669,121.108,149.734,244.146c0.025,0.101,0.041,0.169,0.121,0.498
		C517.084,8.596,666.908,142.36,718.277,138.243c69.037-5.533,115.735-261.133,92.248-270.106
		c-25.392-9.701-167.274,255.696-133.985,281.458c11.953,9.251,45.546-13.131,63.627-28.781
		C827.978,44.807,805.55-93.667,843.38-98.943c9.289-1.295,9.516,9.479,37.377,28.32c49.122,33.22,90.772,61.386,147.383,72.282
		c37.201,7.16,42.413-0.539,81.461,10.104c44.771,12.203,69.371,36.52,80.371,48.012c16.204,16.928,26.328,34.728,24.75,36.066
		c-2.134,1.809-18.07-16.827-55.123-43.825c-9.449-6.885-14.174-10.328-17.002-11.795c-26.976-13.999-49.079-3.528-90.762,0.074
		c-53.153,4.593-72.585-7.363-80.472,4.697c-7.772,11.885,4.279,39.938,24.029,52.562c15.301,9.78,24.307,3.323,79.626,11.169
		c19.805,2.809,28.915,5.084,38.407,11.432c6.042,4.04,14.975,11.552,26.192,32.451c12.638,23.547,9.777,29.808,20.64,57.772
		c11.094,28.561,20.915,39.629,28.473,69.969c1.526,6.125,4.067,17.483-0.67,29.535c-1.602,4.076-5.792,14.737-16.467,18.396
		c-12.506,4.286-24.722-5.098-28.328-7.854c-10.702-8.177-14.927-19.074-17.912-27.067c-16.69-44.691-25.506-66.859-23.572-67.648
		c1.685-0.688,11.009,19.718,29.658,60.531c8.551,18.713,13.814,31.036,8.707,43.243c-0.038,0.092-0.07,0.167-0.08,0.189
		c-5.27,12.298-21.162,22.174-33.372,18.434c-7.159-2.193-11.148-8.484-16.931-17.605c-4.707-7.423-7.028-13.76-7.425-15.223
		c-10.551-38.881-24.526-64.495-23.22-64.993c2.643-1.008,45.406,74.899,27.116,92.301c-6.053,5.76-19.214,5.504-28.161,1.757
		c-7.713-3.23-12.437-9.113-16.716-15.837c-19.176-30.129-15.744-55.75-23.731-57.042c-6.521-1.055-15.486,14.986-18.222,28.718
		c-0.329,1.652-6.189,33.222,12.697,44.304c8.135,4.773,21.945,6.381,28.063-0.32c10.247-11.224-13.633-32.013-22.021-80.685
		c-0.851-4.939-1.824-11.798-7.106-15.185c-9.527-6.11-25.857,3.7-40.499,12.497c-17.426,10.468-26.138,15.703-27.28,24.33
		c-2.066,15.611,18.446,34.306,34.527,32.155c3.054-0.408,6.001-1.576,21.618-17.095c25.609-25.449,27.244-31.812,27.524-36.445
		c0.096-1.594,0.776-15.646-7.128-20.656c-19.614-12.433-62.575,51.586-93.546,38.088c-15.004-6.54-24.744-27.285-20.789-42.624
		c3.192-12.379,14.551-18.068,37.27-29.448c25.47-12.758,41.789-20.931,57.602-13.736c10.94,4.978,21.66,16.766,21.044,29.066
		c-0.155,3.085-1.337,12.555-28.397,30.617c-30.25,20.192-48.037,31.947-66.729,26.124c-4.024-1.254-15.825-16.238-39.262-46.156
		c-8.171-10.43-15.285-19.784-13.469-30.865c0.231-1.409,1.208-6.518,7.421-13.945c7.257-8.675,16.014-13.768,52.064-25.755
		c23.639-7.86,28.568-8.562,33.999-5.955c8.728,4.191,15.777,15.5,14.581,25.912c-0.759,6.611-4.685,11.484-69.389,42.837
		c-8.261,4.003-14.905,7.105-22.122,4.871c-2.375-0.735-10.841-3.915-21.454-34.377c-9.475-27.197-14.213-40.796-7.316-51.662
		c4.062-6.399,13.568-9.607,32.581-16.023c21.481-7.249,32.398-10.765,41.049-5.452c7.477,4.592,12.743,14.566,11.481,23.539
		c-1.59,11.299-14.063,17.579-38.945,29.679c-19.537,9.5-29.486,14.184-38.37,10.944c-11.951-4.359-19.91-18.643-19.996-31.041
		c-0.149-21.591,23.539-43.431,43.632-49.589c84.457-25.882,260.852,178.545,317.702,189.465
		c43.218,8.301,51.429,0.398,72.046-0.864c15.725-0.963,24.31,2.021,34.952,3.385c15.341,1.967,45.434-0.375,59.375-7.411
		c38.32-19.342,32.471-102.52,29.3-147.618c-4.425-62.926-20.597-120.771-26.137-119.945c-6.782,1.011,20.638,87.276,0.562,206.855
		c-5.835,34.756-11.175,45.476-3.725,60.708c19.131,39.11,84.793,30.687,215.897,43.45c81.044,7.89,133.462,15.994,174.903,24.256
		c21.756,4.337,44.654-1.307,52.043,11.521c12.34,21.422-20.533,76.695-54.903,76.875c-21.583,0.113-43.958-21.497-48.488-39.397
		c-9.659-38.164,49.672-107.38,324.266-242.442"/>
</g>
<g id="&#xC6D0;&#xBCF8;" style="display:none;">
	<path style="display:inline;" d="M373.5-50.5v137c0,2.39,0,6.67,0,12c-0.25,125.14,33.43,179,10,210
		c-27.91,36.94-132.17,36.74-164-17.5c-26.51-45.17,5.68-113.38,48-143c81.56-57.07,231.86,7.43,263,92c16.31,44.3-10.53,65.7,9,103
		c37.42,71.44,190.41,96.95,256,37c49.9-45.61,25.85-119.31,61-131c53.66-17.85,123,149.52,207,135c42.22-7.3,58.11-55.39,123-59
		c16.83-0.94,47.93,0.51,50,10c3.29,15.06-64,61.89-102,37c-25.93-17-31.56-63-21-70c7-4.61,25.39,5.11,25,11
		c-0.19,2.82-4.76,5.83-8,5c-10.29-2.64-15.87-46.28-2-55c17.47-11,68.32,31.83,64,41c-2.06,4.38-18.07,4-21-2
		c-6.41-13.09,40.87-70.91,77-57c32.49,12.5,36.72,75.6,25,82c-4.83,2.64-15.13-2.86-16-9c-2.33-16.34,59.5-54.84,85-34
		c22.41,18.32,7.59,75-2,76c-5.62,0.59-13.89-17.45-11-20c4.21-3.72,36,22.17,33,28s-37.12-17.8-81-10c-11.32,2-37.76,6.71-49,27
		c-18.9,34.12,21.48,82.93,28,88c0.12,0.09,1.08,0.84,2.4,1.9c5.43,4.35,9.66,8.25,12.6,11.1c0.63,0.61,2.33,2.27,4.49,4.51
		c0,0,4.52,4.68,8.45,9.35c15.38,18.23,8.06,62.14,8.06,62.14c-11.66,70-17.49,105-39,115c-27,12.56-68.22-2.28-72-19
		c-1.55-6.84,3.08-14.42,8-18c10.85-7.9,29.56-1.07,40,7c6.1,4.71,10.28,10.55,11,10c1-0.73-8.63-9.41-9-21
		c-0.38-12.1,9.4-24.4,21-29c3-1.19,10.9-4.32,18-1c7.75,3.63,8,11.89,12,12c6.16,0.17,5.62-19.77,19-32c11.11-10.16,30.73-14,43-7
		c11.44,6.51,14.39,21.2,20,20c3.89-0.83,3.1-8,9-11c5.5-2.79,12.87,0.06,17,3c8.72,6.2,11.26,18.69,10,28
		c-1.42,10.53-7.52,15.72-5,19c3.1,4,13-2.94,19,2c4.89,4,5.23,14.57,1,20c-2.71,3.49-7.38,5-7,6s4.07-0.69,6,1
		c2.49,2.17,1.4,9.3-2,13c-6.07,6.61-20.11,2.94-24,2c-36.29-8.76-74.68,2-112,1c-71.24-1.84-106.86-2.76-116,2
		c-39.84,20.76-63.09,73.57-70,109c-4.24,21.76-5.63,53.88-29.32,88.38c-2.91,4.441-6.145,8.659-9.68,12.62
		c-37.2,40.76-114.53,47.58-133,21c-8-11.52-5.68-30.38,3-42c6.71-9,19.75-17.06,31-14c16.08,4.37,22,29.78,24,29
		c2.24-0.88-14.12-30.19-4-56c1.52-3.89,5.53-14.11,15-18c15.83-6.5,38.4,8.21,46,25c3.55,7.84,3.8,16,4,16s-5.19-17.12-3-34
		c2.77-21.33,18.45-47.46,35-48c26-0.85,49.29,61.47,52,60c0.88-0.48-2.94-6.23-3-14c-0.12-14.86,13.52-31.88,29-35
		c22.09-4.45,46,19.82,49,42c4.32,31.47-33.47,57.33-52,70c-7.28,5-31.54,20.7-69,27c-47.57,8-96.13-2.59-96-9
		c0.18-8.94,95.39-24.43,192-4c58.65,12.4,102.54,21.69,130,61c41.53,59.45,15.77,145.06,5,151c-0.66,0.36-1.37,0.71-1.37,0.71
		c-10.51,5.18-21,3.62-23.63,3.29c-25.15-3.14-50.66,2.22-76,2c-69.79-0.61-90.85,12.07-101-2c-9.47-13.12-1.4-38.35,4-39
		c4.34-0.52,9.9,14.51,11,14c0.94-0.43-5.72-10.2-3-19c3.66-11.84,23.28-18.58,28-14c2.64,2.57,0.94,9,1,9s-1.73-9.6,3-15
		c4.53-5.17,14.48-5.82,20-2c2.36,1.63,4.44,4.44,4,5s-3.51-0.9-5-2c-6.7-5-8.88-23,1-33s28-8.15,35,0c4.32,5,5.28,13.35,4,14
		c-0.93,0.47-3.73-2.73-4-3.06c-0.773-0.903-1.443-1.889-2-2.94c-2.14-4.35,5.65-29.75,20-31c15.78-1.38,29.89,27.27,28,29
		c-0.92,0.84-6.79-3.58-10-7c-15.86-16.9-11.64-57.34,11-81c4-4.22,24.09-25.18,51-20c24.67,4.75,40.43,28.65,38,32
		c-1.79,2.46-16.71-1.65-22-11c-11.07-19.55,16.8-67.5,47-71c43.25-5,88.13,81.49,78,92c-3.74,3.88-17.38-0.13-21-8
		c-7.68-16.69,25.39-60.14,55-59c39,1.5,70.35,80.14,64,85c-2.82,2.16-16.9-7.35-17-17c-0.11-11,17.9-24,31-21
		c17.34,4,24.33,35.62,23,57c-1.91,30.69-22.15,59.13-29,57c-5.69-1.77-7.54-26.28,3-34c13.09-9.58,44.62,7.21,45,22
		c0.23,9.2-11.57,18.54-14,17c-3.85-2.44,5.82-38.48,24-43c24-6,58.6,44,52,53c-2.59,3.53-12.71,2.34-15-2
		c-4.18-7.91,15.64-30.12,25-27c7.66,2.55,5.56,21.12,14,23c3.81,0.85,5.65-2.61,11-4c12.94-3.35,30.91,9.44,30,16
		c-1.07,7.71-28.65,9.8-74,12c-155.74,7.56-233.61,11.33-287,9c-57.25-2.5-79.29-5.68-86,7c-17.25,32.61,89.67,127.21,105,138
		c4.09,2.88,7.94,6.08,12,9c11.12,8,16.1,10.64,19,17c1.369,3.154,2.051,6.562,2,10c0.67,33.1-22.55,88.85-17,133
		c0.75,6,3.24,21.35-1,23c-2.46,1-6.13-3.09-7-4c-14.67-15.43-76-28-126-41c-61.56-16-70.7-23.43-97-19
		c-25.1,4.22-46.89,16.07-46,20c0.59,2.58,10.87,1.18,33,6c4.3,0.94,16.18,3.52,16,5s-12.28,1.86-23,1c-14.51-1.16-18.46-4-25-1
		c-5.124,2.369-9.085,6.69-11,12c0,0-3.68,10.75,7,28l3,4.77c0.68,1,1.3,1.77,1.72,2.29c1.18,1.43,1.69,1.82,2.77,3.25
		c0.23,0.31,0.73,1,1.29,1.89c0.67,1.07,0.92,1.63,1.66,3c0,0.07,0.83,1.54,1.59,2.8c1.62,2.69,2.42,4,3,4c1.35-0.07,3.18-4.83,2-9
		c-1-3.71-4.17-5.87-6-7c-15.75-9.77-42.93-10.12-53-11c-1.375-0.086-2.744-0.253-4.1-0.5c0,0,0.32,0,0.32-0.06
		c0-0.27-13.22-1.44-13.22-1.44c-58.25-5.14-155-16.28-156-10c-0.19,1.15,2.86,2.83,12,6c66,22.88,166.24,25.32,178,24
		c0,0,7.42-0.83,11,2l1.69,1.35l3.31,2.65c1.92,1.52,3.44,2.66,4.15,3.19c2.15,1.61,3.48,2.54,3.85,2.81c3.73,2.77,6.63,11.14,5,19
		c-1.144,5.104-3.959,9.679-8,13c-11.22,9.34-29.12,6.55-30,3c-0.41-1.65,2.73-4.1,9-9c4.37-3.41,5.74-3.76,7-6
		c2.93-5.22,0.14-11.68,0-12c-3.29-7.34-13.4-12.51-22-9c-5.09,2.08-10,7.33-10,14c0,7.45,6,14.74,13,15c7.86,0.28,12.64-8.34,13-9
		c1.12-2.179,1.799-4.558,2-7c0.42-3.44,1.24-10.13-3-15s-11.56-5.7-17-4c-8.15,2.55-11.08,10.5-12,13c-3.29,9,0.07,16.89,1,19
		c3.82,8.64,11,12.49,14,14c9,4.59,17.41,3.63,23,3c6.89-0.78,14.15-1.6,20-7c3.76-3.47,6.17-8.31,11-18c3.14-6.31,3.18-7.45,5-9
		c5.77-4.91,15.39-1.94,23,0c29.08,7.41,46.28,4.19,63.07,10.45c6.62,2.529,12.963,5.729,18.93,9.55l0,0
		c3.64,2.42,25.9,15.84,51.63,10.76c0,0,27.39-5.41,31.37-2.76l0,0c0.241,0.153,0.495,0.284,0.76,0.39
		c0.88,0.33,7.24-1.39,7.24-1.39c1.87-0.51,3.76-0.88,4-1.93c0,0,0,0,0-0.07c0-0.4-0.27-1.34-5-3c-9-3.17-23-5-23-5
		c-4.39-0.58-6-0.73-6-1c0-0.82,15-1,17-1c7.49-0.08,11.28-0.09,13,1c2.07,1.32,4.39,3.84,10,7l0.72,0.4c4.4,2.38,12.9,7,17.28,2.6
		l0,0c5.76-5.76,13.07-9.5,16-14c3.08-4.72,2.24-11.66,0-16c-5.55-10.75-24.28-14.41-33-6c-4,3.85-6.81,11.12-4,18
		c2.521,6.057,8.439,10.003,15,10c10.7-0.22,15.42-12.49,16-14c2.58-6.72,2.91-17.11-3-22c-1.7-1.41-5.13-3.36-20-1
		c-16.13,2.56-17.27,5.69-31,8c-10,1.68-20.3,1.88-31-1c-2-0.55-11.22-3-11-5c0.26-2.34,13.48-3,36-4c17.77-0.8,25.53-0.68,26-3
		c0.09-0.45,0.25-2.62-12-8c-17.38-7.63-29.76-8.55-47-12c-17.86-3.57-13.16-4.31-35-9c-12.81-2.75-25-8.65-38-10
		c-2.78-0.29-8.89-0.8-10-4c-1.18-3.38,3.87-8,5-9c13.69-12.45,53.44,6.65,110,11c12.17,0.94,28.73,1.47,41-9
		c5.44-4.64,8.14-9.82,11-16c14.68-31.72,15.52-50.84,26-76c6-14.52,17.54-36.41,22-35c7.55,2.38-4.4,71.54-11,123
		c-0.1,0.81-2.21,17.49-1.29,23.54c0.3,1.844,0.374,3.718,0.22,5.58c-0.17,1.65-0.481,3.283-0.93,4.88c-0.64,2.8-2,8.82,0,11
		c2.44,2.63,9.73-0.47,11-1c33.21-13.8,166.06-19,215-19l0,0c100.93,0,81.22-1.75,95-1c12,0.65,17.93,1,18,2
		c0.29,4-82.59,13.61-141,19c-73,6.73-109.43,10.1-149,12c0,0-68.13,3.27-68,7c0,1.11,11.88-0.61,20,7c5.83,5.46,9.76,15.75,6,24
		c-4.17,9.15-15.68,11.1-21,12c-3.21,0.54-7.19,0.37-15,0c-14.59-0.69-20.75-2-21-1c-0.31,1.21,9.21,5.18,19,8
		c14.615,4.169,29.826,5.859,45,5c9.58-0.51,16-0.91,24-4c6.823-2.747,13.22-6.451,19-11c8.77-6.77,7.88-8.84,13-11
		c11.14-4.7,23.45,1.68,26,3c5.505,2.903,10.289,7.004,14,12c22,28.94,20,59.46,36,66c15.7,6.4,30.81-17.48,46-10
		c14.5,7.13,10.2,33.51,21,36s18.43-23,34-25c17.27-2.18,22,31.58,50,54c30.72,24.57,55.87,10.24,77,25
		c50.26,35.11,46,212.58-55,269c-75.44,42.14-189.43,8.13-195-28c-6-38.94,109.81-107,144-81c37.75,28.73,1.59,191.66-98,253
		c-61.58,37.94-101.25,8.58-295-7c-213.88-17.2-365.84,2.47-427,12c0,0-34.42-1-177,39c-2.25,0.63-12.94,3.72-13,8
		c0,2.9,4.84,3.62,10,9c5,5.18,3.61,7.81,9,18c6.29,11.9,9.63,11.11,11,18c1.61,8.06-2.6,10.87-2,19c0.84,11.36,8.6,21.84,12,21
		c2.73-0.68,2.92-8.74,3-14c0.55-34.44-16.6-74.29-21-73c-2.78,0.82-2.18,18.62,7,29c0.43,0.49,8.1,9,14,7c3-1,3.84-4.24,6-4
		c2.81,0.31,2.13,5.83,6,10c4.19,4.52,8.75,2.11,22,7c4.49,1.66,6.74,2.48,8,4c3.9,4.68,0.71,10.16,5,17c0.71,1.13,3.38,5.39,6,5
		c4.6-0.68,5.37-15.14,7-15c0.79,0.07,1.08,3.49,2,12c1.22,11.28,1.67,14.05,4,16c3,2.54,6.73,1.58,7,3c0.53,2.76-13.43,6.35-13,10
		c0.22,1.86,3.91,1.66,9,6c2,1.68,4,3.4,5,6c2.16,5.54-2.78,8.59-2,14c1.22,8.52,14.58,8.59,16,17c1,5.82-5,8.24-4,16
		c0.78,5.94,4.89,9,4,10c-1.21,1.31-9.75-3.31-17-10c-9.88-9.13-12.44-17.58-19-31c-8.32-17-20.18-41.25-30-40
		c-5.73,0.73-9.09,9.92-10,15c-2.69,15.07,9.85,29.95,22,36c9.74,4.86,21.12,5,21,6c-0.1,0.88-8.39-0.09-9,2
		c-0.91,3.11,16.47,8.41,16,15c-0.29,4.09-7.22,5.23-7,9c0.21,3.61,6.56,2.95,11,9c3.54,4.83,1.88,8.48,7,16c2.43,3.57,3.6,3.91,4,4
		c5.42,1.25,10.29-10.2,14-9c2.76,0.89,3,8.18,2,13c-0.17,0.85-2,9.59-6,10s-6.55-7.55-8-7c-2.25,0.85,0.77,21.21,7,22
		c3.73,0.47,7.81-6.17,8-6s-5.75,4.85-7,12c-0.612,3.031-0.262,6.177,1,9c3.17,6.52,10,5.56,11,10c0.89,4-4.43,6-8,15
		c-0.728,2.125-1.737,4.143-3,6c-1.89,2.69-3,3-3,4c0,3.87,15.22,6.68,15,8s-14.92-2.73-19,3c-2.24,3.14,0.64,6.51,1,14
		c0.43,9.08-3.24,16-7,23c-2.73,5.1-7.77,14.55-18,21c-13,8.21-20.83,3-28,11c-6.14,6.84-6.48,17.43-4,25
		c3.46,10.55,13.91,19.74,21,18c4.34-1.06,4.68-5.55,9-6c4.91-0.52,8.09,4.89,14,10c8.93,7.72,15.09,7,22,11c15.15,8.83,25,35,19,54
		c-0.89,2.82-10.27,16.25-29,43c-3,4.23-7.16,10.22-5,14c2,3.45,8.94,4.6,12,2s0.76-8.07,4-10c2-1.19,5.19-0.5,6,1
		c0.89,1.65-0.92,4.61-3,8c-1.49,2.43-2.33,3.2-2,4c0.72,1.75,6,1.12,7,1c8.45-1,12.25-5.41,14-4s-1.9,5.8,0,12c0.31,1,1.32,4.3,4,6
		c5.5,3.48,14.48-2,16-3c10.33-6.57,9.36-15.28,19-19c4.94-1.9,6,0.06,9-2c7.75-5.37-0.15-18.38,7-29c6.62-9.83,17.49-4.81,23-15
		c4.32-8,0.67-16.74,7-21c2.08-1.4,2.89-0.74,6-2c8.78-3.56,12.79-13.11,14-16c5.53-13.16-1.12-18.51,5-27c4-5.51,9.51-7.06,9-11
		c-0.17-1.31-0.86-1.78-6-7c-5.91-6-6.55-7-7-8c-1.86-4.27-0.2-8.83,1-12c3.28-8.64,12.82-22.06,27-24l0,0c0,0.08,15.15,0.49,29,7
		c4.69,2.2,9,4.24,9,7c0,4.61-12.24,8.3-13,7c-0.92-1.58,16.67-7.88,18-20c1-9.41-8.73-13.29-7-22c1.46-7.35,8.86-6.81,16-16
		c6-7.74,3.34-11.43,9-35c4.76-19.83,8.4-24.48,5-29c-4.33-5.75-15.25-4.91-27-4c-9.37,0.72-14,1.08-19,4
		c-13.15,7.74-11.56,22.85-21,25c-1.1,0.25-3.13,0.5-15-6c-18.56-10.17-20-14.31-31-18c-5.55-1.87-10.8-2.7-19-4
		c-13.41-2.13-14.15-0.79-18-3c-11.44-6.56-13.8-23.42-14-25s-0.23-2.49-0.29-3.94c-0.58-13.47,3.3-18.62,4.29-29.06
		c0.63-6.6,1.68-17.66-5-23c-4.48-3.58-11.91-4.16-16-1c-4.65,3.59-1.12,14.6,3,29c2.24,7.83,3.87,11.21,2,15
		c-2.6,5.28-10.48,8.3-14,6c-2.79-1.82-0.8-5.65-4-12c-1.914-3.593-4.656-6.678-8-9c-2.89-2.19-5.07-3-16-7s-10.8-4-11-4
		c-13.23,2.34,11,80.34-24,126c-21.32,27.85-48.58,22.68-53,45c-5.34,27,33.63,38.79,34,80c0.16,18.1-7.29,22.79-8,55
		c-0.33,14.78-0.83,37.59,7,40c7.56,2.32,23.17-14.28,20-23c-4.19-11.52-42.64-13.38-53,1c-3.07,4.27-8,15.92-8,16l-18-24
		c-7.9,0.35-16.53-0.57-20-6c-5.92-9.25,7.72-24.4,3-29c-4.11-4-18.93,3.11-28,12c-5.776,5.426-9.931,12.35-12,20
		c-3.22,12.7,2.77,16.44,0,25c-4.59,14.16-23,10.17-36,26c-4.5,5.49-4.39,8.55-11,41c-5.79,28.42-8.73,42.7-11,46
		c-13.19,19.2-29.78,8.37-59,31c-19.48,15.08-16.82,23.55-38,36c-10.59,6.22-18.13,8.15-28,18c-10.26,10.24-9.33,15.36-17,19
		c-14.14,6.71-25.18-6.95-36,0c-6.74,4.33-4.49,10.92-15,26c-3.316,4.618-6.994,8.965-11,13c-18.28,19.12-34.18,28.24-43,37
		c-29.3,29.07-16.88,90.08-19,90c-1.11,0-0.53-16.57-9-25c-0.725-0.689-1.394-1.434-2-2.23c-5.36-7.06-4.63-17.37-3-17.77
		c3.43-0.84,6.16,42.1,31,52c0.6,0.24,15.44,5.92,26-1c7.88-5.16,7.89-13.74,13-14c0,0,3.63-0.19,17,20
		c5.6,5.556,12.462,9.674,20,12c8.66,2.56,11.82,0.58,23,3c13.72,3,14.05,7,23,8c14.22,1.52,26.18-7.4,31-11
		c13.21-9.85,9.37-15.57,25-29c7.39-6.68,15.839-12.087,25-16c11.63-4.84,14.8-3,18-7c8.72-10.91-9.07-31.73-1-41
		c5.34-6.13,15,0.8,25-6c8.58-5.86,10.23-17,12-29c0,0,1.7-11.47-2-47c26.75,3.46,38.9-2.52,45-9c1.65-1.75,2.68-3.35,14-20
		c6.08-17,10.6-22.31,14-22c8,0.73,13.93,32.78,14,33c21.23,0.39,28.28-3.54,30-8c4.39-11.36-22-36-22-36l17-32
		c18.44-10.3,25.28-21.42,28-30c4.06-12.81-0.22-22.61,8-32c5.22-6,8.85-4.18,18-12c2.3-2,16.62-14.2,14-22s-20.8-8.52-28-8
		c-44.69,3.24-76.36,88.3-90,126c-39.22,108.39-13.24,124.05-48,184c-2.83,4.89-53.94,90.28-142,107c-32,6.08-78.4,4.86-84-11
		c-2.32-6.56,2.75-14.48,0-16c-3.53-1.95-16.46,8.62-18,22c-0.21,1.82-1.23,10.67,4,15c5.63,4.66,13.17-0.11,17,2
		c6.68,3.67,3,28.83-23,97"/>
</g>
<g id="&#xB808;&#xC774;&#xC5B4;_9" style="display:none;">
	<g id="_x33_a2LTZ_00000115496244867921100820000000128947276773123722_" style="display:inline;opacity:0.4;">
		
			<image style="overflow:visible;" width="258" height="195" id="_x33_a2LTZ" xlink:href="C9D17EEFDFDAE1A2.jpg"  transform="matrix(5.2803 0 0 5.2803 437.8092 491.2787)">
		</image>
	</g>
</g>
<g id="&#xBA54;&#xC778;_&#xBCF5;&#xBD99;" style="display:none;">
	<path style="display:inline;fill:none;stroke:#000000;stroke-miterlimit:10;" d="M388.704-202.978
		c-0.035,31.538,0.183,67.476,0.846,109.622c0.281,17.875,0.641,30.707,8.626,44.286C414.03-22.105,442.97-21.061,442.668-7.89
		c-0.339,14.805-37.309,31.828-49.226,21.773c-6.499-5.484-7.605-20.823-0.947-26.979c17.071-15.783,72.575,40.451,155.119,67.342
		c69.216,22.549,114.647,13.33,159.578,11.677c180.007-6.624,377.14,185.781,339.861,275.478
		c-25.631,61.671-169.322,55.193-373.563,45.984c-113.193-5.104-239.498-10.798-250.255-56.465
		c-3.724-15.81,5.755-44.082,14.606-44.837c6.35-0.542,9.615,13.309,17.391,13.07c8.766-0.27,10.513-18.056,23.219-34.055
		c11.397-14.351,29.562-24.682,47.232-26.758c34.298-4.029,69.416,22.579,67.315,34.498c-0.924,5.24-10.572,9.914-16.642,7.363
		c-18.938-7.96-22.523-92.869,15.422-112.363c29.444-15.126,92.514,28.421,90.287,60.517c-1.201,17.304-21.425,31.924-24.191,29.814
		c-7.068-5.393,64.832-146.845,114.566-138.801c35.02,5.664,61.255,85.809,46.302,98.055c-7.261,5.947-27.78-1.216-30.88-12.131
		c-7.432-26.166,78.803-96.549,128.183-77.388c53.8,20.875,67.365,149.403,15.569,202.392
		c-45.209,46.25-142.322,37.115-145.955,20.407c-6.371-29.303,259.55-116.701,454.759-43.466
		c22.651,8.498,103.081,40.005,144.01,120.656c5.507,10.851,48.439,95.45,11.677,144.01
		c-17.905,23.651-75.901,22.229-191.895,19.386c-5.31-0.13-16.797-0.57-24.399-8.519c-16.886-17.657-3.679-60.953,6.61-61.689
		c8.818-0.631,16.996,29.893,20.556,28.709c3.441-1.144-8.785-28.133,1.383-55.332c5.338-14.277,16.33-27.234,21.695-25.511
		c5.89,1.892,4.725,21.388,5.971,21.361c1.297-0.028-3.071-21.054,7.424-33.72c7.988-9.641,25.849-15.959,40.093-7.73
		c16.576,9.577,17.917,32.886,14.731,34.533c-2.242,1.159-10.344-6.539-12.45-15.216c-4.513-18.595,17.779-44.683,40.115-44.265
		c23.321,0.436,41.434,29.668,38.732,33.199c-1.11,1.45-9.339-1.835-13.833-6.917c-16.08-18.185,3.807-72.532,39.417-103.152
		c9.186-7.899,47.047-40.455,88.638-27.084c42.721,13.734,53.792,64.484,57.328,80.69c0.959,4.398,8.999,41.252-3.16,47.343
		c-9.284,4.651-30.507-8.553-34.47-24.622c-7.668-31.09,45.618-87.76,93.563-83.714c66.511,5.612,103.399,126.436,81.252,147.73
		c-7.778,7.479-26.416,6.121-36.933-2.462c-9.166-7.481-14.931-22.711-9.849-32.008c12.154-22.236,91.428-19.822,115.722,17.235
		c14.515,22.14,4.942,49.841,17.235,54.168c13.172,4.636,27.268-26.071,48.128-23.055c13.416,1.939,27.227,17.479,26.876,31.355
		c-0.751,29.631-66.054,50.544-123.629,68.981c-47.391,15.177-81.519,26.105-131.695,31.149
		c-126.029,12.669-168.289-30.388-276.569-6.356c-18.882,4.191-41.268,13.458-86.415,31.039
		c-211.943,82.535-312.337,161.841-388.12,128.122c-10.017-4.457-26.089-13.774-53.313-21.103
		c-48.301-13.004-57.917,0.116-92.187-12.218c-5.077-1.827-16.889-6.442-26.656-1.111c-8.278,4.518-10.97,13.933-11.107,14.439
		c-2.925,10.808,3.799,20.702,42.206,65.531c18.423,21.503,27.818,31.998,39.985,44.427c13.886,14.185,20.828,21.278,24.435,23.324
		c17.948,10.185,30.601-4.115,90.15-16.037c6.299-1.261,10.761-2.042,16.475-5.066c17.658-9.343,33.821-32.977,27.767-51.092
		c-2.943-8.805-18.668-16.007-50.119-30.411c-7.06-3.233-10.173-4.415-14.473-4.245c-17.846,0.704-38.292,23.982-34.258,44.653
		c3.447,17.662,23.197,25.385,35.418,30.163c7.172,2.804,32.996,12.902,48.702,1.155c4.514-3.376,9.394-10.369,19.154-24.354
		c5.81-8.326,8.267-12.762,13.348-13.628c4.767-0.813,7.728,2.22,17.493,7.313c7.741,4.038,9.537,4.039,19.159,8.236
		c122.299,53.343,227.238,98.947,225.469,147.721c-0.749,20.636-21.562,62.868-14.439,73.305c0.73,1.069,1.567,2.032,1.567,2.032
		c4.002,3.899,12.904,4.329,63.963,27.956c8.231,3.809,15.752,7.309,23.324,4.443c14.728-5.575,22.498-32.523,13.328-45.538
		c-4.451-6.318-11.029-6.706-24.435-9.996c-46.163-11.329-59.189-29.056-71.084-21.103c-12.234,8.18-6.881,32.565-16.66,34.431
		c-2.928,0.559-4.351-1.448-17.723-7.282c-5.068-2.211-9.298-3.858-12.11-4.914c0,0-218.253-88.089-311.147-127.75
		c-1.433-0.612-8.966-3.876-17.771-9.996c-8.535-5.932-13.513-9.243-15.55-14.439c-6.395-16.313,9.252-38.519,25.546-42.206
		c3.423-0.774,8.378-1.072,37.763,12.218c13.237,5.986,19.855,8.979,27.767,13.328c71.839,39.486,189.969,62.357,275.45,123.286
		c4.385,3.126,13.856,9.839,27.767,12.218c47.021,8.038,99.699-41.821,93.617-66.228c-2.095-8.407-11.879-16.671-21.248-16.852
		c-5.383-0.104-12.984,2.414-15.387,8.792c-2.734,7.258,2.216,16.98,10.258,19.05c8.545,2.2,16.281-5.346,18.318-11.723
		c2.228-6.977-3.372-9.41-2.931-19.05c0.568-12.412,10.208-16.195,8.06-24.912c-1.723-6.989-8.467-6.777-8.792-11.723
		c-0.559-8.492,19.093-12.537,41.764-30.041c6.475-4.999,7.281-6.529,15.387-12.456c8.168-5.972,11.117-7.173,10.991-9.525
		c-0.256-4.756-12.836-9.475-24.179-8.792c-1.65,0.099-5.16,0.426-19.783,5.862c-7.673,2.852-11.509,4.278-18.318,7.327
		c-33.433,14.973-64.81,29.024-85.726,21.248c-1.709-0.635-8.223-3.229-16.119-7.327c-8.269-4.291-14.089-8.176-16.119-9.525
		c-29.912-19.877-121.351-89.454-172.185-77.666c-1.811,0.42-18.201,4.221-18.204,9.341c-0.001,2.665,4.436,5.171,7.626,6.973
		c3.39,1.915,6.035,3.409,8.16,2.293c2.657-1.395,3.181-6.174,1.9-9.498c-0.297-0.771-1.557-3.71-4.687-5.083
		c-4.301-1.887-7.296,1.305-17.198,2.308c0,0-2.42,0.245-5.44,0.261c-10.484,0.055-15.944-3.126-27.139-5.449
		c-3.761-0.78-8.23-1.459-13.892-1.878c-11.777-0.87-20.181,0.019-27.11,5.129c-2.438,1.797-5.914,4.361-6.594,7.327
		c-3.054,13.31,49.826,36.257,99.647,58.616c74.775,33.557,112.162,50.336,127.49,60.814c54.703,37.394,86.435,82.504,95.251,76.201
		c6.693-4.786-10.509-31.569-2.198-38.1c8.914-7.006,43.874,11.89,47.625,35.902c1.748,11.19-1.521,19.767-1.521,19.767
		c-3.704,9.718-10.285,12.756-9.123,18.247c1.031,4.87,7.647,9.278,13.685,9.123c12.658-0.325,14.006-20.482,27.37-25.849
		c15.036-6.039,26.689,14.112,58.398,28.668c36.209,16.622,48.283,2.865,88.127,20.174c29.133,12.656,19.919,18.812,47.78,30.791
		c37.025,15.919,68.398,11.54,101.93,32.915c2.918,1.86,16.274,10.374,14.865,13.803c-1.064,2.59-10.19,1.396-12.741,1.062
		c-8.563-1.121-14.598-4.17-14.865-4.247c-173.473-50.104-272.224-97.71-274.999-91.312c-2.6,5.994,45.808,36.4,94.498,56.274
		c36.181,14.768,120.01,48.984,175.193,48.842c5.117-0.013,22.074-0.353,24.421,6.371c2.028,5.809-7.489,15.052-13.803,19.112
		c-44.845,28.831-175.338-44.921-204.922-65.83c-2.791-1.973-10.893-7.864-18.05-5.309c-9.982,3.562-15.965,22.781-10.223,33.298
		c8.012,14.673,38.424,5.151,60.441,10.388c112.62,26.792,162.445,81.614,196.433,60.441c23.891-14.883,8.343-47.621,35.887-65.163
		c30.539-19.449,90.459-5.196,112.382,34.942c10.085,18.465,15.827,49.177,1.889,63.274c-15.896,16.077-61.151,14.353-84.995,10.388
		c-7.102-1.181-19.294-3.723-25.499,2.833c-4.702,4.969-5.518,14.691-1.889,20.777c7.383,12.381,32.698,8.934,78.384,3.777
		c58.983-6.657,88.612-9.903,95.362-5.819c36.2,21.9,37.176,129.907-16.427,196.507c-70.099,87.097-224.816,92.539-249.003,49.046
		c-24.055-43.255,65.592-162.616,116.956-150.911c45.107,10.279,75.734,125.065,37.728,192.411
		c-18.052,31.989-36.91,27.262-104.182,101.507c-26.711,29.48-40.862,49.06-52.552,70.254
		c-21.073,38.204-28.156,69.955-30.763,79.09c-11.86,41.551-68.132,95.163-264.387,147.299c0,0,0,0,0,0
		c-0.106,0.109-188.922,194.262-289.184,166.028c-5.678-1.599-30.331-8.541-32.848-22.993
		c-2.255-12.951,15.111-21.325,12.044-32.848c-3.86-14.504-33.87-10.603-38.323-25.183c-3.575-11.704,11.258-28.969,25.183-37.228
		c14.135-8.383,22.386-4.554,27.373-12.044c9.447-14.189-12.29-39.752-6.57-44.892c7.526-6.763,48.208,34.732,60.221,26.278
		c10.958-7.711-15.186-47.66,3.285-72.265c8.546-11.384,17.297-7.035,22.993-17.519c11.443-21.061-20.891-44.096-14.234-78.835
		c1.967-10.263,8.948-29.953,21.899-32.848c22.072-4.934,34.426,44.957,89.784,83.215c15.059,10.407,58.415,40.37,93.069,26.278
		c26.748-10.876,38.254-43.908,42.702-41.607c4.859,2.513-18.774,36.802-6.57,62.411c12.188,25.573,51.503,24.424,51.462,33.943
		c-0.077,17.907-139.18,12.75-158.765,66.791c-8.955,24.71,10.41,52.604,1.095,58.031c-9.059,5.279-22.268-24.081-54.746-33.943
		c-40.583-12.322-61.815,20.811-107.303,7.665c-24.059-6.953-37.497-21.823-41.607-17.519c-4.146,4.341,5.049,24.154,20.804,36.133
		c19.629,14.925,37.194,8.378,40.512,16.424c7.624,18.487-84.343,54.888-82.12,102.923c0.689,14.886,9.814,17.708,18.631,35.398
		c34.87,69.964-36.016,169.964-46.577,184.443c-27.491,37.692-85.325,97.925-121.099,83.838
		c-11.991-4.722-24.327-18.905-22.357-29.809c2.587-14.318,28.713-16.738,27.946-24.22c-0.766-7.472-28.04-16.938-44.713-5.589
		c-10.475,7.13-12.967,19.889-14.904,29.809c-5.249,26.876,6.835,33.171,1.863,50.303c-7.951,27.398-45.075,32.722-42.85,48.439
		c1.399,9.888,16.499,10.648,16.768,18.631c0.53,15.77-57.569,37.666-70.796,22.357c-8.228-9.523,4.583-29.19-1.863-33.535
		c-6.522-4.396-22.622,13.722-42.85,27.946c-41.896,29.46-103.675,43.747-124.825,22.357c-11.576-11.707-6.632-29.703-14.904-31.672
		c-9.743-2.32-17.829,22.351-37.261,44.714c-41.043,47.232-89.421,34.36-102.468,70.796c-6.959,19.435-0.839,44.442,11.178,50.303
		c12.807,6.246,29.996-10.385,37.261-3.726c7.37,6.755-7.969,26.023,0,37.261c9.377,13.224,40.585,0.598,44.713,9.315
		c4.06,8.572-26.579,19.81-37.261,48.439c-12.767,34.218,16.426,57.228,1.863,81.975c-10.872,18.476-39.065,25.907-61.481,20.494
		c-29.597-7.148-51.682-37.309-46.577-55.892c4.321-15.729,26.9-18.709,26.083-31.672c-0.685-10.862-16.873-14.087-16.768-26.083
		c0.087-9.958,11.289-13.04,9.315-20.494c-1.374-5.191-7.339-5.706-24.457-14.549c-0.322-0.166-0.91-0.471-1.626-0.355
		c-4.608,0.744-10.02,14.104-5.589,22.357c2.921,5.441,8.104,4.811,9.392,9.7c1.496,5.68-3.704,13.348-7.625,13.17
		c-4.204-0.191-4.088-9.272-9.704-11.09c-7.695-2.491-14.911,12.291-21.487,10.397c-7.252-2.088-1.602-20.963-13.17-37.43
		c-9.163-13.044-19.873-11.398-20.794-18.022c-2.779-19.979,93.059-46.57,102.585-49.213c48.947-13.581,64.135-10.188,70.7-8.318
		c19.32,5.503,29.301,16.434,41.749,12.374c0.592-0.193,1.496-0.558,2.557-1.082c15.797-7.803,15.214-29.689,20.788-40.938
		c14.36-28.979,87.701-23.918,135.397-9.338c21.356,6.529,54.769,16.743,56.026,35.017c1.003,14.568-18.682,30.601-37.351,35.017
		c-20.719,4.901-26.535-7.736-44.354-4.669c-34.983,6.021-38.34,59.163-67.698,60.695c-15.968,0.833-33.348-13.929-32.682-23.344
		c0.446-6.305,8.91-9.14,7.858-13.493c-1.757-7.268-26.698-4.942-27.474-9.653c-0.698-4.234,19.576-5.319,34.9-20.049
		c16.702-16.054,17.275-38.466,23.761-37.87c4.811,0.442,3.911,12.716,11.881,17.078c4.634,2.537,14.209,3.461,36.385-13.366
		c35.487-26.927,33.008-46.02,54.948-59.404c33.702-20.559,86.432-4.107,89.342,11.405c2.095,11.165-22.615,16.514-24.712,36.117
		c-2.089,19.53,19.285,43.688,41.82,47.522c33.865,5.762,73.156-33.895,81.739-72.234c6.643-29.673-6.125-54.015,5.703-60.829
		c7.713-4.443,22.085,0.755,26.613,9.505c5.164,9.979-5.626,18.5-1.901,26.613c6.777,14.759,57.179,18.556,91.243-5.703
		c24.454-17.415,30.737-42.344,41.82-39.919c12.151,2.658,13.811,34.638,19.009,34.216c6.208-0.504-0.028-45.807,19.009-55.126
		c11.996-5.873,29.188,4.914,30.414,5.703c14.274,9.186,12.683,20.658,20.91,22.811c15.217,3.981,46.592-28.489,49.424-64.63
		c1.815-23.175-9.714-27.336-7.604-53.225c2.276-27.929,16.239-29.785,19.009-53.225c4.961-41.984-35.878-69.473-24.712-85.54
		c9.15-13.166,40.167,0.116,47.523-13.306c6.264-11.431-14.339-24.515-11.405-45.622c3.013-21.681,27.157-25.173,32.315-41.82
		c9.28-29.948-50.592-77.619-76.036-91.243c-121.864-65.256-426.434,107.187-571.125,368.145
		c-114.028,205.656-100.707,413.91-91.352,549.962c13.213,192.145,2.202,186.208,45.298,283.191"/>
</g>
<g id="&#xBE44;&#xD589;&#xAE30;" style="display:none;">
	<path style="display:inline;fill:none;stroke:#000000;stroke-miterlimit:10;" d="M-396.37-144.818v137c0,2.39,0,6.67,0,12
		c-0.25,125.14,33.43,179,10,210c-27.91,36.94-132.17,36.74-164-17.5c-26.51-45.17,5.68-113.38,48-143
		c81.56-57.07,231.86,7.43,263,92c16.31,44.3-10.53,65.7,9,103c37.42,71.44,190.41,96.95,256,37c49.9-45.61,25.85-119.31,61-131
		c53.66-17.85,123,149.52,207,135c42.22-7.3,58.11-55.39,123-59c16.83-0.94,47.93,0.51,50,10c3.29,15.06-64,61.89-102,37
		c-25.93-17-31.56-63-21-70c7-4.61,25.39,5.11,25,11c-0.19,2.82-4.76,5.83-8,5c-10.29-2.64-15.87-46.28-2-55
		c17.47-11,68.32,31.83,64,41c-2.06,4.38-18.07,4-21-2c-6.41-13.09,40.87-70.91,77-57c32.49,12.5,36.72,75.6,25,82
		c-4.83,2.64-15.13-2.86-16-9c-2.33-16.34,59.5-54.84,85-34c22.41,18.32,7.59,75-2,76c-5.62,0.59-13.89-17.45-11-20
		c4.21-3.72,36,22.17,33,28s-37.12-17.8-81-10c-11.32,2-37.76,6.71-49,27c-18.9,34.12,21.48,82.93,28,88
		c0.12,0.09,1.08,0.84,2.4,1.9c5.43,4.35,9.66,8.25,12.6,11.1c0.63,0.61,2.33,2.27,4.49,4.51c0,0,4.52,4.68,8.45,9.35
		c15.38,18.23,8.06,62.14,8.06,62.14c-11.66,70-17.49,105-39,115c-27,12.56-68.22-2.28-72-19c-1.55-6.84,3.08-14.42,8-18
		c10.85-7.9,29.56-1.07,40,7c6.1,4.71,10.28,10.55,11,10c1-0.73-8.63-9.41-9-21c-0.38-12.1,9.4-24.4,21-29c3-1.19,10.9-4.32,18-1
		c7.75,3.63,8,11.89,12,12c6.16,0.17,5.62-19.77,19-32c11.11-10.16,30.73-14,43-7c11.44,6.51,14.39,21.2,20,20c3.89-0.83,3.1-8,9-11
		c5.5-2.79,12.87,0.06,17,3c8.72,6.2,11.26,18.69,10,28c-1.42,10.53-7.52,15.72-5,19c3.1,4,13-2.94,19,2c4.89,4,5.23,14.57,1,20
		c-2.71,3.49-7.38,5-7,6s4.07-0.69,6,1c2.49,2.17,1.4,9.3-2,13c-6.07,6.61-20.11,2.94-24,2c-36.29-8.76-74.68,2-112,1
		c-71.24-1.84-106.86-2.76-116,2c-39.84,20.76-63.09,73.57-70,109c-4.24,21.76-5.63,53.88-29.32,88.38
		c-2.91,4.441-6.145,8.659-9.68,12.62c-37.2,40.76-114.53,47.58-133,21c-8-11.52-5.68-30.38,3-42c6.71-9,19.75-17.06,31-14
		c16.08,4.37,22,29.78,24,29c2.24-0.88-14.12-30.19-4-56c1.52-3.89,5.53-14.11,15-18c15.83-6.5,38.4,8.21,46,25
		c3.55,7.84,3.8,16,4,16s-5.19-17.12-3-34c2.77-21.33,18.45-47.46,35-48c26-0.85,49.29,61.47,52,60c0.88-0.48-2.94-6.23-3-14
		c-0.12-14.86,13.52-31.88,29-35c22.09-4.45,46,19.82,49,42c4.32,31.47-33.47,57.33-52,70c-7.28,5-31.54,20.7-69,27
		c-47.57,8-96.13-2.59-96-9c0.18-8.94,95.39-24.43,192-4c58.65,12.4,102.54,21.69,130,61c41.53,59.45,15.77,145.06,5,151
		c-0.66,0.36-1.37,0.71-1.37,0.71c-10.51,5.18-21,3.62-23.63,3.29c-25.15-3.14-50.66,2.22-76,2c-69.79-0.61-90.85,12.07-101-2
		c-9.47-13.12-1.4-38.35,4-39c4.34-0.52,9.9,14.51,11,14c0.94-0.43-5.72-10.2-3-19c3.66-11.84,23.28-18.58,28-14
		c2.64,2.57,0.94,9,1,9s-1.73-9.6,3-15c4.53-5.17,14.48-5.82,20-2c2.36,1.63,4.44,4.44,4,5s-3.51-0.9-5-2c-6.7-5-8.88-23,1-33
		s28-8.15,35,0c4.32,5,5.28,13.35,4,14c-0.93,0.47-3.73-2.73-4-3.06c-0.773-0.904-1.443-1.889-2-2.94c-2.14-4.35,5.65-29.75,20-31
		c15.78-1.38,29.89,27.27,28,29c-0.92,0.84-6.79-3.58-10-7c-15.86-16.9-11.64-57.34,11-81c4-4.22,24.09-25.18,51-20
		c24.67,4.75,40.43,28.65,38,32c-1.79,2.46-16.71-1.65-22-11c-11.07-19.55,16.8-67.5,47-71c43.25-5,88.13,81.49,78,92
		c-3.74,3.88-17.38-0.13-21-8c-7.68-16.69,25.39-60.14,55-59c39,1.5,70.35,80.14,64,85c-2.82,2.16-16.9-7.35-17-17
		c-0.11-11,17.9-24,31-21c17.34,4,24.33,35.62,23,57c-1.91,30.69-22.15,59.13-29,57c-5.69-1.77-7.54-26.28,3-34
		c13.09-9.58,44.62,7.21,45,22c0.23,9.2-11.57,18.54-14,17c-3.85-2.44,5.82-38.48,24-43c24-6,58.6,44,52,53
		c-2.59,3.53-12.71,2.34-15-2c-4.18-7.91,15.64-30.12,25-27c7.66,2.55,5.56,21.12,14,23c3.81,0.85,5.65-2.61,11-4
		c12.94-3.35,30.91,9.44,30,16c-1.07,7.71-28.65,9.8-74,12c-155.74,7.56-233.61,11.33-287,9c-57.25-2.5-79.29-5.68-86,7
		c-17.25,32.61,89.67,127.21,105,138c4.09,2.88,7.94,6.08,12,9c11.12,8,16.1,10.64,19,17c1.369,3.154,2.051,6.562,2,10
		c0.67,33.1-22.55,88.85-17,133c0.75,6,3.24,21.35-1,23c-2.46,1-6.13-3.09-7-4c-14.67-15.43-76-28-126-41
		c-61.56-16-70.7-23.43-97-19c-25.1,4.22-46.89,16.07-46,20c0.59,2.58,10.87,1.18,33,6c4.3,0.94,16.18,3.52,16,5s-12.28,1.86-23,1
		c-14.51-1.16-18.46-4-25-1c-5.124,2.368-9.085,6.69-11,12c0,0-3.68,10.75,7,28l3,4.77c0.68,1,1.3,1.77,1.72,2.29
		c1.18,1.43,1.69,1.82,2.77,3.25c0.23,0.31,0.73,1,1.29,1.89c0.67,1.07,0.92,1.63,1.66,3c0,0.07,0.83,1.54,1.59,2.8
		c1.62,2.69,2.42,4,3,4c1.35-0.07,3.18-4.83,2-9c-1-3.71-4.17-5.87-6-7c-15.75-9.77-42.93-10.12-53-11
		c-1.375-0.086-2.744-0.253-4.1-0.5c0,0,0.32,0,0.32-0.06c0-0.27-13.22-1.44-13.22-1.44c-58.25-5.14-155-16.28-156-10
		c-0.19,1.15,2.86,2.83,12,6c66,22.88,166.24,25.32,178,24c0,0,7.42-0.83,11,2l1.69,1.35l3.31,2.65c1.92,1.52,3.44,2.66,4.15,3.19
		c2.15,1.61,3.48,2.54,3.85,2.81c3.73,2.77,6.63,11.14,5,19c-1.144,5.104-3.959,9.679-8,13c-11.22,9.34-29.12,6.55-30,3
		c-0.41-1.65,2.73-4.1,9-9c4.37-3.41,5.74-3.76,7-6c2.93-5.22,0.14-11.68,0-12c-3.29-7.34-13.4-12.51-22-9c-5.09,2.08-10,7.33-10,14
		c0,7.45,6,14.74,13,15c7.86,0.28,12.64-8.34,13-9c1.12-2.18,1.799-4.558,2-7c0.42-3.44,1.24-10.13-3-15c-4.24-4.87-11.56-5.7-17-4
		c-8.15,2.55-11.08,10.5-12,13c-3.29,9,0.07,16.89,1,19c3.82,8.64,11,12.49,14,14c9,4.59,17.41,3.63,23,3c6.89-0.78,14.15-1.6,20-7
		c3.76-3.47,6.17-8.31,11-18c3.14-6.31,3.18-7.45,5-9c5.77-4.91,15.39-1.94,23,0c29.08,7.41,46.28,4.19,63.07,10.45
		c6.62,2.529,12.963,5.729,18.93,9.55c3.64,2.42,25.9,15.84,51.63,10.76c0,0,27.39-5.41,31.37-2.76
		c0.241,0.153,0.495,0.284,0.76,0.39c0.88,0.33,7.24-1.39,7.24-1.39c1.87-0.51,3.76-0.88,4-1.93c0,0,0,0,0-0.07c0-0.4-0.27-1.34-5-3
		c-9-3.17-23-5-23-5c-4.39-0.58-6-0.73-6-1c0-0.82,15-1,17-1c7.49-0.08,11.28-0.09,13,1c2.07,1.32,4.39,3.84,10,7l0.72,0.4
		c4.4,2.38,12.9,7,17.28,2.6c5.76-5.76,13.07-9.5,16-14c3.08-4.72,2.24-11.66,0-16c-5.55-10.75-24.28-14.41-33-6
		c-4,3.85-6.81,11.12-4,18c2.521,6.057,8.439,10.002,15,10c10.7-0.22,15.42-12.49,16-14c2.58-6.72,2.91-17.11-3-22
		c-1.7-1.41-5.13-3.36-20-1c-16.13,2.56-17.27,5.69-31,8c-10,1.68-20.3,1.88-31-1c-2-0.55-11.22-3-11-5c0.26-2.34,13.48-3,36-4
		c17.77-0.8,25.53-0.68,26-3c0.09-0.45,0.25-2.62-12-8c-17.38-7.63-29.76-8.55-47-12c-17.86-3.57-13.16-4.31-35-9
		c-12.81-2.75-25-8.65-38-10c-2.78-0.29-8.89-0.8-10-4c-1.18-3.38,3.87-8,5-9c13.69-12.45,53.44,6.65,110,11
		c12.17,0.94,28.73,1.47,41-9c5.44-4.64,8.14-9.82,11-16c14.68-31.72,15.52-50.84,26-76c6-14.52,17.54-36.41,22-35
		c7.55,2.38-4.4,71.54-11,123c-0.1,0.81-2.21,17.49-1.29,23.54c0.3,1.844,0.374,3.718,0.22,5.58c-0.17,1.65-0.481,3.283-0.93,4.88
		c-0.64,2.8-2,8.82,0,11c2.44,2.63,9.73-0.47,11-1c33.21-13.8,166.06-19,215-19c100.93,0,81.22-1.75,95-1c12,0.65,17.93,1,18,2
		c0.29,4-82.59,13.61-141,19c-73,6.73-109.43,10.1-149,12c0,0-68.13,3.27-68,7c0,1.11,11.88-0.61,20,7c5.83,5.46,9.76,15.75,6,24
		c-4.17,9.15-15.68,11.1-21,12c-3.21,0.54-7.19,0.37-15,0c-14.59-0.69-20.75-2-21-1c-0.31,1.21,9.21,5.18,19,8
		c14.615,4.169,29.826,5.859,45,5c9.58-0.51,16-0.91,24-4c6.823-2.747,13.22-6.451,19-11c8.77-6.77,7.88-8.84,13-11
		c11.14-4.7,23.45,1.68,26,3c5.505,2.903,10.289,7.004,14,12c22,28.94,20,59.46,36,66c15.7,6.4,30.81-17.48,46-10
		c14.5,7.13,10.2,33.51,21,36s18.43-23,34-25c17.27-2.18,22,31.58,50,54c30.72,24.57,55.87,10.24,77,25
		c50.26,35.11,46,212.58-55,269c-75.44,42.14-189.43,8.13-195-28c-6-38.94,109.81-107,144-81c37.75,28.73,1.59,191.66-98,253"/>
</g>
<g id="&#xC804;&#xAD6C;_&#xB808;&#xD37C;&#xB7F0;&#xC2A4;" style="display:none;">
	<g id="v4tE29_00000000919424747212399210000008849773459101886620_" style="display:inline;opacity:0.5;">
		
			<image style="overflow:visible;" width="1000" height="1080" id="v4tE29" xlink:href="C9D17EEFDFDAE1A3.jpg"  transform="matrix(1 0 0 1 460 673.821)">
		</image>
	</g>
</g>
<g id="&#xC804;&#xAD6C;">
	<path style="fill:none;stroke:#DFE900;stroke-miterlimit:10;" d="M993.117,2602.228c-34.636,13.525-62.576,12.677-70.407,0
		c-3.461-5.603-2.771-13.157,0-18.306c12.436-23.102,76.307-15.461,78.856-2.816c1.507,7.476-18.108,18.262-32.734,22.299
		c-28.44,7.85-63.018-2.915-75.824-25.627c-0.87-1.543-2.189-4.116-5.083-15.25c-11.663-44.867-10.787-82.128-10.167-96.02
		c1.011-22.652,1.516-33.977,4.655-39.181c22.56-37.396,120.978-41.455,153.934,3.781c18.204,24.987,1.294,44.233,1.821,119.56
		c0.037,5.332,0.212,18.076-8.264,26.931c-6.826,7.132-16.145,8.483-20.563,9.064c-36.927,4.851-122.646-28.302-118.826-40.509
		c3.854-12.317,120.974,28.637,145.832-11.342c1.006-1.618,6.785-10.913,3.241-17.284c-13.247-23.812-133.827,34.401-152.854,4.861
		c-3.309-5.137-3.561-12.953-0.54-18.364c16.427-29.424,124.175,21.969,149.073-13.503c4.935-7.032,7.302-18.455,2.701-25.386
		c-18.569-27.965-138.951,34.784-155.554,8.102c-3.466-5.569-1.388-13.391,1.08-17.824c17.614-31.633,143.796,32.341,159.875,5.941
		c4.118-6.761-2.932-12.531,1.628-32.93c3.332-14.906,8.945-20.102,13.646-32.751c7.591-20.425,4.049-36.734,3.639-48.217
		c-1.378-38.586,31.342-57.888,57.315-101.893c6.234-10.563,40.432-70.585,30.932-142.833
		c-2.147-16.326-11.362-78.774-66.412-123.728c-50.405-41.16-106.839-41.197-124.637-40.939
		c-19.073,0.276-96.304,4.128-149.201,68.232c-1.984,2.404-48.28,60.241-41.849,137.374c4.798,57.544,37.416,107.524,39.12,110.081
		c10.461,15.699,20.499,26.258,30.932,50.037c9.027,20.574,8.719,29.095,18.195,61.864c11.741,40.598,17.611,60.897,27.312,70.303
		c30.637,29.707,96.074,26.347,110.512,1.178c2.004-3.494,1.503-4.753,2.356-21.914c2.609-52.475,8.685-68.684-2.121-90.012
		c-1.086-2.144-5.281-5.026-6.649-10.592c-2.171-8.831,2.926-17.038,4.668-19.945c9.487-15.838,31.254-61.151,34.289-98.81
		c0.684-8.485,0.236-14.344,4.328-21.712c9.667-17.405,31.017-18.647,30.425-25.374c-0.441-5.017-12.798-9.78-23.211-7.728
		c-18.119,3.572-27.165,26.993-23.765,30.979c1.315,1.542,5.738,0.39,8.487-1.698c11.507-8.735,4.261-41.85-4.668-43.286
		c-9.709-1.562-26.449,33.514-20.794,38.618c1.641,1.481,5.408,0.653,7.639-1.273c10.905-9.413-8.224-50.791-13.58-49.652
		c-5.345,1.137,5.001,44.203-10.609,51.773c-0.696,0.338-4.623,2.146-7.639,0.424c-11.013-6.286,1.664-53.033,5.092-52.622
		c3.575,0.428,5.684,53.156-9.336,58.139c-3.817,1.266-8.132-0.752-10.609-2.971c-14.189-12.708,3.94-57.069,7.214-56.441
		c1.68,0.322,0.726,12.737-0.424,19.945c-3.406,21.335-15.579,41.172-19.521,39.891c-6.317-2.054,3.309-60.044,8.063-59.836
		c4.511,0.197,15.889,53.285-5.092,64.504c-9.572,5.118-24.505,0.788-31.403-8.063c-15.348-19.694,11.228-59.015,19.521-57.29
		c6.904,1.436,10.073,33.176-3.395,54.32c-3.817,5.992-12.894,17.294-19.521,15.277c-1.762-0.536-3.815-2.156-6.128-8.76
		c-6.221-17.764-3.268-40.032,1.46-40.468c3.541-0.326,8.571,11.547,8.912,22.067c0.515,15.909-9.579,32.342-15.702,31.404
		c-9.438-1.447-13.238-44.753-9.336-45.832c2.128-0.588,9.412,10.584,6.366,18.672c-2.16,5.736-8.812,8.048-17.399,11.033
		c-9.634,3.349-21.14,7.349-25.038,2.971c-6.24-7.01,7.626-34.824,17.399-33.95c5.536,0.495,8.217,10.06,16.975,45.408
		c11.336,45.756,32.547,89.17,39.466,135.799c0.125,0.844,0.584,4.025,2.971,6.79c8.346,9.67,33.235,6.1,36.072-2.546
		c1.237-3.77-1.78-8.322-4.668-10.609c-9.526-7.542-26.107,2.867-27.584,3.819c-2.513,1.62-10.793,7.136-14.429,18.248
		c-0.36,1.1-4.951,15.865,2.971,27.584c6.809,10.073,15.443,6.92,22.067,15.277c9.334,11.775,6.262,35.782-5.941,47.53
		c-16.456,15.841-40.546,0.752-47.341,10.63c-16.576,24.095,98.826,154.505,123.911,188.385c1.656,2.237,5.428,7.442,8.059,15.111
		c3.467,10.105,2.88,18.445,2.475,26.77c-0.466,9.565-0.897,23.327-0.641,41.047"/>
</g>
</svg>
