<?xml version="1.0" encoding="UTF-8"?><svg id="_레이어_1" xmlns="http://www.w3.org/2000/svg" viewBox="0 0 1920 758"><defs><style>.cls-1{fill:none;stroke:#dfe900;stroke-miterlimit:10;}</style></defs><path class="cls-1" d="M514.03,605.55c-26.15,10.21-47.25,9.57-53.17,0-2.61-4.23-2.09-9.94,0-13.82,8.02-14.91,41.54-15.9,59.55-2.13,2.37,1.81,7.99,6.11,7.09,9.9-1.69,7.15-25.34,6.99-31.81,6.94-15.28-.1-46.4-.09-57.26-19.35-.66-1.16-1.65-3.11-3.84-11.52-8.81-33.88-8.15-62.02-7.68-72.51.77-17.21,1.2-25.82,3.52-29.59,20.73-33.73,116.95-21.59,124.07,4.02.37,1.32.99,3.57,0,6-8.95,21.86-122.86-6.79-123-6-.09.49,41.78,20.89,96,21,8.42.02,17.98-.45,24,6,9.06,9.71-2.08,22.01-3.45,62.12-.19,5.54-.28,14.11-6.24,20.34-5.24,5.48-12.43,6.43-15.53,6.84-27.68,3.68-96.32-25.76-92.78-35.3,4.25-11.45,109.23,14.87,110,15-16.18.43-74.14.53-104-31-.91-.96-7.96-8.5-6.21-11.1,4.62-6.87,60.38,35.7,106.21,20.1,2.02-.69,9.15-3.19,9-6-.52-9.47-82.41.69-113-40-1.59-2.12-6.09-8.21-4.25-10.81,7.38-10.47,104.16,53.42,119.25,35.81,1.19-1.38.49-1.66,1.47-31.32.49-14.89.86-20.37,1.23-24.87.39-4.72,1.21-14.47,3.3-25.81,0,0,3.23-17.51,9.75-35.33,11.13-30.41,30.31-54.97,43.28-76.94,4.71-7.98,30.53-53.3,23.36-107.86-1.62-12.33-8.58-59.48-50.15-93.43-38.06-31.08-80.68-31.11-94.12-30.91-14.4.21-72.72,3.12-112.66,51.52-1.5,1.82-36.46,45.49-31.6,103.73,3.62,43.45,28.25,81.19,29.54,83.12,7.9,11.85,15.48,19.83,23.36,37.78,6.82,15.54,6.58,21.97,13.74,46.71,8.87,30.66,13.3,45.98,20.62,53.09,23.13,22.43,72.55,19.9,83.45.89,1.51-2.64,1.14-3.59,1.78-16.55.77-15.4-3.35-67.77-1.6-67.97.09-.01.12.13.25.13,1.48.05,3.01-17.9,4-26,4.5-36.86,18.69-40.81,20.14-71.81.26-5.52.05-10.6,3.27-16.39,7.3-13.14,23.42-14.08,22.97-19.16-.33-3.79-9.66-7.39-17.53-5.84-13.68,2.7-20.51,20.38-17.95,23.39.99,1.16,4.33.29,6.41-1.28,8.69-6.6,3.22-31.6-3.53-32.69-7.33-1.18-19.97,25.31-15.7,29.16,1.24,1.12,4.08.49,5.77-.96,8.23-7.11-6.21-38.35-10.25-37.49-4.04.86,3.78,33.38-8.01,39.1-.53.25-3.49,1.62-5.77.32-8.32-4.75,1.26-40.05,3.85-39.74,2.7.32,4.29,40.14-7.05,43.9-2.88.96-6.14-.57-8.01-2.24-10.71-9.6,2.98-43.09,5.45-42.62,1.27.24.55,9.62-.32,15.06-2.57,16.11-11.76,31.09-14.74,30.12-4.77-1.55,2.5-45.34,6.09-45.18,3.41.15,12,40.24-3.85,48.71-7.23,3.86-18.5.6-23.71-6.09-11.59-14.87,8.48-44.56,14.74-43.26,5.21,1.08,7.61,25.05-2.56,41.02-2.88,4.52-9.74,13.06-14.74,11.54-1.33-.4-2.88-1.63-4.63-6.61-4.7-13.41-2.47-30.23,1.1-30.56,2.67-.25,6.47,8.72,6.73,16.66.39,12.01-7.23,24.42-11.86,23.71-7.13-1.09-10-33.79-7.05-34.61,1.61-.44,7.11,7.99,4.81,14.1-1.63,4.33-6.65,6.08-13.14,8.33-7.27,2.53-15.96,5.55-18.91,2.24-4.71-5.29,5.76-26.3,13.14-25.64,5.61.5,8.45,13.47,12.82,34.29,7.58,36.1,12.71,60.53,15.02,83.51,1.24,12.32,5.35,10.11,8,19,8.88,29.84-.94,51.07,8,56,5.5,3.03,9.87-4.64,23-3,11.66,1.46,15.47,8.42,20,6,4.17-2.23,1.97-8.68,5-30,1.38-9.69,2.21-11.04,1-14-4.71-11.5-25.93-11.94-29-12-6.29-.13-22.13-.45-26.98,8.89-3.54,6.81.26,15.91,2.24,20.83,3,7.43,5.71,7.45,7.74,13.28,3.37,9.71.01,21.64-6,29-9.48,11.6-20.97,6.26-25.31,13.17-13.71,21.85,74.87,117,93.57,142.25,1.25,1.69,4.1,5.62,6.09,11.41,2.62,7.63,2.17,13.93,1.87,20.21-.5,10.32.31,20.69-.48,31-1,12.99-1.75,35.43-.79,76.95"/></svg>