<?xml version="1.0" encoding="UTF-8"?><svg id="_레이어_1" xmlns="http://www.w3.org/2000/svg" viewBox="0 0 1920 758"><defs><style>.cls-1{fill:none;stroke:#dfe900;stroke-miterlimit:10;}</style></defs><path class="cls-1" d="M514.03,605.55c-26.15,10.21-47.25,9.57-53.17,0-2.61-4.23-2.09-9.94,0-13.82,9.39-17.44,57.62-11.68,59.55-2.13,1.14,5.65-13.67,13.79-24.72,16.84-21.48,5.93-47.59-2.2-57.26-19.35-.66-1.16-1.65-3.11-3.84-11.52-8.81-33.88-8.15-62.02-7.68-72.51.76-17.1,1.14-25.66,3.52-29.59,17.04-28.24,91.35-31.3,116.24,2.85,13.75,18.87.98,33.4,1.37,90.28.03,4.03.16,13.65-6.24,20.34-5.15,5.39-12.19,6.41-15.53,6.84-27.88,3.66-92.61-21.37-89.73-30.59,2.91-9.3,91.35,21.62,110.12-8.56.76-1.22,5.12-8.24,2.45-13.05-10-17.98-101.06,25.98-115.42,3.67-2.5-3.88-2.69-9.78-.41-13.87,12.4-22.22,93.77,16.59,112.57-10.2,3.73-5.31,5.51-13.94,2.04-19.17-14.02-21.12-104.92,26.27-117.46,6.12-2.62-4.21-1.05-10.11.82-13.46,13.3-23.89,108.58,24.42,120.73,4.49,3.11-5.11-2.21-9.46,1.23-24.87,2.52-11.26,6.75-15.18,10.3-24.73,5.73-15.42,3.06-27.74,2.75-36.41-1.04-29.14,23.67-43.71,43.28-76.94,4.71-7.98,30.53-53.3,23.36-107.86-1.62-12.33-8.58-59.48-50.15-93.43-38.06-31.08-80.68-31.11-94.12-30.91-14.4.21-72.72,3.12-112.66,51.52-1.5,1.82-36.46,45.49-31.6,103.73,3.62,43.45,28.25,81.19,29.54,83.12,7.9,11.85,15.48,19.83,23.36,37.78,6.82,15.54,6.58,21.97,13.74,46.71,8.87,30.66,13.3,45.98,20.62,53.09,23.13,22.43,72.55,19.9,83.45.89,1.51-2.64,1.13-3.59,1.78-16.55,1.97-39.62,6.56-51.86-1.6-67.97-.82-1.62-3.99-3.8-5.02-8-1.64-6.67,2.21-12.87,3.52-15.06,7.16-11.96,23.6-46.18,25.89-74.61.52-6.41.18-10.83,3.27-16.39,7.3-13.14,23.42-14.08,22.97-19.16-.33-3.79-9.66-7.39-17.53-5.84-13.68,2.7-20.51,20.38-17.95,23.39.99,1.16,4.33.29,6.41-1.28,8.69-6.6,3.22-31.6-3.52-32.69-7.33-1.18-19.97,25.31-15.7,29.16,1.24,1.12,4.08.49,5.77-.96,8.23-7.11-6.21-38.35-10.25-37.49-4.04.86,3.78,33.38-8.01,39.1-.53.25-3.49,1.62-5.77.32-8.32-4.75,1.26-40.05,3.85-39.74,2.7.32,4.29,40.14-7.05,43.9-2.88.96-6.14-.57-8.01-2.24-10.71-9.6,2.98-43.09,5.45-42.62,1.27.24.55,9.62-.32,15.06-2.57,16.11-11.76,31.09-14.74,30.12-4.77-1.55,2.5-45.34,6.09-45.18,3.41.15,12,40.24-3.85,48.71-7.23,3.86-18.5.6-23.71-6.09-11.59-14.87,8.48-44.56,14.74-43.26,5.21,1.08,7.61,25.05-2.56,41.02-2.88,4.52-9.74,13.06-14.74,11.54-1.33-.4-2.88-1.63-4.63-6.61-4.7-13.41-2.47-30.23,1.1-30.56,2.67-.25,6.47,8.72,6.73,16.66.39,12.01-7.23,24.42-11.86,23.71-7.13-1.09-10-33.79-7.05-34.61,1.61-.44,7.11,7.99,4.81,14.1-1.63,4.33-6.65,6.08-13.14,8.33-7.27,2.53-15.96,5.55-18.91,2.24-4.71-5.29,5.76-26.3,13.14-25.64,4.18.37,6.21,7.6,12.82,34.29,8.56,34.55,24.58,67.33,29.8,102.54.09.64.44,3.04,2.24,5.13,6.3,7.3,25.1,4.61,27.24-1.92.93-2.85-1.34-6.28-3.52-8.01-7.19-5.7-19.71,2.17-20.83,2.88-1.9,1.22-8.15,5.39-10.9,13.78-.27.83-3.74,11.98,2.24,20.83,5.14,7.61,11.66,5.23,16.66,11.54,7.05,8.89,4.73,27.02-4.49,35.89-12.43,11.96-30.62.57-35.75,8.03-12.52,18.2,74.63,116.67,93.57,142.25,1.25,1.69,4.1,5.62,6.09,11.41,2.62,7.63,2.17,13.93,1.87,20.21-.5,10.32.31,20.69-.48,31-1,12.99-1.75,35.43-.79,76.95"/></svg>