<?xml version="1.0" encoding="UTF-8"?><svg id="_레이어_1" xmlns="http://www.w3.org/2000/svg" viewBox="0 0 1920 758"><defs><style>.cls-1{fill:none;stroke:#dfe900;stroke-miterlimit:10;}</style></defs><path class="cls-1" d="M540.38,626.05c-21.9,8.55-39.57,8.02-44.53,0-2.19-3.54-1.75-8.32,0-11.58,7.86-14.61,48.26-9.78,49.87-1.78.95,4.73-11.45,11.55-20.7,14.1-17.99,4.96-39.85-1.84-47.95-16.21-.55-.98-1.38-2.6-3.21-9.64-7.38-28.37-6.82-51.94-6.43-60.73.64-14.33.96-21.49,2.94-24.78,14.27-23.65,76.51-26.22,97.35,2.39,11.51,15.8.82,27.97,1.15,75.61.02,3.37.13,11.43-5.23,17.03-4.32,4.51-10.21,5.36-13,5.73-23.35,3.07-77.56-17.9-75.15-25.62,2.44-7.79,76.51,18.11,92.23-7.17.64-1.02,4.29-6.9,2.05-10.93-8.38-15.06-84.64,21.76-96.67,3.07-2.09-3.25-2.25-8.19-.34-11.61,10.39-18.61,78.53,13.89,94.28-8.54,3.12-4.45,4.62-11.67,1.71-16.05-11.74-17.69-87.88,22-98.38,5.12-2.19-3.52-.88-8.47.68-11.27,11.14-20.01,90.94,20.45,101.11,3.76,2.6-4.28-1.85-7.92,1.03-20.83,2.11-9.43,5.66-12.71,8.63-20.71,4.8-12.92,2.56-23.23,2.3-30.49-.87-24.4,19.82-36.61,36.25-64.44,3.94-6.68,25.57-44.64,19.56-90.33-1.36-10.32-7.19-49.82-42-78.25-31.88-26.03-67.57-26.05-78.82-25.89-12.06.17-60.9,2.61-94.36,43.15-1.25,1.52-30.53,38.1-26.47,86.88,3.03,36.39,23.66,68,24.74,69.62,6.62,9.93,12.96,16.61,19.56,31.64,5.71,13.01,5.51,18.4,11.51,39.12,7.43,25.67,11.14,38.51,17.27,44.46,19.38,18.79,60.76,16.66,69.89.75,1.27-2.21.95-3.01,1.49-13.86,1.65-33.19,5.49-43.44-1.34-56.93-.69-1.36-3.34-3.18-4.21-6.7-1.37-5.59,1.85-10.77,2.95-12.61,6-10.02,19.77-38.67,21.69-62.49.43-5.37.15-9.07,2.74-13.73,6.11-11.01,19.62-11.79,19.24-16.05-.28-3.17-8.09-6.19-14.68-4.89-11.46,2.26-17.18,17.07-15.03,19.59.83.98,3.63.25,5.37-1.07,7.28-5.52,2.7-26.47-2.95-27.37-6.14-.99-16.73,21.19-13.15,24.42,1.04.94,3.42.41,4.83-.81,6.9-5.95-5.2-32.12-8.59-31.4-3.38.72,3.16,27.96-6.71,32.74-.44.21-2.92,1.36-4.83.27-6.96-3.98,1.05-33.54,3.22-33.28,2.26.27,3.59,33.62-5.9,36.77-2.41.8-5.14-.48-6.71-1.88-8.97-8.04,2.49-36.09,4.56-35.69,1.06.2.46,8.05-.27,12.61-2.15,13.49-9.85,26.04-12.35,25.23-3.99-1.3,2.09-37.97,5.1-37.84,2.85.12,10.05,33.7-3.22,40.79-6.05,3.24-15.5.5-19.86-5.1-9.71-12.45,7.1-37.32,12.35-36.23,4.37.91,6.37,20.98-2.15,34.35-2.41,3.79-8.15,10.94-12.35,9.66-1.11-.34-2.41-1.36-3.88-5.54-3.93-11.23-2.07-25.32.92-25.59,2.24-.21,5.42,7.3,5.64,13.96.33,10.06-6.06,20.45-9.93,19.86-5.97-.91-8.37-28.3-5.9-28.99,1.35-.37,5.95,6.69,4.03,11.81-1.37,3.63-5.57,5.09-11,6.98-6.09,2.12-13.37,4.65-15.83,1.88-3.95-4.43,4.82-22.02,11-21.47,3.5.31,5.2,6.36,10.74,28.72,7.17,28.94,20.58,56.39,24.96,85.88.08.53.37,2.55,1.88,4.29,5.28,6.12,21.02,3.86,22.81-1.61.78-2.38-1.13-5.26-2.95-6.71-6.02-4.77-16.51,1.81-17.44,2.42-1.59,1.02-6.83,4.51-9.12,11.54-.23.7-3.13,10.03,1.88,17.44,4.31,6.37,9.77,4.38,13.96,9.66,5.9,7.45,3.96,22.63-3.76,30.06-10.41,10.02-25.64.48-29.94,6.72-10.48,15.24,62.5,97.71,78.36,119.14,1.05,1.41,3.43,4.71,5.1,9.56,2.19,6.39,1.82,11.66,1.57,16.93-.42,8.64.26,17.33-.41,25.96-.84,10.88-1.47,29.67-.66,64.45"/></svg>